<?xml version="1.0" encoding="UTF-8"?>
<svg width="864" height="576" version="1.0" xmlns="http://www.w3.org/2000/svg" xmlns:cc="http://creativecommons.org/ns#" xmlns:dc="http://purl.org/dc/elements/1.1/" xmlns:rdf="http://www.w3.org/1999/02/22-rdf-syntax-ns#">
 <metadata>
  <rdf:RDF>
   <cc:Work rdf:about="">
    <dc:format>image/svg+xml</dc:format>
    <dc:type rdf:resource="http://purl.org/dc/dcmitype/StillImage"/>
   </cc:Work>
  </rdf:RDF>
 </metadata>
 <path d="M0 0h864v576H0z" fill="navy" fill-rule="evenodd"/>
 <path transform="scale(.5)" d="M0 0h768v576H0z"/>
 <path transform="scale(.5)" d="M0 0h768v576L0 0z" fill="#ce1126" fill-rule="evenodd"/>
 <path transform="scale(.5)" d="m475.4847 167.3535c-5.67222 7.32645-19.095-7.36966-35.175-7.70533s-27.47067 15.40966-32.16 20.77033-19.76433 33.49967-19.42967 36.51467c0.33467 3.015 9.38067-8.37467 12.73034-10.38467 0.33466 4.02-3.68534 8.71034-2.68034 10.05 1.005 1.33967 11.72433-8.04 15.40967-8.37466 1.005 2.68033-2.01 5.35966-1.005 9.37966 1.34067 1.33967 7.37067-6.70033 11.39067-8.37466 0.66933 3.015-3.68534 8.71033-1.34067 12.39466 1.67533 0.33467 11.72433-11.38966 15.075-12.73033s-1.67534 11.055 0 12.06c3.015-2.01 12.39567-12.73034 15.41067-14.07 3.015-1.33967-0.33467 13.73533 1.005 13.73533 3.68433-2.68033 13.065-15.40966 14.07-17.41966s-1.005 19.42966 9.37966 30.82033c10.38467 11.39067 26.13101 24.45467 27.80534 24.45467 2.01-3.68534-0.66933-11.38967 1.005-11.055 4.68933 5.025 13.39966 12.39466 15.40966 12.39466s-1.34067-8.04 1.33967-8.04c5.36067 5.025 20.77033 24.79034 50.92033 33.83534-2.01-5.69534-6.36567-10.72034-6.70033-13.39967 2.01 0.33467 9.046 3.68534 10.38567 3.34967 1.33966-0.33567-14.74034-20.1-13.73534-22.78034 3.68534-0.33466 5.36067 2.01 6.70034 0.33467-1.67534-2.67933-15.74534-18.42467-15.74534-22.11 0-3.68534 4.35567 0.67033 5.69534 0 1.33966-0.67034-5.35967-14.74034-4.02-16.41467 1.33966-1.67433 16.07899 9.045 19.76433 9.045 3.68533 0 1.005-13.065 2.68033-13.73533 1.67534-0.67034 14.07101 7.035 16.75034 7.035s2.34466-5.69534 3.34966-5.025c1.005 0.67033 30.15 29.81533 20.1 63.98533-10.05 24.45567-30.14899 37.52067-59.62966 26.80034 1.67433 2.68033 17.41966 15.74533 34.50466 11.055 17.085-4.69034 37.85433-18.09 35.50967-51.58967-2.34467-33.49966-13.40067-38.19-15.075-43.215s2.68134 1.33967 6.36567 2.68034-0.67034-7.03601-1.67534-10.72134c-1.005-3.68534 11.055 7.70533 14.07 8.71033s-7.035-27.46966-10.05-29.47966 3.015 0.66933 5.025 1.33966c2.01 0.67034-18.42567-31.155-22.78033-31.155-4.35467 0 3.68433-1.67533 6.03-1.67533s-23.44866-20.77034-27.80433-20.77034 9.37866-5.36067 10.71933-5.69533c2.34567 0.33466-29.81433-17.085-58.62467 0.33466-1.67533-1.33866 13.56851-11.89116 14.07-16.41366 0.16784-1.17283-5.02399-3.68533-5.35966-5.025-0.33567-1.33966 8.04-5.35965 8.37466-8.37465-2.01-2.68033-5.69533-1.67534-7.70533-2.34466-0.5015-2.512504 7.036-8.710339 6.36567-11.38967-0.5025-1.5075-6.03101-2.01-7.37067-1.005-1.33967 1.005 3.5185-7.035 2.68033-9.379665-0.66933-1.005-3.34966-0.334665-6.03 0.334665-1.67533-0.334665 8.71034-14.74034 6.70034-16.75034s-30.15101 14.73933-40.53567 33.49966c-10.38467 18.76032-2.34366 33.83532-3.68433 40.19999-1.34067 6.36466-3.01601 12.73033-7.37067 12.73033-4.35467 0-14.40366-6.70033-17.75433-10.05-3.35067-3.34966-4.02-5.69533-8.71034-7.035-4.69033-1.33966-15.40966 2.68034-19.42966 3.015-4.02 0.33467-19.76534-3.015-20.77034-2.01s15.40967 7.035 19.095 9.045c3.68534 2.01 4.02101 4.69034 6.70034 6.36467s27.80433 9.045 19.76433 19.42966z" fill="#fcd116"/>
 <path transform="scale(.5)" d="m573.64 214.5885c8.04 8.04 62.31 44.22 62.31 88.44s-39.53067 42.88134-50.92033 41.54067c12.73033 10.71933 60.97033 8.70933 60.97033-41.54067 0-44.22-62.31-88.44-70.35-92.46s-10.05-4.02-2.01 4.02z" fill="#fcd116"/>
 <path transform="matrix(.5 0 0 .5 -.061 1.051)" d="m192.54 176.394 8.4 28.84h29.018l-22.91 17.626 8.401 28.038-22.909-17.625-22.909 16.823 8.4-27.236-22.909-17.626h28.254l9.164-28.84z" fill="#fff"/>
 <path transform="matrix(.5 0 0 .5 -44.061 57.303)" d="m192.54 176.394 8.4 28.84h29.018l-22.91 17.626 8.401 28.038-22.909-17.625-22.909 16.823 8.4-27.236-22.909-17.626h28.254l9.164-28.84z" fill="#fff"/>
 <path transform="matrix(.5 0 0 .5 43.73 53.303)" d="m192.54 176.394 8.4 28.84h29.018l-22.91 17.626 8.401 28.038-22.909-17.625-22.909 16.823 8.4-27.236-22.909-17.626h28.254l9.164-28.84z" fill="#fff"/>
 <path transform="matrix(.5 0 0 .5 -.061 133.303)" d="m192.54 176.394 8.4 28.84h29.018l-22.91 17.626 8.401 28.038-22.909-17.625-22.909 16.823 8.4-27.236-22.909-17.626h28.254l9.164-28.84z" fill="#fff"/>
 <path transform="matrix(.3 0 0 .3 67.7195 146.7755)" d="m192.54 176.394 8.4 28.84h29.018l-22.91 17.626 8.401 28.038-22.909-17.625-22.909 16.823 8.4-27.236-22.909-17.626h28.254l9.164-28.84z" fill="#fff"/>
 <g transform="matrix(.9465323 0 0 .9652694 -14.74129 -327.9496)">
  <g transform="matrix(.8823038 0 0 .8823038 257.0375 71.89719)" fill="#ffeeaa" fill-rule="evenodd" stroke="#000000">
   <path d="m649.2796 778.153c18.03964-5.21596 70.93672-9.45936 3.98331-16.92907-6.50966-2.74916-11.87211-0.90951-21.90302-17.74368-0.75517-4.76752-8.62108-10.64472-15.93843-12.13115-7.88177-7.60222-13.80299-17.99446-29.87483-13.94158-2.83915 0.805-5.45858-0.14776-7.96662-1.99166-7.3446-6.594-17.68743-7.32863-22.84363-2.6354-2.65554 4.31471-6.36731 3.82744-9.02285 2.6354-12.94943-4.03282-18.60371-1.74181-26.88735 2.98748-3.38216 4.62895-5.43531 2.6128-7.96662 2.98749-15.38595-1.77631-21.63106 5.58822-28.879 11.94993-10.62386 6.45702-21.35414 12.86566-21.90821 23.89986-13.94159 3.95027-27.88317 4.9111-41.82476 14.93742-24.15701 3.14219-32.76362 13.35274-42.82059 22.90403-5.7348 5.26135-10.84925 5.24973-15.93324 4.97914-7.56316-0.60888-14.96047-0.51292-19.91655 9.95828-2.65554 3.41326-5.31108 3.51329-7.96662 2.98748-7.28728-1.96331-12.62924-0.3602-15.93325 4.97914-2.1504 4.92142-4.07183 3.94347-9.46036 4.97913-8.42851-1.93984-11.45251 3.16543-13.44367 6.9708-8.26847 4.85391-21.28971 14.40967 0 13.94159 3.50497 5.73325 11.05929 4.38013 16.92907 5.97496 4.08009-1.95366 10.21303-1.34127 16.92907 0 5.25229 1.95366 11.01779 1.34127 16.92907 0 5.50277 1.3792 10.75056 2.24846 14.93741 0.99583 6.33743 0.47185 11.75922 3.38539 19.91655-0.99583 4.31525-2.81346 8.63051-0.37082 12.94576 1.99166 13.16081 4.10956 26.09592 8.7834 41.82476 6.47288 63.45808 33.3868 108.8023-0.21122 151.3658-37.34354 20.25691-16.91223 41.65753-31.53705 64.72879-42.82059z" stroke-width="2.12172"/>
   <path d="m460.0724 757.2406c50.4048 14.06514 97.22104 32.81101 168.2949 19.91655 29.22492-7.06288 97.69143-7.05251 21.90821-16.92907" stroke-width="1px"/>
   <path d="m292.7733 829.936c8.11209-0.65028 12.79405 6.62492 10.9541 14.93741h0.49792" stroke-linecap="round" stroke-width="1.81468"/>
   <path d="m313.6857 820.9736c11.86176 2.78137 13.04794 19.88914 11.45202 21.90821" stroke-linecap="round" stroke-width="1.81468"/>
   <path d="m335.1124 812.9662c10.04138 5.204 12.81551 18.82402 14.42311 28.9198v0" stroke-linecap="round" stroke-width="1.81468"/>
   <path d="m361.9834 800.0612c13.73285 8.14916 22.3225 18.92092 20.91238 35.8498v-0.49792" stroke-linecap="round" stroke-width="1.81468"/>
   <path d="m418.2476 772.178c25.6055 1.49646 35.20705 36.97581 38.33937 63.73297v0" stroke-linecap="round" stroke-width="1.81468"/>
  </g>
  <path d="m757.3261 760.4428c-17.41793-1.06252-35.17315-4.28983-57.88248-10.52113-6.44025-1.76717-35.71754-10.27239-35.8638-10.41865-0.28001-0.28001 0.75952-3.715 1.6315-5.39106 2.23399-4.294 6.34127-7.91342 15.12819-13.33128 1.2684-0.78207 3.45299-2.43837 4.85466-3.68066 8.09294-7.17278 11.82442-8.60074 21.60712-8.26858 5.5611 0.18882 6.00786 0.0815 7.74818-1.86054 1.1491-1.28231 6.16024-3.78544 9.04297-4.51707 3.93543-0.99881 8.99243-0.57509 14.92275 1.25038 2.81072 0.86519 3.0814 0.88584 4.82501 0.36805 1.03347-0.30691 1.65248-0.74616 3.10471-2.20311 2.24711-2.25442 3.70787-2.89264 7.02236-3.06816 4.20746-0.22281 7.98673 1.08791 12.1864 4.22646 1.55315 1.16072 2.74463 1.83745 3.83531 2.17837 1.97702 0.61797 2.37079 0.61595 5.41117-0.0277 3.16307-0.66966 7.6345-0.56245 9.87975 0.23689 3.69628 1.31592 5.95671 3.01622 11.32312 8.51725l3.54952 3.63856 2.42545 0.79553c5.35061 1.75497 9.92393 5.40778 11.29796 9.02394 1.08463 2.8545 5.85334 9.24004 8.60801 11.52652 2.19143 1.81897 4.24911 2.8575 8.14058 4.10861 2.74822 0.88356 4.08554 1.14141 9.2114 1.77609 11.85054 1.46731 21.05832 3.29548 21.05832 4.18104 0 0.28657-0.9691 0.66693-2.863 1.12368-2.76567 0.66699-6.34396 1.18289-18.34148 2.64438-11.48553 1.39911-19.61031 2.58685-24.66712 3.606-10.55632 2.12753-20.74093 3.44534-31.73109 4.10578-4.92066 0.2957-20.49343 0.28374-25.46547-0.0196z" color="#000000" fill="#d4aa00" opacity=".95" stroke="#000000" stroke-linecap="round" stroke-width="1.46885"/>
  <path d="m700.5201 708.3078c-4.77322-0.26233-11.94795 5.36624-14.61124 9.59483l2.64058 3.24386 4.9291-3.82644v1.40832l-3.87286 3.08193 4.22494 3.18335c1.73146 0.64365 2.32212-0.76056 3.1687-1.7054l-0.70416 2.60881-0.70415 0.49634 4.22494 2.65523 2.59268 2.31049-0.83229-7.24816-1.05624-0.13569c3.82013-3.89595 2.42171-3.82359 0.35208-3.24083 3.73113-6.20531-1.40766-1.3824-3.1687-0.75915l4.75306-4.67056-6.16138-0.67417 5.28118-0.72987z" fill="#000000" fill-rule="evenodd"/>
  <path d="m733.3502 703.1447c-5.332-3.21019-13.34666-0.70392-16.32173 2.83049l2.9497 5.54797 5.50614-1.67262v1.71433l-4.32625 1.40604 4.71954 6.43386c1.93416 1.83214 2.59397 0.48055 3.53965-0.15687l-0.78659 2.74921-0.78658 0.17773 4.71954 5.79098 2.89619 4.38276-0.92972-9.32717-1.17989-0.80487c4.26734-2.42887 2.70521-3.18773 0.3933-3.73179 4.16792-5.29393-1.57245-2.53532-3.53965-2.84321l5.30948-2.80677-6.88267-4.55224 5.89943 2.31003z" fill="#000000" fill-rule="evenodd" stroke-width="1.1661"/>
  <path d="m764.8384 703.5976c-3.90249-4.84831-12.29019-5.25168-16.29943-2.95623l0.86145 6.22404 5.74549 0.32332-0.58966 1.60973-4.5459-0.16781 2.21858 7.66463c1.18597 2.38562 2.27041 1.34345 3.37764 1.0702l-1.68422 2.31091-0.79972-0.10367 2.43971 7.06097 1.21199 5.11152 2.33518-9.07785-0.83106-1.1616c4.8424-0.81288 3.6366-2.06274 1.65289-3.36881 5.73451-3.53732-0.60446-2.92149-2.34573-3.88723l5.95094-0.80926-4.89693-6.64185 4.74491 4.19825z" fill="#000000" fill-rule="evenodd" stroke-width="1.1661"/>
  <path d="m792.9787 710.8089c-2.14822-4.63298-9.16918-7.26288-13.12221-6.69971l-0.7625 4.79286 4.79799 1.83585-0.88665 1.01342-3.81736-1.38817 0.0435 6.22447c0.43395 2.07528 1.60428 1.61476 2.60944 1.72308l-1.98376 1.22168-0.65375-0.29843 0.37595 5.84443-0.19808 4.07659 4.15995-5.99068-0.42649-1.08108c4.30429 0.75329 3.58097-0.49667 2.21101-2.00429 5.71509-0.99138 0.18811-2.3054-1.05778-3.49658l5.24411 1.06452-2.56171-6.22182 3.01909 4.39194z" fill="#000000" fill-rule="evenodd" stroke-width=".966927"/>
  <path d="m813.1517 726.6875c-1.49133-4.88419-8.0844-8.45375-12.07731-8.43902l-1.41376 4.64266 4.50027 2.47762-1.01747 0.882-3.59045-1.89947-0.81208 6.17142c0.14472 2.11522 1.36722 1.81986 2.34797 2.06525l-2.1328 0.93755-0.60655-0.38542-0.43057 5.84066-0.75628 4.01072 4.94356-5.36234-0.27392-1.12942c4.15998 1.3375 3.61525 2e-5 2.46541-1.68152 5.7971-0.19679 0.50306-2.2577-0.56736-3.60875l5.04813 1.7749-1.68262-6.51477 2.38706 4.76509z" fill="#000000" fill-rule="evenodd" stroke-width=".966927"/>
  <path d="m675.6381 741.4768c6.37535-0.28256 11.80729-3.15951 19.88626 1.24289 6.78094-2.02645 14.11243-1.30018 21.83159 1.36448 8.30492-1.069 16.23256-2.51527 29.99652 1.87478 5.08599-0.84394 9.58363-2.52838 17.8094 1.11309 6.46459-1.45205 13.02822-2.35934 20.4178 1.27611 6.36187-0.90522 12.85364-2.46 18.31355 1.1446 13.58081 2.43925 27.16163 2.37213 40.74244 2.5464l-22.53301 4.22494-44.36186 4.92909-48.76284-3.52078c-17.8438-5.85763-37.31346-6.70315-53.33985-16.1956z" fill="#000000" fill-rule="evenodd"/>
  <ellipse cx="555.157" cy="817.2088" rx="5.703668" ry="1.901222" color="#000000" fill="#000000" opacity=".95" stroke-linecap="round" stroke-width="1.872"/>
  <ellipse cx="580.1898" cy="819.11" rx="3.485575" ry="1.161858" color="#000000" fill="#000000" opacity=".95" stroke-linecap="round" stroke-width="1.144"/>
  <ellipse cx="570.0499" cy="820.0607" rx="3.485575" ry="1.161858" color="#000000" fill="#000000" opacity=".95" stroke-linecap="round" stroke-width="1.144"/>
  <ellipse transform="rotate(16.17588)" cx="830.464" cy="618.1375" rx="3.485575" ry="1.161858" color="#000000" fill="#000000" opacity=".95" stroke-linecap="round" stroke-width="1.144"/>
  <ellipse transform="rotate(16.17588)" cx="820.3242" cy="619.0881" rx="3.485575" ry="1.161858" color="#000000" fill="#000000" opacity=".95" stroke-linecap="round" stroke-width="1.144"/>
  <ellipse transform="rotate(16.17588)" cx="808.1828" cy="618.5349" rx="3.485575" ry="1.161858" color="#000000" fill="#000000" opacity=".95" stroke-linecap="round" stroke-width="1.144"/>
  <ellipse cx="532.6888" cy="817.7657" rx="3.485575" ry="1.161858" color="#000000" fill="#000000" opacity=".95" stroke-linecap="round" stroke-width="1.144"/>
  <ellipse transform="rotate(16.17588)" cx="822.9406" cy="614.7207" rx="3.485575" ry="1.161858" color="#000000" fill="#000000" opacity=".95" stroke-linecap="round" stroke-width="1.144"/>
  <ellipse transform="rotate(16.17588)" cx="812.8008" cy="615.6713" rx="3.485575" ry="1.161858" color="#000000" fill="#000000" opacity=".95" stroke-linecap="round" stroke-width="1.144"/>
  <ellipse transform="rotate(-28.39024)" cx="128.8447" cy="1000.221" rx="3.485575" ry="1.161858" color="#000000" fill="#000000" opacity=".95" stroke-linecap="round" stroke-width="1.144"/>
  <ellipse transform="rotate(16.17588)" cx="878.0736" cy="616.205" rx="3.485575" ry="1.161858" color="#000000" fill="#000000" opacity=".95" stroke-linecap="round" stroke-width="1.144"/>
  <ellipse transform="rotate(16.17588)" cx="867.9337" cy="617.1556" rx="3.485575" ry="1.161858" color="#000000" fill="#000000" opacity=".95" stroke-linecap="round" stroke-width="1.144"/>
  <ellipse transform="rotate(16.17588)" cx="855.7923" cy="616.6024" rx="3.485575" ry="1.161858" color="#000000" fill="#000000" opacity=".95" stroke-linecap="round" stroke-width="1.144"/>
  <ellipse transform="rotate(-4.022909)" cx="625.0561" cy="883.4175" rx="3.485575" ry="1.161858" color="#000000" fill="#000000" opacity=".95" stroke-linecap="round" stroke-width="1.144"/>
  <ellipse transform="rotate(16.17588)" cx="860.4103" cy="613.7388" rx="3.485575" ry="1.161858" color="#000000" fill="#000000" opacity=".95" stroke-linecap="round" stroke-width="1.144"/>
  <ellipse transform="rotate(-20.65482)" cx="383.9182" cy="1028.787" rx="3.485575" ry="1.161858" color="#000000" fill="#000000" opacity=".95" stroke-linecap="round" stroke-width="1.144"/>
  <ellipse transform="rotate(-40.85361)" cx="18.83533" cy="1100.005" rx="3.485575" ry="1.161858" color="#000000" fill="#000000" opacity=".95" stroke-linecap="round" stroke-width="1.144"/>
  <ellipse transform="rotate(-18.43495)" cx="403.318" cy="1010.55" rx="5.703668" ry="1.901222" color="#000000" fill="#000000" opacity=".95" stroke-linecap="round" stroke-width="1.872"/>
  <ellipse transform="rotate(-20.65482)" cx="438.093" cy="1012.637" rx="3.485575" ry="1.161858" color="#000000" fill="#000000" opacity=".95" stroke-linecap="round" stroke-width="1.144"/>
  <ellipse transform="rotate(-40.85361)" cx="75.25484" cy="1103.553" rx="3.485575" ry="1.161858" color="#000000" fill="#000000" opacity=".95" stroke-linecap="round" stroke-width="1.144"/>
  <ellipse transform="rotate(-40.85361)" cx="51.88386" cy="1103.45" rx="3.485575" ry="1.161858" color="#000000" fill="#000000" opacity=".95" stroke-linecap="round" stroke-width="1.144"/>
  <ellipse transform="rotate(-30.74855)" cx="228.8005" cy="1063.61" rx="3.485575" ry="1.161858" color="#000000" fill="#000000" opacity=".95" stroke-linecap="round" stroke-width="1.144"/>
  <ellipse transform="matrix(.9354199 .3535388 -.2173064 .9761034 0 0)" cx="805.8323" cy="545.5482" rx="3.578697" ry="1.489503" color="#000000" fill="#000000" opacity=".95" stroke-linecap="round" stroke-width="1.31249"/>
  <ellipse transform="rotate(-32.73523)" cx="79.72143" cy="972.9096" rx="3.485575" ry="1.161858" color="#000000" fill="#000000" opacity=".95" stroke-linecap="round" stroke-width="1.144"/>
  <ellipse transform="matrix(.9127031 -.4086233 .5339307 .8455282 0 0)" cx="273.4327" cy="1038.358" rx="3.578697" ry="1.489503" color="#000000" fill="#000000" opacity=".95" stroke-linecap="round" stroke-width="1.31249"/>
  <ellipse transform="rotate(-20.79273)" cx="301.8544" cy="928.3055" rx="3.485575" ry="1.161858" color="#000000" fill="#000000" opacity=".95" stroke-linecap="round" stroke-width="1.144"/>
  <ellipse transform="rotate(-20.79273)" cx="312.6012" cy="930.3527" rx="3.485575" ry="1.161858" color="#000000" fill="#000000" opacity=".95" stroke-linecap="round" stroke-width="1.144"/>
  <ellipse transform="rotate(-20.79273)" cx="350.2074" cy="930.3967" rx="3.485575" ry="1.161858" color="#000000" fill="#000000" opacity=".95" stroke-linecap="round" stroke-width="1.144"/>
 </g>
</svg>
