<!-- Created with Inkscape (http://www.inkscape.org/) -->
<svg xmlns:rdf="http://www.w3.org/1999/02/22-rdf-syntax-ns#" xmlns="http://www.w3.org/2000/svg" height="540" width="720" version="1.1" xmlns:cc="http://creativecommons.org/ns#" xmlns:dc="http://purl.org/dc/elements/1.1/">
 <metadata>
  <rdf:RDF>
   <cc:Work rdf:about="">
    <dc:format>image/svg+xml</dc:format>
    <dc:type rdf:resource="http://purl.org/dc/dcmitype/StillImage"/>
    <dc:title/>
   </cc:Work>
  </rdf:RDF>
 </metadata>
 <g transform="translate(0,-512.36218)">
  <g transform="translate(0,156.44812)">
   <rect height="10" width="720" y="595.91" x="0" fill="#FFF"/>
   <rect height="10" width="720" y="675.91" x="0" fill="#FFF"/>
   <rect height="240" width="720" y="355.91" x="0" fill="#fecb00"/>
   <rect height="70" width="720" y="605.91" x="0" fill="#00794d"/>
   <rect height="210" width="720" y="685.91" x="0" fill="#000"/>
   <path d="m521.49,610.43a114.33,122.35,0,1,1,-228.66,0,114.33,122.35,0,1,1,228.66,0z" transform="matrix(1.0887475,0,0,1.0173542,-79.449039,-24.777482)" fill="#26c4e0"/>
   <path d="m237.35,734.12-18.104-3.9589-11.766,14.317-1.8292-18.441-17.252-6.7664,16.973-7.4383,1.104-18.499,12.319,13.844,17.934-4.6664-9.3595,15.994z" transform="matrix(0.85471545,0.28188915,-0.28188915,0.85471545,312.33712,93.846365)" fill="#FFF"/>
   <path d="m237.35,734.12-18.104-3.9589-11.766,14.317-1.8292-18.441-17.252-6.7664,16.973-7.4383,1.104-18.499,12.319,13.844,17.934-4.6664-9.3595,15.994z" transform="matrix(0.85471545,0.28188915,-0.28188915,0.85471545,254.05357,51.955768)" fill="#FFF"/>
   <path d="m237.35,734.12-18.104-3.9589-11.766,14.317-1.8292-18.441-17.252-6.7664,16.973-7.4383,1.104-18.499,12.319,13.844,17.934-4.6664-9.3595,15.994z" transform="matrix(0.85471545,0.28188915,-0.28188915,0.85471545,453.29097,93.407844)" fill="#FFF"/>
   <path d="m237.35,734.12-18.104-3.9589-11.766,14.317-1.8292-18.441-17.252-6.7664,16.973-7.4383,1.104-18.499,12.319,13.844,17.934-4.6664-9.3595,15.994z" transform="matrix(0.85471545,0.28188915,-0.28188915,0.85471545,512.12618,53.961514)" fill="#FFF"/>
   <path d="m237.35,734.12-18.104-3.9589-11.766,14.317-1.8292-18.441-17.252-6.7664,16.973-7.4383,1.104-18.499,12.319,13.844,17.934-4.6664-9.3595,15.994z" transform="matrix(0.42735773,0.14094457,-0.14094457,0.42735772,374.25964,454.84791)" fill="#FFF"/>
   <path d="m101.62,685.48,2.5529,27.929-12.164-7.8391,15.431,24.876-10.738-3.3377,9.8523,11.825,12.783,83.438,4.7887-83.242,9.6392-13.375-9.0343,2.8602,12.645-24.092-11.818,9.7069,1.6348-28.417z" fill="#5c5a5b"/>
   <path stroke-linejoin="miter" d="m92.264,603.41c1.6628-21.332-10.704-44.865,10.697-50.478,17.063-3.2224,26.267,12.879,39.112,21.06-5.8834,7.5238-4.5187,19.798-6.3515,29.752-17.272-8.3868-29.658-3.2341-43.458-0.33429z" stroke="#000" stroke-linecap="butt" stroke-width="1px" fill="#c7c7c7"/>
   <path stroke-linejoin="miter" d="m77.221,618.45c15.618-26.063,45.629-18.611,58.501-15.043,9.4484,3.3545,18.716,12.482,32.092,13.706l0.3343,23.4c-9.4716-0.0811-23.958-2.7738-28.415,2.6743-8.282,10.554-9.6814,31.035-11.032,42.455l-28.248,0.16714c-3.196-20.88-27.093-60.67-23.219-67.36z" stroke="#000" stroke-linecap="butt" stroke-width="1px" fill="#7f7f7f"/>
   <path stroke-linejoin="miter" d="m167.81,618.79,73.21,0.3343,5.683,19.89-78.558,0z" stroke="#000" stroke-linecap="butt" stroke-width="1px" fill="#BBB"/>
   <path stroke-linejoin="miter" d="M80.898,633.83,90.426,605.42" stroke="#000" stroke-linecap="butt" stroke-width="1px" fill="none"/>
   <path stroke-linejoin="miter" d="m99.953,676.28,14.709,7.0201,14.709-12.703-31.423-15.377-5.8501,4.1786" stroke="#000" stroke-linecap="butt" stroke-width="1px" fill="none"/>
   <path stroke-linejoin="miter" d="m95.607,664.92,25.239,12.536" stroke="#000" stroke-linecap="butt" stroke-width="1px" fill="none"/>
   <path stroke-linejoin="miter" d="m131.88,661.58-34.265-12.369,0-6.6858,34.098,7.0201,6.0172-10.363,2.34,2.6743,11.366-12.034,12.202,10.363" stroke="#000" stroke-linecap="butt" stroke-width="1px" fill="none"/>
   <path stroke-linejoin="miter" d="m89.089,652.72,0.66858-12.703-6.3515-0.16715,8.8587,0.3343,2.34-7.6887,25.74,7.0201-1.3372,7.0201" stroke="#000" stroke-linecap="butt" stroke-width="1px" fill="none"/>
   <path stroke-linejoin="miter" d="m95.273,626.81,26.743,6.6858-1.6714,6.3515" stroke="#000" stroke-linecap="butt" stroke-width="1px" fill="none"/>
   <path stroke-linejoin="miter" d="m124.52,647.87,8.1901-18.386,5.3487,1.3372-0.50144,8.023" stroke="#000" stroke-linecap="butt" stroke-width="1px" fill="none"/>
   <path stroke-linejoin="miter" d="m139.07,629.48,7.3544-6.6858,5.0144,6.6858" stroke="#000" stroke-linecap="butt" stroke-width="1px" fill="none"/>
   <path stroke-linejoin="miter" d="m165.14,628.15-13.706-10.029-5.8501,5.3487" stroke="#000" stroke-linecap="butt" stroke-width="1px" fill="none"/>
   <path stroke-linejoin="miter" d="m95.607,626.81-0.66858-15.712,18.052,3.6772,4.3458-6.6858-19.389-5.683" stroke="#000" stroke-linecap="butt" stroke-width="1px" fill="none"/>
   <path stroke-linejoin="miter" d="m95.44,621.46,18.386,3.3429-0.66858-10.196" stroke="#000" stroke-linecap="butt" stroke-width="1px" fill="none"/>
   <path stroke-linejoin="miter" d="m126.36,632.16-1.0029-5.3486-5.6829,0.33429,2.6743-16.38,6.3515,0.33429,5.0144-5.0144-13.037-5.683" stroke="#000" stroke-linecap="butt" stroke-width="1px" fill="none"/>
   <path stroke-linejoin="miter" d="m128.03,624.8,6.3515-12.034,4.0115,10.029,0,0" stroke="#000" stroke-linecap="butt" stroke-width="1px" fill="none"/>
   <path stroke-linejoin="miter" d="m143.75,616.78,7.0201-5.6829" stroke="#000" stroke-linecap="butt" stroke-width="1px" fill="none"/>
   <path stroke-linejoin="miter" d="m139.4,610.1,6.6858-1.6714" stroke="#000" stroke-linecap="butt" stroke-width="1px" fill="none"/>
   <path stroke-linejoin="miter" d="m106.97,714.06,16.547,0" stroke="#000" stroke-linecap="round" stroke-width="1px" fill="none"/>
   <path stroke-linejoin="round" d="m106.3,721.25,8.86,6.3497,7.8545-6.1825" stroke="#000" stroke-linecap="round" stroke-width="1px" fill="none"/>
   <path fill="#000" d="m299.19,564.8,36.772,58.501c4.1756-3.5511,11.899-5.5818,19.055-7.8558-1.5464-6.7681,2.5491-15.796-5.5158-20.225-17.019-14.106-33.273-20.411-50.311-30.42z"/>
   <path fill="#000" d="m340.68,576.4c-0.66561,4.5703-4.7519,4.0096-7.7292,5.1123l-52.317-33.763c15.778,24.495,29.679,50.492,47.469,73.377l-10.697,1.3372c-26.692-23.705-31.024-54.437-43.625-82.57,20.572,8.3632,44.746,24.192,66.899,36.507z"/>
   <path stroke-linejoin="miter" d="m328.27,621.29c-17.173-22.527-32.443-48.775-47.469-73.878,19.779,13.427,41.95,25.327,59.838,41.118-9.9572-2.8389-26.87-14.951-41.786-24.403,12.622,19.603,25.962,38.667,36.939,59.504,5.4885-3.4987,13.832-5.8555,21.395-8.5244v4.0115c-8.8302,3.3074-25.862,8.2006-25.573,12.369l-0.16714,14.709c-7.9167,0.77888-12.665-7.4953-17.55-15.377-0.37947-2.34,1.7335-5.3486,4.8472-8.023z" stroke="#000" stroke-linecap="butt" stroke-width="1px" fill="#FFF"/>
   <path stroke-linejoin="miter" d="m315.74,625.31,10.196,6.5187" stroke="#000" stroke-linecap="butt" stroke-width="1px" fill="none"/>
   <path stroke-linejoin="miter" d="m313.9,628.82c-4.0066-2.9405-5.8541-7.2799-13.706-8.1901-0.94018-3.0868,2.353-8.4095,7.3544-8.023l10.697,10.864c-2.0689,1.5761-3.6126,3.3273-4.3458,5.3486z" stroke="#000" stroke-linecap="butt" stroke-width="1px" fill="#74693a"/>
   <path stroke-linejoin="miter" d="m274.2,542.26c-10.441-5.3812-9.708-14.44-6.6186-17.492,3.9292-2.1958,17.769,8.8628,10.637,15.837-1.9016-0.76006-3.9474-1.8567-4.0184,1.6547z" stroke="#fecb00" stroke-linecap="butt" stroke-width="1px" fill="#c8132a"/>
   <path d="m341.1,590,9.9279,5.9095c3.4283-6.2326,8.4699-10.786,14.183-9.9279,6.0279,0.51869,7.7449,6.2471,11.11,9.4552l10.637-4.4912c0.43241-4.2202,1.5531-8.7266-2.3638-9.2188,17.498-1.1616-1.1503-6.9996-4.4912-8.0369-0.58462-6.4516-1.0913-6.5713-4.964-9.2188,0.0916-10.588-4.138-10.33-7.8005-8.2733-1.0866-14.061-7.4134-16.441-7.3278,0.47275-3.8261-4.0979-8.5898-1.7257-7.5641,7.5641-3.4792,1.3627-5.644,3.852-4.7276,8.9824-6.231,1.483-9.6113,3.8068-7.6823,7.8005-3.1906,1.5817-0.1318,5.521,1.0637,8.9824z" fill="#cd0d2d"/>
   <path d="m333.41,581.38c3.5379-1.6706,6.4081-0.15641,9.337,0.59095-2.7815,1.891-2.1435,4.4912-1.891,6.3822-2.751-0.63607-5.8319-2.5909-7.446-6.9732z" fill="#fecb00"/>
   <path d="m339.03,569.28c2.9045,0.43339,5.4673,2.5755,8.0684,4.526-3.3566,0.21538-4.2407,2.7592-4.9841,4.5163-1.4598-2.7862-3.1669-5.4419-3.0844-9.0423z" fill="#fecb00"/>
   <path d="m345.51,558.42c3.167,0.98073,4.4992,4.255,6.532,6.6535-3.3566,0.21538-3.768,2.8774-4.5113,4.6344-1.2823-3.2756-2.298-6.7646-2.0206-11.288z" fill="#fecb00"/>
   <path d="m353.06,546.67c2.1448,1.8992,3.9154,4.9211,5.4304,8.7098-3.2567-0.84071-4.7286,1.7143-5.9822,3.1524-0.21645-3.9541-0.73477-7.9081,0.55188-11.862z" fill="#fecb00"/>
   <path d="m363.58,534.68c4.8188,3.6502,2.1357,10.137,2.4944,13.551-1.6114-2.3464-3.7181-2.5847-5.4961-0.1075,0.40961-3.8508-0.60292-9.8678,3.0017-13.443z" fill="#fecb00"/>
   <path d="m388.08,569.2c-2.9045,0.43339-5.4673,2.5755-8.0684,4.526,3.3566,0.21538,4.2407,2.7592,4.9841,4.5163,1.4598-2.7862,3.1669-5.4419,3.0844-9.0423z" fill="#fecb00"/>
   <path d="m381.6,558.34c-3.167,0.98073-4.4992,4.255-6.532,6.6535,3.3566,0.21538,3.768,2.8774,4.5113,4.6344,1.2823-3.2756,2.298-6.7646,2.0206-11.288z" fill="#fecb00"/>
   <path d="m374.06,546.59c-2.1448,1.8992-3.9154,4.9211-5.4304,8.7098,3.2567-0.84071,4.7286,1.7143,5.9822,3.1524,0.21645-3.9541,0.73477-7.9081-0.55188-11.862z" fill="#fecb00"/>
   <g transform="matrix(-1,0,0,1,727.64106,-0.088262)">
    <path fill="#000" d="m299.19,564.8,36.772,58.501c4.1756-3.5511,11.899-5.5818,19.055-7.8558l-4.0975-19.87c-15.287-12.829-34.689-20.77-51.729-30.775z"/>
    <path fill="#000" d="m340.68,576.4c-0.66561,4.5703-4.7519,4.0096-7.7292,5.1123l-52.317-33.763c15.778,24.495,29.679,50.492,47.469,73.377l-10.697,1.3372c-26.692-23.705-31.024-54.437-43.625-82.57,20.572,8.3632,44.746,24.192,66.899,36.507z"/>
    <path stroke-linejoin="miter" d="m328.27,621.29c-17.173-22.527-32.443-48.775-47.469-73.878,19.779,13.427,41.95,25.327,59.838,41.118-9.9572-2.8389-26.87-14.951-41.786-24.403,12.622,19.603,25.962,38.667,36.939,59.504,5.4885-3.4987,13.832-5.8555,21.395-8.5244v4.0115c-8.8302,3.3074-25.862,8.2006-25.573,12.369l-0.16714,14.709c-7.9167,0.77888-12.665-7.4953-17.55-15.377-0.37947-2.34,1.7335-5.3486,4.8472-8.023z" stroke="#000" stroke-linecap="butt" stroke-width="1px" fill="#FFF"/>
    <path stroke-linejoin="miter" d="m315.74,625.31,10.196,6.5187" stroke="#000" stroke-linecap="butt" stroke-width="1px" fill="none"/>
    <path stroke-linejoin="miter" d="m313.9,628.82c-4.0066-2.9405-5.8541-7.2799-13.706-8.1901-0.94018-3.0868,2.353-8.4095,7.3544-8.023l10.697,10.864c-2.0689,1.5761-3.6126,3.3273-4.3458,5.3486z" stroke="#000" stroke-linecap="butt" stroke-width="1px" fill="#74693a"/>
    <path stroke-linejoin="miter" d="m274.2,542.26c-10.441-5.3812-9.708-14.44-6.6186-17.492,3.9292-2.1958,17.769,8.8628,10.637,15.837-1.9016-0.76006-3.9474-1.8567-4.0184,1.6547z" stroke="#fecb00" stroke-linecap="butt" stroke-width="1px" fill="#c8132a"/>
   </g>
   <rect height="5.4367" width="12.764" y="614" x="357.41" fill="#000"/>
   <path d="m316.98,604.66,37.348-0.29318c7.1402,7.2818,12.956,0.29687,20.801,0.58636l36.403-0.29318c-4.7276,3.574-9.4552,7.6635-14.183,9.4552-4.7234,0.32902-14.17,0.78414-14.17,0.78414,0.4573,1.3719-5.6484,2.2054-9.9378,0.30316-3.4003-1.5079-12.986-1.4895-16.552,0.039-3.7168,1.5932-8.6398,3.5007-11.338-0.31896-0.99668-1.411-9.4589-0.46121-14.188-0.80732-6.5081-3.1517-12.087-6.3034-14.183-9.4552z" fill="#0554ba"/>
   <path d="m394.93,580.74c-3.5379-1.6706-6.4081-0.15641-9.337,0.59095,2.7815,1.891,2.1435,4.4912,1.891,6.3822,0.1508,0.30945,5.8319-2.5909,7.446-6.9732z" fill="#fecb00"/>
   <path stroke-linejoin="miter" d="m343.7,684.32c-10.071-7.4925-8.4774-20.817-10.401-32.384l-2.2456-21.983c6.0235-3.6924,17.589-10.848,32.739-11.11,12.612-0.0106,27.51,5.4843,32.502,11.819-0.86447,48.658-6.3774,42.728-10.046,53.658l-12.055,7.8005-20.801-0.47275z" stroke="#000" stroke-linecap="butt" stroke-width="1px" fill="#fecb00"/>
   <path d="m364.26,645.08c-2.187,0.11398-2.8499,4.8948-2.4634,9.6864,0.43981,5.4518,0.006,9.5196,1.9906,8.8694,3.4353,0.75504,3.0213-3.6012,2.9132-8.8658-0.10068-4.8991-0.28988-9.7659-2.4404-9.69z" fill="#e67956"/>
   <path stroke-linejoin="round" d="m338.26,637.28,3.5457,0" stroke="#000" stroke-linecap="round" stroke-miterlimit="4" stroke-dasharray="none" stroke-width="2" fill="none"/>
   <path fill="#75462c" d="m346.41,644.49c-0.72453,2.8265,0.64898,4.3417,4.964,4.0184,1.1013-6.0433-3.5529-6.3272-4.964-4.0184z"/>
   <path stroke-linejoin="round" d="m339.44,642.72c6.1459,0.0769,12.292-1.6864,18.438,3.0729" stroke="#000" stroke-linecap="round" stroke-miterlimit="4" stroke-dasharray="none" stroke-width="2" fill="none"/>
   <path stroke-linejoin="round" d="m341.8,648.86c2.7541,0.15758,6.0816,0.31517,9.4552,0.47275" stroke="#000" stroke-linecap="round" stroke-miterlimit="4" stroke-dasharray="none" stroke-width="2" fill="none"/>
   <path stroke-linejoin="round" d="m355.99,657.61,0.11819,5.6731-57.558,0.11819,72.687,0,0.11819-5.7913-0.11819,5.9095,57.677-0.11819" stroke="#786107" stroke-linecap="round" stroke-miterlimit="4" stroke-dasharray="none" stroke-width="2" fill="none"/>
   <path d="m381.99,664.4-5.0822,8.0369-2.2456-0.70913,3.4275-7.446z" fill="#786107"/>
   <path d="m346.18,664.11,5.0822,8.0369,2.2456-0.70913-3.4275-7.446z" fill="#786107"/>
   <path d="m346.41,686.21c1.2607-4.4124,2.0622-13.044,3.9003-13.71,1.9803-1.7968,9.3005-2.5514,13.355-2.7184,5.812,0.0433,11.036,0.78143,13.592,2.9547,3.3577,2.7568,3.5722,9.7482,5.2004,13.946l-5.5549,3.7821c1.2056-8.5359-0.99489-18.503-9.9675-17.663-1.3549-0.34196-2.7187-0.66896-3.1516-2.5476-1.2863,0.85307-1.9738,2.6486-4.7066,2.7091-5.5984,0.1239-9.153,8.3773-8.5306,16.319z" fill="#563e04"/>
   <g transform="translate(0.15030427,-0.30115311)">
    <path fill="#fecb00" d="m350.34,598.23c-0.41967-4.1688,7.8643-11.963,13.037-12.369,4.8472-0.0991,8.1901,2.7143,12.87,10.029l-0.66859,10.363c-5.417-1.2846-7.9385-0.0798-10.864,1.6715-5.6168,0.45078-11.943-1.1542-14.375-9.6944z"/>
    <path fill="#000" d="m358.53,592.88,7.8558,0.00001,0.3343,5.8501,3.51,0,0,4.1786-8.5244,0,0-7.1873-3.3429-0.16715z"/>
   </g>
   <g transform="matrix(-1,0,0,1,727.93033,-0.94551816)">
    <path stroke-linejoin="round" d="m338.26,637.28,3.5457,0" stroke="#000" stroke-linecap="round" stroke-miterlimit="4" stroke-dasharray="none" stroke-width="2" fill="none"/>
    <path fill="#75462c" d="m346.41,644.49c-0.72453,2.8265,0.64898,4.3417,4.964,4.0184,1.1013-6.0433-3.5529-6.3272-4.964-4.0184z"/>
    <path stroke-linejoin="round" d="m339.44,642.72c6.1459,0.0769,12.292-1.6864,18.438,3.0729" stroke="#000" stroke-linecap="round" stroke-miterlimit="4" stroke-dasharray="none" stroke-width="2" fill="none"/>
    <path stroke-linejoin="round" d="m341.8,648.86c2.7541,0.15758,6.0816,0.31517,9.4552,0.47275" stroke="#000" stroke-linecap="round" stroke-miterlimit="4" stroke-dasharray="none" stroke-width="2" fill="none"/>
   </g>
   <path d="m361.9,680.54c-1.7233,5.5459-3.9892,9.9368-6.9732,11.701l18.319,0.47275c-5.1269-3.3444-5.3691-7.8161-6.6186-12.055z" fill="#6c1016"/>
   <path d="m337.67,676.52c0.82007,5.6315-0.93534,11.992,2.7184,16.665,6.5493,9.9524,14.137,10.213,21.038,10.401,7.3002,0.0378,20.103-2.452,24.465-8.8642,3.8313-4.7276,3.9615-13.001,4.1366-18.438-4.8458,6.3513-11.464,12.413-17.256,15.365-6.1939,1.4529-11.798,0.54571-17.374-0.47276-7.9357-2.7386-12.225-8.7231-17.728-14.656z" fill="#2c1607"/>
   <path d="m296.59,701.08,30.326-4.5891c3.2052,15.007,27.674,17.624,36.639,17.965,11.759-0.10281,31.877-1.414,37.703-18.556l27.872,7.0998c-20.389,12.89-42.791,18.393-67.584,17.72-29.698-0.69334-47.832-9.4462-64.955-19.64z" fill="#cd0d2d"/>
   <path stroke-linejoin="round" d="m337.91,689.29s-10.513,3.8826-12.295,8.4982c19.848,25.816,67.029,18.48,76.351-0.70914-4.6882-4.6872-7.6035-6.539-12.883-8.5688-12.44,22.974-47.762,11.299-51.173,0.77969z" stroke="#2c1607" stroke-linecap="round" stroke-miterlimit="4" stroke-dasharray="none" stroke-width="2" fill="#FFF"/>
   <path d="m337.96,688.84c-0.82947,3.3462-1.9128,6.3962-4.6094,7.5641,13.822,14.195,50.803,14.028,59.922-0.11819-1.4468-1.0363-3.6677-4.6485-4.6094-8.8642-13.482,20.379-38.536,19.079-50.703,1.4183z" fill="#cd0d2d"/>
   <g stroke-linejoin="miter" stroke="#000" stroke-linecap="butt" stroke-width="1px" transform="matrix(-1,0,0,-1,732.78741,1279.134)">
    <path d="m92.264,603.41c-0.70104-23.223-3.6126-49.593,17.789-55.206,17.063-3.2224,27.685,2.9507,37.694,17.751-5.8834,7.5238-10.192,27.835-12.025,37.789-17.272-8.3868-29.658-3.2341-43.458-0.33429z" fill="#c7c7c7"/>
    <path d="m78.639,617.27c15.618-26.063,44.447-18.847,57.083-13.861,9.4484,3.3545,18.716,12.482,32.092,13.706l0.3343,23.4c-11.126,3.701-29.631,7.1541-32.433,10.948-7.5729,6.7714-5.4265,15.198-11.032,21.89l-25.407-0.31c-12.582-14.41-25.379-48.63-20.634-55.78z" fill="#7f7f7f"/>
    <path d="m167.81,618.79,94.035,0.3343c-3.0266,5.4748-6.1692,11.53-9.8202,20.127l-83.88-0.23638z" fill="#BBB"/>
    <path d="M80.189,635.25,90.898,604.47" fill="none"/>
    <path d="m126.77,669.66-28.823-14.432-5.8501,4.1786" fill="none"/>
    <path d="m95.607,664.92,17.202,8.0447" fill="none"/>
    <path d="m128.8,660.87-31.192-11.66,0-6.6858,34.098,7.0201,6.0172-10.363,2.34,2.6743,11.366-12.034,12.202,10.363" fill="none"/>
    <path d="m89.089,652.72,0.66858-12.703-6.3515-0.16715,8.8587,0.3343,2.34-7.6887,25.74,7.0201-1.3372,7.0201" fill="none"/>
    <path d="m95.273,626.81,26.743,6.6858-1.6714,6.3515" fill="none"/>
    <path d="m124.52,647.87,8.1901-18.386,5.3487,1.3372-0.50144,8.023" fill="none"/>
    <path d="m139.07,629.48,7.3544-6.6858,5.0144,6.6858" fill="none"/>
    <path d="m165.14,628.15-13.706-10.029-5.8501,5.3487" fill="none"/>
    <path d="m95.607,626.81-0.66858-15.712,18.052,3.6772,4.3458-6.6858-19.389-5.683" fill="none"/>
    <path d="m95.44,621.46,18.386,3.3429-0.66858-10.196" fill="none"/>
    <path d="m126.36,632.16-1.0029-5.3486-5.6829,0.33429,2.6743-16.38,6.3515,0.33429,5.0144-5.0144-13.037-5.683" fill="none"/>
    <path d="m128.03,624.8,6.3515-12.034,4.0115,10.029,0,0" fill="none"/>
    <path d="m143.75,616.78,7.0201-5.6829" fill="none"/>
    <path d="m139.4,610.1,6.6858-1.6714" fill="none"/>
   </g>
   <path stroke-linejoin="miter" d="m609.86,605.37,0.94552-5.6731,3.5457-0.47276c0.92665-4.0184,1.0016-9.2188,6.855-9.6916,6.5291-0.53769,7.4961,5.5903,8.746,10.164h3.3093l0.47276,5.6731z" stroke="#000" stroke-linecap="butt" stroke-width="1px" fill="#6a6a6a"/>
   <path fill="#cd0d2d" d="m544.43,477.39c-3.2271,4.151-10.864-4.1756-20.012-4.3658-9.1484-0.19018-15.629,8.7309-18.297,11.768-2.6679,3.0373-11.245,18.98-11.054,20.689,0.19041,1.7082,5.3369-4.745,7.2426-5.8838,0.1904,2.2776-2.0967,4.9352-1.5249,5.6942,0.57177,0.75903,6.6702-4.5554,8.767-4.745,0.57178,1.5186-1.1435,3.0368-0.57177,5.3144,0.76274,0.75905,4.1933-3.7963,6.4805-4.745,0.3808,1.7082-2.0967,4.9352-0.76274,7.0226,0.95314,0.18962,6.6702-6.4532,8.5765-7.2128s-0.95314,6.2636,0,6.833c1.7153-1.1388,7.0522-7.2128,8.7675-7.9718,1.7153-0.75904-0.1904,7.7822,0.57177,7.7822,2.0961-1.5186,7.433-8.7309,8.0047-9.8698,0.57177-1.1388-0.57177,11.009,5.3363,17.462,5.9081,6.4538,14.866,13.856,15.819,13.856,1.1435-2.088-0.3808-6.4532,0.57177-6.2636,2.6679,2.847,7.6234,7.0226,8.767,7.0226,1.1435,0-0.76274-4.5554,0.76216-4.5554,3.0498,2.847,11.817,14.046,28.97,19.171-1.1435-3.2268-3.6216-6.074-3.8119-7.592,1.1435,0.18962,5.1465,2.088,5.9087,1.8978,0.76217-0.19018-8.3861-11.388-7.8144-12.907,2.0967-0.1896,3.0498,1.1388,3.8119,0.18962-0.95314-1.518-8.9579-10.439-8.9579-12.527s2.478,0.37981,3.2402,0c0.76216-0.3798-3.0493-8.3516-2.287-9.3003,0.76217-0.94865,9.1477,5.1248,11.245,5.1248,2.0967,0,0.57177-7.4024,1.5249-7.7822,0.95314-0.3798,8.0054,3.986,9.5296,3.986,1.5244,0,1.3339-3.2269,1.9057-2.847,0.57176,0.37981,17.153,16.893,11.435,36.253-5.7177,13.856-17.153,21.259-33.925,15.184,0.95257,1.5186,9.9105,8.921,19.631,6.2636,9.7201-2.6574,21.537-10.25,20.202-29.23-1.3339-18.98-7.624-21.638-8.5765-24.485-0.95257-2.847,1.5255,0.75905,3.6216,1.5186,2.0961,0.7596-0.38137-3.9865-0.95314-6.0745-0.57176-2.088,6.2895,4.3657,8.0047,4.9352,1.7153,0.56942-4.0024-15.563-5.7177-16.703-1.7153-1.1388,1.7153,0.37923,2.8588,0.75903,1.1435,0.37981-10.483-17.652-12.96-17.652-2.4775,0,2.0961-0.94922,3.4306-0.94922s-13.34-11.768-15.818-11.768,5.3358-3.0373,6.0985-3.2269c1.3345,0.18962-16.962-9.6802-33.353,0.18962-0.95313-0.75848,7.7195-6.7374,8.0047-9.2997,0.0955-0.66451-2.8583-2.088-3.0493-2.847-0.19099-0.75903,4.5742-3.0367,4.7646-4.745-1.1435-1.5186-3.2402-0.94922-4.3838-1.3284-0.28531-1.4235,4.0029-4.9352,3.6216-6.4532-0.28589-0.85414-3.4312-1.1388-4.1933-0.56942-0.76217,0.56942,2.0018-3.986,1.5249-5.3144-0.38079-0.56942-1.9056-0.18962-3.4307,0.18962-0.95314-0.18962,4.9556-8.3516,3.8119-9.4905-1.1435-1.1388-17.154,8.3511-23.062,18.98-5.9081,10.63-1.3334,19.171-2.0961,22.776-0.76274,3.6062-1.7159,7.2128-4.1933,7.2128-2.4775,0-8.1946-3.7963-10.101-5.6942-1.9063-1.8978-2.287-3.2269-4.9556-3.986-2.6684-0.75903-8.767,1.5186-11.054,1.7082-2.287,0.18963-11.245-1.7082-11.817-1.1388-0.57177,0.56943,8.767,3.986,10.864,5.1248,2.0967,1.1388,2.2877,2.6574,3.8119,3.6062,1.5244,0.94865,15.818,5.1248,11.245,11.009zm55.843,26.763c4.5742,4.5554,35.45,25.055,35.45,50.109,0,25.055-22.49,24.296-28.97,23.537,7.2426,6.0734,34.687,4.9346,34.687-23.537,0-25.055-35.45-50.109-40.024-52.386-4.5742-2.2776-5.7177-2.2776-1.1435,2.2776z"/>
  </g>
 </g>
</svg>
