<svg xmlns="http://www.w3.org/2000/svg" width="2304" height="1728" version="1.0">
  <path transform="scale(3 -3)" style="fill:#000;fill-opacity:1;stroke:none;stroke-opacity:1" d="M0-576h768V0H0z"/>
  <path transform="matrix(2.70055 0 0 2.90716 170.046195 -112.342908)" d="M560.71428 336.35715a193.21428 184.64285 0 1 1-386.42856 0 193.21428 184.64285 0 1 1 386.42856 0z" style="opacity:1;color:#000;fill:#0039a5;fill-opacity:1;fill-rule:nonzero;stroke:none;stroke-width:3;stroke-linecap:butt;stroke-linejoin:round;marker:none;marker-start:none;marker-mid:none;marker-end:none;stroke-miterlimit:4;stroke-dasharray:none;stroke-dashoffset:0;stroke-opacity:1;visibility:visible;display:inline;overflow:visible;enable-background:accumulate"/>
  <path d="M0 576h768V0L0 576z" style="fill:#ce1126;fill-opacity:1;fill-rule:evenodd;stroke:none;stroke-width:1px;stroke-linecap:butt;stroke-linejoin:miter;stroke-opacity:1" transform="scale(3)"/>
  <path style="fill:#fcd116" d="M621.05894 334.35769c-7.32645-5.67222 7.36966-19.095 7.70533-35.175.33567-16.08-15.40966-27.47067-20.77033-32.16-5.36067-4.68933-33.49967-19.76433-36.51467-19.42967-3.015.33467 8.37467 9.38067 10.38467 12.73034-4.02.33466-8.71034-3.68534-10.05-2.68034-1.33967 1.005 8.04 11.72433 8.37466 15.40967-2.68033 1.005-5.35966-2.01-9.37966-1.005-1.33967 1.34067 6.70033 7.37067 8.37466 11.39067-3.015.66933-8.71033-3.68534-12.39466-1.34067-.33467 1.67533 11.38966 11.72433 12.73033 15.075 1.34067 3.35067-11.055-1.67534-12.06 0 2.01 3.015 12.73034 12.39567 14.07 15.41067 1.33967 3.015-13.73533-.33467-13.73533 1.005 2.68033 3.68433 15.40966 13.065 17.41966 14.07 2.01 1.005-19.42966-1.005-30.82033 9.37966-11.39067 10.38467-24.45467 26.13101-24.45467 27.80534 3.68534 2.01 11.38967-.66933 11.055 1.005-5.025 4.68933-12.39466 13.39966-12.39466 15.40966s8.04-1.34067 8.04 1.33967c-5.025 5.36067-24.79034 20.77033-33.83534 50.92033 5.69534-2.01 10.72034-6.36567 13.39967-6.70033-.33467 2.01-3.68534 9.046-3.34967 10.38567.33567 1.33966 20.1-14.74034 22.78034-13.73534.33466 3.68534-2.01 5.36067-.33467 6.70034 2.67933-1.67534 18.42467-15.74534 22.11-15.74534 3.68534 0-.67033 4.35567 0 5.69534.67034 1.33966 14.74034-5.35967 16.41467-4.02 1.67433 1.33966-9.045 16.07899-9.045 19.76433 0 3.68533 13.065 1.005 13.73533 2.68033.67034 1.67534-7.035 14.07101-7.035 16.75034 0 2.67933 5.69534 2.34466 5.025 3.34966-.67033 1.005-29.81533 30.15-63.98533 20.1-24.45567-10.05-37.52067-30.14899-26.80034-59.62966-2.68033 1.67433-15.74533 17.41966-11.055 34.50466 4.69034 17.085 18.09 37.85433 51.58967 35.50967 33.49966-2.34467 38.19-13.40067 43.215-15.075 5.025-1.67433-1.33967 2.68134-2.68034 6.36567-1.34067 3.68433 7.03601-.67034 10.72134-1.67534 3.68534-1.005-7.70533 11.055-8.71033 14.07-1.005 3.015 27.46966-7.035 29.47966-10.05 2.01-3.015-.66933 3.015-1.33966 5.025-.67034 2.01 31.155-18.42567 31.155-22.78033 0-4.35467 1.67533 3.68433 1.67533 6.03s20.77034-23.44866 20.77034-27.80433 5.36067 9.37866 5.69533 10.71933c-.33466 2.34567 17.085-29.81433-.33466-58.62467 1.33866-1.67533 11.89116 13.56851 16.41366 14.07 1.17283.16784 3.68533-5.02399 5.025-5.35966 1.33966-.33567 5.35965 8.04 8.37465 8.37466 2.68033-2.01 1.67534-5.69533 2.34466-7.70533 2.5125-.5015 8.71034 7.036 11.38967 6.36567 1.5075-.5025 2.01-6.03101 1.005-7.37067-1.005-1.33967 7.035 3.5185 9.37966 2.68033 1.005-.66933.33467-3.34966-.33466-6.03.33466-1.67533 14.74033 8.71034 16.75033 6.70034 2.01-2.01-14.73933-30.15101-33.49966-40.53567-18.76032-10.38467-33.83532-2.34366-40.19999-3.68433-6.36466-1.34067-12.73033-3.01601-12.73033-7.37067 0-4.35467 6.70033-14.40366 10.05-17.75433 3.34966-3.35067 5.69533-4.02 7.035-8.71034 1.33966-4.69033-2.68034-15.40966-3.015-19.42966-.33467-4.02 3.015-19.76534 2.01-20.77034-1.005-1.005-7.035 15.40967-9.045 19.095-2.01 3.68534-4.69034 4.02101-6.36467 6.70034-1.67433 2.67933-9.045 27.80433-19.42966 19.76433z" transform="scale(3)"/>
  <path style="fill:#fcd116" d="M575.8327 432.61151c-8.04 8.04-44.22 62.31-88.44 62.31s-42.88134-39.53067-41.54067-50.92033c-10.71933 12.73033-8.70933 60.97033 41.54067 60.97033 44.22 0 88.44-62.31 92.46-70.35 4.02-8.04 4.02-10.05-4.02-2.01z" transform="scale(3)"/>
  <path transform="rotate(34.54722 1191.27361411 -479.7426157) scale(5.51217)" d="m225 86.714286-10.29064-7.794756-10.88504 6.940576 4.23327-12.195695-9.96454-8.207526L211 65.714287l4.72661-12.013107 3.74366 12.354779 12.88575.783018-10.59324 7.378271L225 86.714286z" style="opacity:1;color:#000;fill:#fff;fill-opacity:1;fill-rule:nonzero;stroke:none;stroke-width:3;stroke-linecap:butt;stroke-linejoin:round;marker:none;marker-start:none;marker-mid:none;marker-end:none;stroke-miterlimit:4;stroke-dasharray:none;stroke-dashoffset:0;stroke-opacity:1;visibility:visible;display:inline;overflow:visible;enable-background:accumulate"/>
  <path transform="rotate(34.54722 359.09202265 -1134.56921364) scale(5.51217)" d="m225 86.714286-10.29064-7.794756-10.88504 6.940576 4.23327-12.195695-9.96454-8.207526L211 65.714287l4.72661-12.013107 3.74366 12.354779 12.88575.783018-10.59324 7.378271L225 86.714286z" style="opacity:1;color:#000;fill:#fff;fill-opacity:1;fill-rule:nonzero;stroke:none;stroke-width:3;stroke-linecap:butt;stroke-linejoin:round;marker:none;marker-start:none;marker-mid:none;marker-end:none;stroke-miterlimit:4;stroke-dasharray:none;stroke-dashoffset:0;stroke-opacity:1;visibility:visible;display:inline;overflow:visible;enable-background:accumulate"/>
  <path transform="rotate(68.352081 795.60652227 -254.6379457) scale(5.51217)" d="m225 86.714286-10.29064-7.794756-10.88504 6.940576 4.23327-12.195695-9.96454-8.207526L211 65.714287l4.72661-12.013107 3.74366 12.354779 12.88575.783018-10.59324 7.378271L225 86.714286z" style="opacity:1;color:#000;fill:#fff;fill-opacity:1;fill-rule:nonzero;stroke:none;stroke-width:3;stroke-linecap:butt;stroke-linejoin:round;marker:none;marker-start:none;marker-mid:none;marker-end:none;stroke-miterlimit:4;stroke-dasharray:none;stroke-dashoffset:0;stroke-opacity:1;visibility:visible;display:inline;overflow:visible;enable-background:accumulate"/>
  <path transform="rotate(68.352081 497.63031233 21.24743021) scale(5.51217)" d="m225 86.714286-10.29064-7.794756-10.88504 6.940576 4.23327-12.195695-9.96454-8.207526L211 65.714287l4.72661-12.013107 3.74366 12.354779 12.88575.783018-10.59324 7.378271L225 86.714286z" style="opacity:1;color:#000;fill:#fff;fill-opacity:1;fill-rule:nonzero;stroke:none;stroke-width:3;stroke-linecap:butt;stroke-linejoin:round;marker:none;marker-start:none;marker-mid:none;marker-end:none;stroke-miterlimit:4;stroke-dasharray:none;stroke-dashoffset:0;stroke-opacity:1;visibility:visible;display:inline;overflow:visible;enable-background:accumulate"/>
  <path transform="rotate(68.352081 242.46753159 63.0883967) scale(5.51217)" d="m225 86.714286-10.29064-7.794756-10.88504 6.940576 4.23327-12.195695-9.96454-8.207526L211 65.714287l4.72661-12.013107 3.74366 12.354779 12.88575.783018-10.59324 7.378271L225 86.714286z" style="opacity:1;color:#000;fill:#fff;fill-opacity:1;fill-rule:nonzero;stroke:none;stroke-width:3;stroke-linecap:butt;stroke-linejoin:round;marker:none;marker-start:none;marker-mid:none;marker-end:none;stroke-miterlimit:4;stroke-dasharray:none;stroke-dashoffset:0;stroke-opacity:1;visibility:visible;display:inline;overflow:visible;enable-background:accumulate"/>
  <path transform="rotate(68.352081 -19.96192308 121.39069003) scale(5.51217)" d="m225 86.714286-10.29064-7.794756-10.88504 6.940576 4.23327-12.195695-9.96454-8.207526L211 65.714287l4.72661-12.013107 3.74366 12.354779 12.88575.783018-10.59324 7.378271L225 86.714286z" style="opacity:1;color:#000;fill:#fff;fill-opacity:1;fill-rule:nonzero;stroke:none;stroke-width:3;stroke-linecap:butt;stroke-linejoin:round;marker:none;marker-start:none;marker-mid:none;marker-end:none;stroke-miterlimit:4;stroke-dasharray:none;stroke-dashoffset:0;stroke-opacity:1;visibility:visible;display:inline;overflow:visible;enable-background:accumulate"/>
  <path transform="rotate(-49.432985) scale(3)" style="opacity:1;color:#000;fill:#fcd116;fill-opacity:1;fill-rule:nonzero;stroke:none;stroke-width:3;stroke-linecap:butt;stroke-linejoin:round;marker:none;marker-start:none;marker-mid:none;marker-end:none;stroke-miterlimit:4;stroke-dasharray:none;stroke-dashoffset:0;stroke-opacity:1;visibility:visible;display:inline;overflow:visible;enable-background:accumulate" d="M107.02995 481.66132h93.022339v9.0924091H107.02995z"/>
  <path transform="rotate(-63.568248) scale(3)" style="opacity:1;color:#000;fill:#fcd116;fill-opacity:1;fill-rule:nonzero;stroke:none;stroke-width:3;stroke-linecap:butt;stroke-linejoin:round;marker:none;marker-start:none;marker-mid:none;marker-end:none;stroke-miterlimit:4;stroke-dasharray:none;stroke-dashoffset:0;stroke-opacity:1;visibility:visible;display:inline;overflow:visible;enable-background:accumulate" d="M-11.783998 475.55588h93.022339v9.0924091h-93.022339z"/>
  <path transform="rotate(-78.153747) scale(3)" style="opacity:1;color:#000;fill:#fcd116;fill-opacity:1;fill-rule:nonzero;stroke:none;stroke-width:3;stroke-linecap:butt;stroke-linejoin:round;marker:none;marker-start:none;marker-mid:none;marker-end:none;stroke-miterlimit:4;stroke-dasharray:none;stroke-dashoffset:0;stroke-opacity:1;visibility:visible;display:inline;overflow:visible;enable-background:accumulate" d="M-128.97005 439.05194h93.022339v9.0924091h-93.022339z"/>
  <path transform="rotate(-90.95460073) scale(3)" style="opacity:1;color:#000;fill:#fcd116;fill-opacity:1;fill-rule:nonzero;stroke:none;stroke-width:3;stroke-linecap:butt;stroke-linejoin:round;marker:none;marker-start:none;marker-mid:none;marker-end:none;stroke-miterlimit:4;stroke-dasharray:none;stroke-dashoffset:0;stroke-opacity:1;visibility:visible;display:inline;overflow:visible;enable-background:accumulate" d="M-221.36768 383.54437h93.022339v9.0924091h-93.022339z"/>
  <path transform="rotate(-106.494542) scale(3)" style="opacity:1;color:#000;fill:#fcd116;fill-opacity:1;fill-rule:nonzero;stroke:none;stroke-width:3;stroke-linecap:butt;stroke-linejoin:round;marker:none;marker-start:none;marker-mid:none;marker-end:none;stroke-miterlimit:4;stroke-dasharray:none;stroke-dashoffset:0;stroke-opacity:1;visibility:visible;display:inline;overflow:visible;enable-background:accumulate" d="M-313.53601 290.84174h93.022339v9.0924091h-93.022339z"/>
  <path transform="rotate(-120.46216) scale(3)" style="opacity:1;color:#000;fill:#fcd116;fill-opacity:1;fill-rule:nonzero;stroke:none;stroke-width:3;stroke-linecap:butt;stroke-linejoin:round;marker:none;marker-start:none;marker-mid:none;marker-end:none;stroke-miterlimit:4;stroke-dasharray:none;stroke-dashoffset:0;stroke-opacity:1;visibility:visible;display:inline;overflow:visible;enable-background:accumulate" d="M-372.46255 189.10876h93.022339v9.0924091h-93.022339z"/>
  <path transform="rotate(-134.104309) scale(3)" style="opacity:1;color:#000;fill:#fcd116;fill-opacity:1;fill-rule:nonzero;stroke:none;stroke-width:3;stroke-linecap:butt;stroke-linejoin:round;marker:none;marker-start:none;marker-mid:none;marker-end:none;stroke-miterlimit:4;stroke-dasharray:none;stroke-dashoffset:0;stroke-opacity:1;visibility:visible;display:inline;overflow:visible;enable-background:accumulate" d="M-404.64777 78.87075h93.022339v9.0924091h-93.022339z"/>
  <path transform="rotate(-149.761477) scale(3)" style="opacity:1;color:#000;fill:#fcd116;fill-opacity:1;fill-rule:nonzero;stroke:none;stroke-width:3;stroke-linecap:butt;stroke-linejoin:round;marker:none;marker-start:none;marker-mid:none;marker-end:none;stroke-miterlimit:4;stroke-dasharray:none;stroke-dashoffset:0;stroke-opacity:1;visibility:visible;display:inline;overflow:visible;enable-background:accumulate" d="M-408.38507-52.780251h93.022339v9.0924091h-93.022339z"/>
  <path transform="rotate(-163.038205) scale(3)" style="opacity:1;color:#000;fill:#fcd116;fill-opacity:1;fill-rule:nonzero;stroke:none;stroke-width:3;stroke-linecap:butt;stroke-linejoin:round;marker:none;marker-start:none;marker-mid:none;marker-end:none;stroke-miterlimit:4;stroke-dasharray:none;stroke-dashoffset:0;stroke-opacity:1;visibility:visible;display:inline;overflow:visible;enable-background:accumulate" d="M-383.54303-161.76306h93.022339v9.0924091h-93.022339z"/>
  <path transform="rotate(-178.34906863) scale(3)" style="opacity:1;color:#000;fill:#fcd116;fill-opacity:1;fill-rule:nonzero;stroke:none;stroke-width:3;stroke-linecap:butt;stroke-linejoin:round;marker:none;marker-start:none;marker-mid:none;marker-end:none;stroke-miterlimit:4;stroke-dasharray:none;stroke-dashoffset:0;stroke-opacity:1;visibility:visible;display:inline;overflow:visible;enable-background:accumulate" d="M-324.79532-276.3949h93.022339v9.0924091h-93.022339z"/>
  <path transform="rotate(167.28811) scale(3)" style="opacity:1;color:#000;fill:#fcd116;fill-opacity:1;fill-rule:nonzero;stroke:none;stroke-width:3;stroke-linecap:butt;stroke-linejoin:round;marker:none;marker-start:none;marker-mid:none;marker-end:none;stroke-miterlimit:4;stroke-dasharray:none;stroke-dashoffset:0;stroke-opacity:1;visibility:visible;display:inline;overflow:visible;enable-background:accumulate" d="M-243.95836-366.26318h93.022339v9.0924091h-93.022339z"/>
  <path transform="rotate(152.756302) scale(3)" style="opacity:1;color:#000;fill:#fcd116;fill-opacity:1;fill-rule:nonzero;stroke:none;stroke-width:3;stroke-linecap:butt;stroke-linejoin:round;marker:none;marker-start:none;marker-mid:none;marker-end:none;stroke-miterlimit:4;stroke-dasharray:none;stroke-dashoffset:0;stroke-opacity:1;visibility:visible;display:inline;overflow:visible;enable-background:accumulate" d="M-142.0778-433.90424h93.022339v9.0924091H-142.0778z"/>
</svg>
