<svg xmlns="http://www.w3.org/2000/svg" width="632" height="419" version="1.0">
  <path style="opacity:1;color:#000;fill:#165016;fill-opacity:1;fill-rule:nonzero;stroke:none;stroke-width:3.37800002;stroke-linecap:butt;stroke-linejoin:miter;marker:none;marker-start:none;marker-mid:none;marker-end:none;stroke-miterlimit:4;stroke-dasharray:none;stroke-dashoffset:0;stroke-opacity:1;visibility:visible;display:inline;overflow:visible;enable-background:accumulate" d="M25 483.36218h632v419H25z" transform="translate(-25 -483.36218)"/>
  <path style="fill:#000;fill-opacity:1;fill-rule:evenodd;stroke:none;stroke-width:1px;stroke-linecap:butt;stroke-linejoin:miter;stroke-opacity:1" d="m446 901.86218-423-277.5.502375 277.5H446z" transform="translate(-25 -483.36218)"/>
  <path style="fill:#a00;fill-rule:evenodd;stroke:none;stroke-width:1px;stroke-linecap:butt;stroke-linejoin:miter;stroke-opacity:1" d="M660.98815 760.36218 235 483.36218l427-.5-1.01185 277.5z" transform="translate(-25 -483.36218)"/>
  <path style="opacity:1;color:#000;fill:#fff;fill-opacity:1;fill-rule:nonzero;stroke:none;stroke-width:3.37800002;stroke-linecap:butt;stroke-linejoin:miter;marker:none;marker-start:none;marker-mid:none;marker-end:none;stroke-miterlimit:4;stroke-dasharray:none;stroke-dashoffset:0;stroke-opacity:1;visibility:visible;display:inline;overflow:visible;enable-background:accumulate" d="m119 287.36218-16.22417-12.07534-16.705858 11.39964 6.470785-19.16159-16.004089-12.36553 20.223332.23282 6.81479-19.04195 6.02792 19.30548 20.21586.59696-16.49787 11.69862L119 287.36218z" transform="translate(-10.498898 4.53752) scale(.94119)"/>
  <path style="opacity:1;color:#000;fill:#fff;fill-opacity:1;fill-rule:nonzero;stroke:none;stroke-width:3.37800002;stroke-linecap:butt;stroke-linejoin:miter;marker:none;marker-start:none;marker-mid:none;marker-end:none;stroke-miterlimit:4;stroke-dasharray:none;stroke-dashoffset:0;stroke-opacity:1;visibility:visible;display:inline;overflow:visible;enable-background:accumulate" d="m119 287.36218-16.22417-12.07534-16.705858 11.39964 6.470785-19.16159-16.004089-12.36553 20.223332.23282 6.81479-19.04195 6.02792 19.30548 20.21586.59696-16.49787 11.69862L119 287.36218z" transform="translate(-59.498898 56.53752) scale(.94119)"/>
  <path style="opacity:1;color:#000;fill:#fff;fill-opacity:1;fill-rule:nonzero;stroke:none;stroke-width:3.37800002;stroke-linecap:butt;stroke-linejoin:miter;marker:none;marker-start:none;marker-mid:none;marker-end:none;stroke-miterlimit:4;stroke-dasharray:none;stroke-dashoffset:0;stroke-opacity:1;visibility:visible;display:inline;overflow:visible;enable-background:accumulate" d="m119 287.36218-16.22417-12.07534-16.705858 11.39964 6.470785-19.16159-16.004089-12.36553 20.223332.23282 6.81479-19.04195 6.02792 19.30548 20.21586.59696-16.49787 11.69862L119 287.36218z" transform="translate(42.890225 48.54348) scale(.94119)"/>
  <path style="opacity:1;color:#000;fill:#fff;fill-opacity:1;fill-rule:nonzero;stroke:none;stroke-width:3.37800002;stroke-linecap:butt;stroke-linejoin:miter;marker:none;marker-start:none;marker-mid:none;marker-end:none;stroke-miterlimit:4;stroke-dasharray:none;stroke-dashoffset:0;stroke-opacity:1;visibility:visible;display:inline;overflow:visible;enable-background:accumulate" d="m119 287.36218-16.22417-12.07534-16.705858 11.39964 6.470785-19.16159-16.004089-12.36553 20.223332.23282 6.81479-19.04195 6.02792 19.30548 20.21586.59696-16.49787 11.69862L119 287.36218z" transform="translate(-9.109775 140.54348) scale(.94119)"/>
  <path style="opacity:1;color:#000;fill:#fff;fill-opacity:1;fill-rule:nonzero;stroke:none;stroke-width:3.37800002;stroke-linecap:butt;stroke-linejoin:miter;marker:none;marker-start:none;marker-mid:none;marker-end:none;stroke-miterlimit:4;stroke-dasharray:none;stroke-dashoffset:0;stroke-opacity:1;visibility:visible;display:inline;overflow:visible;enable-background:accumulate" d="m119 287.36218-16.22417-12.07534-16.705858 11.39964 6.470785-19.16159-16.004089-12.36553 20.223332.23282 6.81479-19.04195 6.02792 19.30548 20.21586.59696-16.49787 11.69862L119 287.36218z" transform="matrix(.45322 0 0 .45322 72.23787 223.87543)"/>
  <path transform="matrix(1.13377 0 0 1.13377 -86.956846 -67.95146)" d="M454 246.36218a17 16 0 1 1-34 0 17 16 0 1 1 34 0z" style="opacity:1;color:#000;fill:#fff;fill-opacity:1;fill-rule:nonzero;stroke:#000;stroke-width:3.37800002;stroke-linecap:butt;stroke-linejoin:miter;marker:none;marker-start:none;marker-mid:none;marker-end:none;stroke-miterlimit:4;stroke-dasharray:none;stroke-dashoffset:0;stroke-opacity:1;visibility:visible;display:inline;overflow:visible;enable-background:accumulate"/>
  <path transform="matrix(.999 .53612 -.53612 .999 130.49739 -262.37898)" d="M454 246.36218a17 16 0 1 1-34 0 17 16 0 1 1 34 0z" style="opacity:1;color:#000;fill:#fff;fill-opacity:1;fill-rule:nonzero;stroke:#000;stroke-width:3.37800002;stroke-linecap:butt;stroke-linejoin:miter;marker:none;marker-start:none;marker-mid:none;marker-end:none;stroke-miterlimit:4;stroke-dasharray:none;stroke-dashoffset:0;stroke-opacity:1;visibility:visible;display:inline;overflow:visible;enable-background:accumulate"/>
  <path transform="matrix(.61613 .95174 -.95174 .61613 420.7349 -330.76898)" d="M454 246.36218a17 16 0 1 1-34 0 17 16 0 1 1 34 0z" style="opacity:1;color:#000;fill:#fff;fill-opacity:1;fill-rule:nonzero;stroke:#000;stroke-width:3.37800002;stroke-linecap:butt;stroke-linejoin:miter;marker:none;marker-start:none;marker-mid:none;marker-end:none;stroke-miterlimit:4;stroke-dasharray:none;stroke-dashoffset:0;stroke-opacity:1;visibility:visible;display:inline;overflow:visible;enable-background:accumulate"/>
  <path transform="matrix(.00646 1.13375 -1.13375 .00646 740.99032 -229.9924)" d="M454 246.36218a17 16 0 1 1-34 0 17 16 0 1 1 34 0z" style="opacity:1;color:#000;fill:#fff;fill-opacity:1;fill-rule:nonzero;stroke:#000;stroke-width:3.37800002;stroke-linecap:butt;stroke-linejoin:miter;marker:none;marker-start:none;marker-mid:none;marker-end:none;stroke-miterlimit:4;stroke-dasharray:none;stroke-dashoffset:0;stroke-opacity:1;visibility:visible;display:inline;overflow:visible;enable-background:accumulate"/>
  <path transform="matrix(-.5548 .98875 -.98875 -.5548 943.37771 -.62863)" d="M454 246.36218a17 16 0 1 1-34 0 17 16 0 1 1 34 0z" style="opacity:1;color:#000;fill:#fff;fill-opacity:1;fill-rule:nonzero;stroke:#000;stroke-width:3.37800002;stroke-linecap:butt;stroke-linejoin:miter;marker:none;marker-start:none;marker-mid:none;marker-end:none;stroke-miterlimit:4;stroke-dasharray:none;stroke-dashoffset:0;stroke-opacity:1;visibility:visible;display:inline;overflow:visible;enable-background:accumulate"/>
  <path transform="matrix(-1.13224 -.05889 .05889 -1.13224 885.87142 627.96562)" d="M454 246.36218a17 16 0 1 1-34 0 17 16 0 1 1 34 0z" style="opacity:1;color:#000;fill:#fff;fill-opacity:1;fill-rule:nonzero;stroke:#000;stroke-width:3.37800002;stroke-linecap:butt;stroke-linejoin:miter;marker:none;marker-start:none;marker-mid:none;marker-end:none;stroke-miterlimit:4;stroke-dasharray:none;stroke-dashoffset:0;stroke-opacity:1;visibility:visible;display:inline;overflow:visible;enable-background:accumulate"/>
  <path transform="matrix(-.9992 .53574 -.53574 -.9992 1003.6007 328.77078)" d="M454 246.36218a17 16 0 1 1-34 0 17 16 0 1 1 34 0z" style="opacity:1;color:#000;fill:#fff;fill-opacity:1;fill-rule:nonzero;stroke:#000;stroke-width:3.37800002;stroke-linecap:butt;stroke-linejoin:miter;marker:none;marker-start:none;marker-mid:none;marker-end:none;stroke-miterlimit:4;stroke-dasharray:none;stroke-dashoffset:0;stroke-opacity:1;visibility:visible;display:inline;overflow:visible;enable-background:accumulate"/>
  <path transform="matrix(-.958 -.60635 .60635 -.958 647.81734 815.67512)" d="M454 246.36218a17 16 0 1 1-34 0 17 16 0 1 1 34 0z" style="opacity:1;color:#000;fill:#fff;fill-opacity:1;fill-rule:nonzero;stroke:#000;stroke-width:3.37800002;stroke-linecap:butt;stroke-linejoin:miter;marker:none;marker-start:none;marker-mid:none;marker-end:none;stroke-miterlimit:4;stroke-dasharray:none;stroke-dashoffset:0;stroke-opacity:1;visibility:visible;display:inline;overflow:visible;enable-background:accumulate"/>
  <path transform="matrix(-.5557 -.98824 .98824 -.5557 359.06691 863.58082)" d="M454 246.36218a17 16 0 1 1-34 0 17 16 0 1 1 34 0z" style="opacity:1;color:#000;fill:#fff;fill-opacity:1;fill-rule:nonzero;stroke:#000;stroke-width:3.37800002;stroke-linecap:butt;stroke-linejoin:miter;marker:none;marker-start:none;marker-mid:none;marker-end:none;stroke-miterlimit:4;stroke-dasharray:none;stroke-dashoffset:0;stroke-opacity:1;visibility:visible;display:inline;overflow:visible;enable-background:accumulate"/>
  <path transform="matrix(.00244 -1.13377 1.13377 .00244 72.118203 762.10122)" d="M454 246.36218a17 16 0 1 1-34 0 17 16 0 1 1 34 0z" style="opacity:1;color:#000;fill:#fff;fill-opacity:1;fill-rule:nonzero;stroke:#000;stroke-width:3.37800002;stroke-linecap:butt;stroke-linejoin:miter;marker:none;marker-start:none;marker-mid:none;marker-end:none;stroke-miterlimit:4;stroke-dasharray:none;stroke-dashoffset:0;stroke-opacity:1;visibility:visible;display:inline;overflow:visible;enable-background:accumulate"/>
  <path transform="rotate(-58.486029 391.2927967 379.0012647) scale(1.13377)" d="M454 246.36218a17 16 0 1 1-34 0 17 16 0 1 1 34 0z" style="opacity:1;color:#000;fill:#fff;fill-opacity:1;fill-rule:nonzero;stroke:#000;stroke-width:3.37800002;stroke-linecap:butt;stroke-linejoin:miter;marker:none;marker-start:none;marker-mid:none;marker-end:none;stroke-miterlimit:4;stroke-dasharray:none;stroke-dashoffset:0;stroke-opacity:1;visibility:visible;display:inline;overflow:visible;enable-background:accumulate"/>
  <path transform="matrix(.98114 -.56815 .56815 .98114 -188.29148 225.46912)" d="M454 246.36218a17 16 0 1 1-34 0 17 16 0 1 1 34 0z" style="opacity:1;color:#000;fill:#fff;fill-opacity:1;fill-rule:nonzero;stroke:#000;stroke-width:3.37800002;stroke-linecap:butt;stroke-linejoin:miter;marker:none;marker-start:none;marker-mid:none;marker-end:none;stroke-miterlimit:4;stroke-dasharray:none;stroke-dashoffset:0;stroke-opacity:1;visibility:visible;display:inline;overflow:visible;enable-background:accumulate"/>
  <path style="fill:#ffd618;fill-opacity:1" d="M604.47995 690.63155c8.35269-1.61908 15.21533-7.659 19.67072-17.3125 3.85575-8.35429 4.0514-13.41679.91186-23.59426l-2.2395-7.25976-3.74453 8.33447c-5.05164 11.24379-13.09292 16.70972-25.86272 17.57977-7.0749.48203-11.1883-.13254-13.73076-2.05152-3.3812-2.55202-3.10997-2.67092 3.95896-1.73558 14.94847 1.97794 31.08912-10.58828 32.77147-25.51405.8566-7.59971.70733-7.83552-13.15686-20.78314-7.71281-7.20291-14.94702-12.91679-16.07602-12.6975-1.129.2193-4.78298-1.05253-8.11995-2.82627-7.31761-3.88962-8.56403-3.04741-6.07156 4.10249 1.39281 3.99541 1.32996 5.61783-.23783 6.14043-1.35101.45034-.3132 3.09327 2.83589 7.22195 3.19834 4.19321 4.1985 6.76774 2.8091 7.23087-1.4536.48453-.85542 2.54794 1.83327 6.32386 4.69183 6.58907 5.03161 8.55446 1.22648 7.09429-2.28536-.87697-2.41714-.41191-.76043 2.68369 1.10219 2.05946 1.70546 4.043 1.3406 4.40786-1.40952 1.40953-16.84089-7.66413-24.54094-14.43011-6.35003-5.57971-8.41815-6.56325-9.64082-4.58491-1.25941 2.03775-2.41263 1.71442-6.04024-1.69354l-4.48364-4.21216-.60305 4.09509c-.55197 3.74829-1.47692 3.26366-10.92171-5.72246-8.19648-7.79842-10.77585-11.65199-12.5415-18.73707l-2.22282-8.91952-4.24672 4.93711c-3.89402 4.52707-4.24672 4.62723-4.24672 1.20601 0-4.71122-2.1493-4.74547-6.35229-.1012-4.29232 4.74295-6.26854 4.60906-4.97509-.33709l1.03738-3.96697-5.74465 4.09055c-4.68811 3.33824-5.74465 3.56713-5.74465 1.24456 0-3.39453-2.08172-3.66819-5.08184-.66807-1.69395 1.69395-2.17793 1.4459-2.17793-1.1162 0-3.14779-.21406-3.15389-4.81821-.13714-4.28854 2.80997-4.69383 2.83291-3.68684.20874 1.42822-3.72191-1.20422-3.83501-4.23595-.182-1.26268 1.52145-2.67545 2.38663-3.13945 1.92263-1.48265-1.48265 10.64686-21.0926 17.50753-28.30465 8.53387-8.97096 14.89626-10.58205 25.54076-6.46744 11.83789 4.57591 15.37511 4.52695 16.05083-.22216.57745-4.05848-1.56607-5.65253-21.60293-16.06517l-7.15713-3.71938 6.8365.0895c3.76007.04922 8.97875-.51258 11.59708-1.24844 3.82641-1.07539 6.38707-.09601 13.04944 4.9911 13.58276 10.3712 16.23463 8.13429 16.51836-13.93373.1336-10.39154.92905-13.19598 5.64649-19.90722 5.34533-7.60452 19.37189-19.72313 22.82832-19.72313.94625 0 .45343 2.45017-1.09517 5.44483-2.47411 4.7844-2.48667 5.44482-.10357 5.44482 1.74105 0 2.31286 1.0403 1.59708 2.90559-.61323 1.59808.01811 3.60587 1.40301 4.46178 2.00532 1.23937 2.05917 2.01498.26446 3.8097-3.1572 3.1572-2.8051 5.14739.92265 5.21513 3.00986.0547 3.00822.18515-.03154 2.49182-1.97245 1.49676-2.75529 3.61298-2.03292 5.49545.76646 1.99735-.60222 4.91612-3.93792 8.39784-5.51242 5.75373-4.42519 6.75934 2.82622 2.61406 5.46692-3.12517 19.0642-3.48007 27.02378-.70535 5.16638 1.801 5.45748 2.25737 2.71782 4.26067-2.73489 1.9998-2.14682 2.87761 5.41169 8.078 4.66401 3.20893 8.03395 6.55616 7.48876 7.43829-.54519.88214 2.2245 5.85262 6.15485 11.04553 3.93037 5.1929 6.78682 10.37797 6.34767 11.52237-.43914 1.14438.45834 5.64282 1.99442 9.99652 3.03809 8.61088 2.75292 10.81444-.83938 6.48598-3.29858-3.97454-6.07205-3.40665-4.91787 1.00697.72082 2.75638.28818 3.50519-1.60538 2.77856-1.81471-.69636-1.27524 1.60403 1.79881 7.67039 2.41501 4.76578 4.99331 11.87606 5.72956 15.80063.73626 3.92457 3.2453 11.22998 5.57565 16.23424 10.8973 23.40114-1.34865 48.66247-23.22595 47.91121l-6.07799-.20871 6.8455-1.32695zm9.64392-73.48482c-4.46891-10.69561-9.71729-16.95177-14.20818-16.9364-2.25291.0077-5.93382-.58196-8.17982-1.31036-6.95002-2.25401-4.59235 1.89493 5.50246 9.68302 5.27232 4.06758 11.5371 9.47238 13.9217 12.01068 5.56085 5.91924 6.44677 4.8889 2.96384-3.44694zM545.07991 833.53088c-11.80597-7.929-32.88109-21.91504-46.83361-31.07987-13.95251-9.16503-25.80726-17.16576-26.3439-17.77946-3.36901-3.85251-168.45-111.0968-169.46928-110.09508-.69323.6814-3.0207 4.83864-5.17213 9.2383-2.66457 5.44926-6.2633 9.12878-11.28765 11.5412-8.56034 4.11006-37.21435 6.73804-39.19127 3.59456-.69354-1.10293 2.91441-7.23552 8.01763-13.62799 8.87316-11.115 16.85125-16.09583 28.63087-17.87465 2.05761-.31073 4.06148-1.51077 4.45308-2.66677.79277-2.34043-13.43906-12.28178-17.5824-12.28178-1.45308 0-4.7649 3.23631-7.35958 7.1918-6.5049 9.9165-20.34616 16.18925-37.89139 17.17213-17.21032.96408-20.6005-.84805-15.60459-8.34159 7.32032-10.97995 21.01408-18.55084 37.55784-20.76473 5.68419-.76067 10.22924-2.35802 10.20978-3.58828-.04652-2.94181-18.45247-14.68306-23.01764-14.68306-1.97122 0-4.97945 1.51027-6.68493 3.35616-12.22959 13.23637-15.32653 15.69233-22.12824 17.54828-11.54075 3.14906-26.07509 2.71764-27.4544-.81493-3.23304-8.28013 17.35738-25.84295 30.29792-25.84295 12.81574 0 16.17959-5.44837 5.6037-9.07624-3.48813-1.19654-11.61083-2.7616-18.05045-3.4779-15.35728-1.70824-22.5246-5.16239-32.26819-15.55102-8.39326-8.94888-16.07608-23.19131-14.15665-26.24358 1.56395-2.48696 25.47727-.20235 33.74074 3.2235 10.65861 4.4188 16.82234 10.07163 23.51254 21.56362 11.79332 20.25779 22.28471 25.0272 17.79833 8.09117-2.12987-8.04029-2.93808-14.77309-2.49886-20.81698.3348-4.60714 10.53305-19.08256 13.44407-19.08256 1.42948 0 4.84772 4.82722 7.59612 10.72715 4.0193 8.62822 4.82294 12.79052 4.10725 21.27245-.48942 5.7999-1.85361 11.13069-3.03155 11.84617-3.29152 1.99926-5.91355 10.3999-4.47567 14.33947 1.45126 3.97623 21.34487 16.99306 23.74371 15.53602.85471-.51916.28382-4.48209-1.26865-8.80652-3.97284-11.06641-3.53828-29.61881.91979-39.26712 4.70667-10.18639 6.51319-11.12496 11.41589-5.93095 10.70719 11.34344 13.39269 41.55747 4.71858 53.08791-2.34617 3.11872-4.26574 6.5269-4.26574 7.57374 0 1.04682 4.03064 4.62875 8.95696 7.95983 10.89205 7.36491 13.76661 5.84203 10.62388-5.62829-2.65701-9.69751-.61994-18.06854 7.95582-32.69353l6.09527-10.39476 3.47724 4.53055c4.72502 6.15627 8.06454 17.71138 9.25663 32.02899.95928 11.52157.77486 12.13529-5.33162 17.74141-3.4789 3.19382-5.90265 6.88499-5.38612 8.20259.96819 2.46978 34.76293 23.48989 119.48826 74.32093 26.83175 16.09773 60.63976 36.54639 75.1289 45.44141 14.48915 8.8948 37.16007 22.67045 50.37982 30.61211 24.55038 14.74874 28.95617 19.3887 25.20207 26.54213-5.30369 10.10611-10.52964 8.94967-35.57818-7.87299z" transform="translate(-25 -483.36218)"/>
  <g>
    <path d="M480.47966 404.54684c-4.40808-4.60104-18.39073-29.08157-43.254-75.72822-4.13961-7.76643-10.25446-18.78063-13.58854-24.47601s-17.36442-31.53641-31.17853-57.4245c-13.81409-25.88809-26.50647-49.61101-28.2053-52.71758-2.68089-4.90246-4.29534-5.72593-12.22626-6.23624-8.91718-.57376-18.49611-5.41512-22.5689-11.40679-5.3055-7.80513-8.20032-14.22262-7.16859-15.89196.68585-1.10973 2.00396-.70386 3.25048 1.00085 3.99502 5.4635 16.70707 12.76505 22.22405 12.76505 3.04837 0 5.23288-.63544 4.85449-1.41208-.37839-.77664-1.91866-3.95381-3.42277-7.06038-1.5041-3.10657-4.23049-6.75542-6.05858-8.10854-1.82811-1.35312-3.32385-4.5303-3.32385-7.06038 0-2.83387-1.08438-4.60017-2.82415-4.60017-2.1338 0-2.82415-2.30116-2.82415-9.41386 0-5.17762.53542-9.41385 1.18985-9.41385 3.53403 0 13.87231 8.31573 13.87231 11.15838 0 1.82609 1.70647 4.8645 3.79217 6.75202 2.14275 1.93918 3.35953 4.79487 2.79753 6.56562-.55597 1.75167.62184 4.59661 2.67055 6.45068 2.01587 1.82433 3.20805 4.50822 2.64934 5.96423-1.65447 4.31149 4.67151 3.07954 7.05494-1.37393 1.24121-2.31926 1.82912-9.09259 1.38908-16.00355-.41965-6.5903-.07493-11.98237.76599-11.98237 2.88589 0 8.63618 11.69011 9.90183 20.13001 1.0462 6.97664.40384 10.14885-3.69602 18.2521l-4.96232 9.80782 20.10484 37.56577c11.05767 20.66117 27.09504 50.27447 35.6386 65.80733 51.67764 93.95392 65.91194 123.32148 59.77328 123.32148-.88871 0-3.87103-2.35392-6.62737-5.23093z" style="fill:#a00" transform="translate(-14 -26.36218)"/>
    <path d="M545.25685 303.64706c-6.22002 1.38275-34.40268.64196-87.18039-2.29159-8.78722-.48842-21.3757-.97235-27.97439-1.07542-6.5987-.10307-35.96933-1.50867-65.26805-3.12356-29.29871-1.6149-56.16444-3.06598-59.70162-3.22459-5.58199-.25033-7.12335.70297-11.67279 7.2193-5.11518 7.32668-14.22237 13.0059-21.45751 13.38078-9.42496.48835-16.41326-.36479-17.30548-2.11267-.59313-1.16194.43748-2.07844 2.54149-2.26013 6.74321-.58229 19.57878-7.66445 22.43999-12.38151 1.58094-2.60637 2.17056-4.80369 1.31029-4.88294-.86027-.07926-4.37559-.41006-7.81178-.73516-3.43619-.32511-7.96993.11362-10.07494.97489-2.10502.86129-5.59724.49242-7.76048-.81973-2.42297-1.4697-4.49555-1.45858-5.39782.02893-1.10663 1.82442-3.43217 1.22125-9.51357-2.46753-4.42689-2.68521-7.77122-5.33998-7.43182-5.89952 1.83282-3.02162 14.30443-7.54822 16.73492-6.07397 1.56131.94704 5.04418 1.06378 7.7397.25939 2.76928-.82637 5.84196-.38571 7.0645 1.01315 1.20935 1.3838 4.25262 1.8522 6.90036 1.0621 2.60528-.77745 5.51831-.40486 6.47345.82796 2.82831 3.65059 5.05575-2.39707 2.4841-6.74457-1.33927-2.26405-6.8256-6.27949-12.96273-9.4874-5.85238-3.05904-10.28386-6.15021-9.84774-6.8692 1.49667-2.46745 14.47399-1.32128 22.34655 1.97367 6.50764 2.7237 8.88676 4.91809 13.68883 12.62598l5.8122 9.32933 42.54569 2.29253c23.40013 1.26088 57.03695 2.90683 74.74848 3.65766 107.13213 4.54151 139.62373 7.60164 136.44011 12.85024-.4609.75985-4.0202 2.08896-7.90955 2.95358z" style="fill:#a00" transform="translate(-14 -26.36218)"/>
  </g>
</svg>
