<svg xmlns="http://www.w3.org/2000/svg" width="586.2027" height="348.70273" version="1.0">
  <path style="opacity:1;color:#000;fill:#fc0;fill-opacity:1;fill-rule:nonzero;stroke:none;stroke-width:1.29225767;stroke-linecap:butt;stroke-linejoin:round;marker:none;marker-start:none;marker-mid:none;marker-end:none;stroke-miterlimit:4;stroke-dasharray:none;stroke-dashoffset:0;stroke-opacity:1;visibility:visible;display:inline;overflow:visible;enable-background:accumulate" d="M42.648628 31.010811h586.2027v348.70273h-586.2027z" transform="translate(-42.648628 -31.010811)"/>
  <path style="opacity:1;color:#000;fill:#fff;fill-opacity:1;fill-rule:nonzero;stroke:none;stroke-width:.995;stroke-linecap:butt;stroke-linejoin:round;marker:none;marker-start:none;marker-mid:none;marker-end:none;stroke-miterlimit:4;stroke-dasharray:none;stroke-dashoffset:0;stroke-opacity:1;visibility:visible;display:inline;overflow:visible;enable-background:accumulate" d="M41.5 21.862183h195v243.5h-195z" transform="translate(-42.648628 -31.010811)"/>
  <path style="opacity:1;color:#000;fill:#a00;fill-opacity:1;fill-rule:nonzero;stroke:none;stroke-width:.995;stroke-linecap:butt;stroke-linejoin:round;marker:none;marker-start:none;marker-mid:none;marker-end:none;stroke-miterlimit:4;stroke-dasharray:none;stroke-dashoffset:0;stroke-opacity:1;visibility:visible;display:inline;overflow:visible;enable-background:accumulate" d="M236 30.362183h393v118H236z" transform="translate(-42.648628 -31.010811)"/>
  <path transform="rotate(2.01395048 996.60566912 -1033.17223302)" d="m196.5 185.86218-3.89006-2.63339-3.62915 2.9827 1.30241-4.51343-3.95819-2.52982 4.69499-.15606 1.18286-4.54622 1.59925 4.41698 4.68924-.2799-3.7066 2.8859 1.71525 4.37324z" style="opacity:1;color:#000;fill:#000;fill-opacity:1;fill-rule:nonzero;stroke:none;stroke-width:.995;stroke-linecap:butt;stroke-linejoin:round;marker:none;marker-start:none;marker-mid:none;marker-end:none;stroke-miterlimit:4;stroke-dasharray:none;stroke-dashoffset:0;stroke-opacity:1;visibility:visible;display:inline;overflow:visible;enable-background:accumulate"/>
  <path transform="rotate(-4.17306234 -249.73773374 1031.36403566)" d="m196.5 185.86218-3.89006-2.63339-3.62915 2.9827 1.30241-4.51343-3.95819-2.52982 4.69499-.15606 1.18286-4.54622 1.59925 4.41698 4.68924-.2799-3.7066 2.8859 1.71525 4.37324z" style="opacity:1;color:#000;fill:#000;fill-opacity:1;fill-rule:nonzero;stroke:none;stroke-width:.995;stroke-linecap:butt;stroke-linejoin:round;marker:none;marker-start:none;marker-mid:none;marker-end:none;stroke-miterlimit:4;stroke-dasharray:none;stroke-dashoffset:0;stroke-opacity:1;visibility:visible;display:inline;overflow:visible;enable-background:accumulate"/>
  <path transform="rotate(2.01395048 -582.94635109 -1715.64464107)" d="m196.5 185.86218-3.89006-2.63339-3.62915 2.9827 1.30241-4.51343-3.95819-2.52982 4.69499-.15606 1.18286-4.54622 1.59925 4.41698 4.68924-.2799-3.7066 2.8859 1.71525 4.37324z" style="opacity:1;color:#000;fill:#000;fill-opacity:1;fill-rule:nonzero;stroke:none;stroke-width:.995;stroke-linecap:butt;stroke-linejoin:round;marker:none;marker-start:none;marker-mid:none;marker-end:none;stroke-miterlimit:4;stroke-dasharray:none;stroke-dashoffset:0;stroke-opacity:1;visibility:visible;display:inline;overflow:visible;enable-background:accumulate"/>
  <path transform="rotate(14.368948 25.4800589 -294.74285142)" d="m196.5 185.86218-3.89006-2.63339-3.62915 2.9827 1.30241-4.51343-3.95819-2.52982 4.69499-.15606 1.18286-4.54622 1.59925 4.41698 4.68924-.2799-3.7066 2.8859 1.71525 4.37324z" style="opacity:1;color:#000;fill:#000;fill-opacity:1;fill-rule:nonzero;stroke:none;stroke-width:.995;stroke-linecap:butt;stroke-linejoin:round;marker:none;marker-start:none;marker-mid:none;marker-end:none;stroke-miterlimit:4;stroke-dasharray:none;stroke-dashoffset:0;stroke-opacity:1;visibility:visible;display:inline;overflow:visible;enable-background:accumulate"/>
  <path transform="scale(-1 1) rotate(2.01391165 884.88478385 -6541.08663524)" d="m196.5 185.86218-3.89006-2.63339-3.62915 2.9827 1.30241-4.51343-3.95819-2.52982 4.69499-.15606 1.18286-4.54622 1.59925 4.41698 4.68924-.2799-3.7066 2.8859 1.71525 4.37324z" style="opacity:1;color:#000;fill:#000;fill-opacity:1;fill-rule:nonzero;stroke:none;stroke-width:.995;stroke-linecap:butt;stroke-linejoin:round;marker:none;marker-start:none;marker-mid:none;marker-end:none;stroke-miterlimit:4;stroke-dasharray:none;stroke-dashoffset:0;stroke-opacity:1;visibility:visible;display:inline;overflow:visible;enable-background:accumulate"/>
  <path transform="scale(-1 1) rotate(-4.17305938 -339.3604803 3688.9616763)" d="m196.5 185.86218-3.89006-2.63339-3.62915 2.9827 1.30241-4.51343-3.95819-2.52982 4.69499-.15606 1.18286-4.54622 1.59925 4.41698 4.68924-.2799-3.7066 2.8859 1.71525 4.37324z" style="opacity:1;color:#000;fill:#000;fill-opacity:1;fill-rule:nonzero;stroke:none;stroke-width:.995;stroke-linecap:butt;stroke-linejoin:round;marker:none;marker-start:none;marker-mid:none;marker-end:none;stroke-miterlimit:4;stroke-dasharray:none;stroke-dashoffset:0;stroke-opacity:1;visibility:visible;display:inline;overflow:visible;enable-background:accumulate"/>
  <path d="M129.5 207.61218a2.75 3.25 0 1 1-5.5 0 2.75 3.25 0 1 1 5.5 0z" style="opacity:1;color:#000;fill:#000;fill-opacity:1;fill-rule:nonzero;stroke:none;stroke-width:.995;stroke-linecap:butt;stroke-linejoin:round;marker:none;marker-start:none;marker-mid:none;marker-end:none;stroke-miterlimit:4;stroke-dasharray:none;stroke-dashoffset:0;stroke-opacity:1;visibility:visible;display:inline;overflow:visible;enable-background:accumulate" transform="translate(-42.648628 -31.010811)"/>
  <path transform="translate(-16.898628 -31.260811)" d="M129.5 207.61218a2.75 3.25 0 1 1-5.5 0 2.75 3.25 0 1 1 5.5 0z" style="opacity:1;color:#000;fill:#000;fill-opacity:1;fill-rule:nonzero;stroke:none;stroke-width:.995;stroke-linecap:butt;stroke-linejoin:round;marker:none;marker-start:none;marker-mid:none;marker-end:none;stroke-miterlimit:4;stroke-dasharray:none;stroke-dashoffset:0;stroke-opacity:1;visibility:visible;display:inline;overflow:visible;enable-background:accumulate"/>
  <path style="opacity:1;color:#000;fill:#000;fill-opacity:1;fill-rule:nonzero;stroke:none;stroke-width:.995;stroke-linecap:butt;stroke-linejoin:round;marker:none;marker-start:none;marker-mid:none;marker-end:none;stroke-miterlimit:4;stroke-dasharray:none;stroke-dashoffset:0;stroke-opacity:1;visibility:visible;display:inline;overflow:visible;enable-background:accumulate" d="M41.5 265.36218h587v117h-587z" transform="translate(-42.648628 -31.010811)"/>
  <g>
    <path transform="translate(-35.148628 -25.010811)" d="m67.5 359.36218-9.592293-7.39289-9.811309 7.09966 4.06688-11.40734-9.78404-7.1372 12.105762.34277 3.764439-11.51069 3.414894 11.61919 12.110591.0232-9.995242 6.83828L67.5 359.36218z" style="opacity:1;color:#000;fill:#fff;fill-opacity:1;fill-rule:nonzero;stroke:none;stroke-width:.995;stroke-linecap:butt;stroke-linejoin:round;marker:none;marker-start:none;marker-mid:none;marker-end:none;stroke-miterlimit:4;stroke-dasharray:none;stroke-dashoffset:0;stroke-opacity:1;visibility:visible;display:inline;overflow:visible;enable-background:accumulate"/>
    <path transform="translate(72.274292 -25.007971)" d="m67.5 359.36218-9.592293-7.39289-9.811309 7.09966 4.06688-11.40734-9.78404-7.1372 12.105762.34277 3.764439-11.51069 3.414894 11.61919 12.110591.0232-9.995242 6.83828L67.5 359.36218z" style="opacity:1;color:#000;fill:#fff;fill-opacity:1;fill-rule:nonzero;stroke:none;stroke-width:.995;stroke-linecap:butt;stroke-linejoin:round;marker:none;marker-start:none;marker-mid:none;marker-end:none;stroke-miterlimit:4;stroke-dasharray:none;stroke-dashoffset:0;stroke-opacity:1;visibility:visible;display:inline;overflow:visible;enable-background:accumulate"/>
    <path transform="translate(180.274292 -25.507971)" d="m67.5 359.36218-9.592293-7.39289-9.811309 7.09966 4.06688-11.40734-9.78404-7.1372 12.105762.34277 3.764439-11.51069 3.414894 11.61919 12.110591.0232-9.995242 6.83828L67.5 359.36218z" style="opacity:1;color:#000;fill:#fff;fill-opacity:1;fill-rule:nonzero;stroke:none;stroke-width:.995;stroke-linecap:butt;stroke-linejoin:round;marker:none;marker-start:none;marker-mid:none;marker-end:none;stroke-miterlimit:4;stroke-dasharray:none;stroke-dashoffset:0;stroke-opacity:1;visibility:visible;display:inline;overflow:visible;enable-background:accumulate"/>
    <path transform="translate(287.274292 -26.007971)" d="m67.5 359.36218-9.592293-7.39289-9.811309 7.09966 4.06688-11.40734-9.78404-7.1372 12.105762.34277 3.764439-11.51069 3.414894 11.61919 12.110591.0232-9.995242 6.83828L67.5 359.36218z" style="opacity:1;color:#000;fill:#fff;fill-opacity:1;fill-rule:nonzero;stroke:none;stroke-width:.995;stroke-linecap:butt;stroke-linejoin:round;marker:none;marker-start:none;marker-mid:none;marker-end:none;stroke-miterlimit:4;stroke-dasharray:none;stroke-dashoffset:0;stroke-opacity:1;visibility:visible;display:inline;overflow:visible;enable-background:accumulate"/>
    <path transform="translate(394.774292 -25.507971)" d="m67.5 359.36218-9.592293-7.39289-9.811309 7.09966 4.06688-11.40734-9.78404-7.1372 12.105762.34277 3.764439-11.51069 3.414894 11.61919 12.110591.0232-9.995242 6.83828L67.5 359.36218z" style="opacity:1;color:#000;fill:#fff;fill-opacity:1;fill-rule:nonzero;stroke:none;stroke-width:.995;stroke-linecap:butt;stroke-linejoin:round;marker:none;marker-start:none;marker-mid:none;marker-end:none;stroke-miterlimit:4;stroke-dasharray:none;stroke-dashoffset:0;stroke-opacity:1;visibility:visible;display:inline;overflow:visible;enable-background:accumulate"/>
    <path transform="translate(503.274292 -26.007971)" d="m67.5 359.36218-9.592293-7.39289-9.811309 7.09966 4.06688-11.40734-9.78404-7.1372 12.105762.34277 3.764439-11.51069 3.414894 11.61919 12.110591.0232-9.995242 6.83828L67.5 359.36218z" style="opacity:1;color:#000;fill:#fff;fill-opacity:1;fill-rule:nonzero;stroke:none;stroke-width:.995;stroke-linecap:butt;stroke-linejoin:round;marker:none;marker-start:none;marker-mid:none;marker-end:none;stroke-miterlimit:4;stroke-dasharray:none;stroke-dashoffset:0;stroke-opacity:1;visibility:visible;display:inline;overflow:visible;enable-background:accumulate"/>
  </g>
  <path style="fill:#000" d="M103.94446 250.0817c-8.141095-2.9023-12.375446-6.84272-13.972224-13.00235-1.393308-5.37478 1.66219-28.39078 4.463686-33.62327 1.706063-3.18647 11.097348-8.47894 15.210038-8.57164 1.61121-.03628 1.51099-.46342-.36623-1.56122-1.5839-.92626-6.99427-.87654-13.976973.12844-6.266009.90185-13.797592 1.20105-16.736868.66492-5.167683-.9426-5.344139-1.24016-5.344139-9.01167 0-4.42029-.663462-9.78123-1.474374-11.91321-2.402691-6.31697 1.667355-13.43199 9.9301-17.35926 13.716264-6.5193 18.020564-4.70324 10.376161 4.37787l-4.325085 5.13797h7.075934c6.218094 0 6.783574.29226 4.664344 2.41062-1.326378 1.32581-5.36972 3.53024-8.985203 4.89868l-6.573602 2.4881 8.221752-1.11235c15.463633-2.09209 22.628513-1.11996 26.710943 3.62418 4.80406 5.58277 4.68786 7.12066-1.1936 15.79682-3.63964 5.36912-4.90428 9.13896-4.90758 14.62949l-.00447 7.39655 6.68519-14.79308c4.59249-10.1623 6.77218-17.36572 6.96304-23.01146l.27782-8.21837-11.11085-.48629c-9.77467-.42779-11.43603-.98233-13.81482-4.61137-2.894949-4.41642-3.816772-16.74639-1.79175-23.96578 1.01227-3.60886.62256-4.60309-2.148957-5.48238-1.99287-.63226-3.170916-2.1995-2.863866-3.81005.413621-2.16959 2.815967-2.83662 11.603973-3.22203 6.09528-.26731 11.08235-1.07824 11.08235-1.80206 0-.72383-1.18714-3.69476-2.6381-6.60205-1.45094-2.90731-2.24013-5.6838-1.75375-6.16998 1.60672-1.60606 4.39233 1.22077 7.81876 7.93439 1.85896 3.64234 3.70069 6.30181 4.09276 5.90991 1.98224-1.98144-1.88808-16.80885-5.69687-21.82497-2.35913-3.10694-5.45236-7.270209-6.87387-9.251676-3.29695-4.595781-6.45937-2.745622-6.45937 3.779021 0 3.575245.91473 5.227025 3.22978 5.832155 2.91773.7627 2.98343 1.0905.68008 3.39291-1.46133 1.46073-2.22892 4.22587-1.79822 6.47795 1.17625 6.15068-4.25695 4.03148-6.15223-2.39965-1.21895-4.13622-2.25358-5.12557-4.586221-4.38553-2.587352.82086-2.857206.29965-1.913432-3.69563.925934-3.91973.74208-4.31113-1.169-2.48859-1.442095 1.37528-2.26774 5.80538-2.26774 12.16791 0 6.1718-.737952 10.25985-1.926045 10.66969-1.244246.42923-1.638528-.67796-1.113816-3.12769.751139-3.5068.481335-3.4211-3.585637 1.13889l-4.39788 4.93101 1.24655-5.75286c1.601711-7.39184 1.567114-13.63607-.096869-17.48926-.725998-1.68117-1.159778-4.35107-.963936-5.933113.496414-4.010106-2.42341-3.589145-5.700171.821843l-2.747332 3.69826.855786-3.69826c1.128847-4.878318-2.7361-4.906753-6.142667-.045191L65 103.62006V100.064c0-1.955841.739957-4.013213 1.644351-4.571932.904392-.558718 1.644349-2.698047 1.644349-4.75408 0-2.05603.51238-4.2504 1.138614-4.876378 1.977002-1.976194 2.264007-7.975915.484097-10.119699-1.278203-1.539505-.622059-2.334125 2.593485-3.14084 2.877464-.721903 3.999536-1.87452 3.384499-3.476628-.548719-1.429332.054644-2.396689 1.494831-2.396689 1.328206 0 2.414925-1.065827 2.414925-2.368507 0-3.431546 3.411302-5.01414 5.091714-2.362179 1.002214 1.581648 1.442934.763578 1.460512-2.711043.013845-2.736919 1.3103-6.805015 2.881016-9.040215l2.85584-4.063997.843947 4.795425c1.138088 6.466737 3.570921 6.852688 6.85281 1.087148 3.54511-6.227928 9.38255-9.941718 17.2492-10.973978l6.34023-.831963-5.21465 2.417002c-2.86808 1.32935-6.01413 3.910203-6.99125 5.735225-1.66119 3.10267-1.37584 3.268492 4.39249 2.55264l6.16907-.765585-5.26904 2.774806c-5.20448 2.740808-9.08652 7.8533-4.67965 6.162919 3.09037-1.185397 5.11869 2.701499 2.34869 4.500816-1.80449 1.172152-1.4287 2.122204 1.84477 4.663922l4.11088 3.191918.49659-9.072175c.46015-8.4063.85605-9.197433 5.3941-10.778756 2.69363-.938619 6.02768-3.891199 7.40901-6.561289 2.99429-5.787942 8.82563-5.869261 11.33266-.158036.88631 2.019086 4.40111 4.786798 7.81067 6.150472 5.80161 2.320392 6.19919 2.925388 6.19919 9.433148 0 6.484393.15802 6.728221 2.34124 3.612514 2.28998-3.26804 25.01598-15.470661 28.81235-15.470661 1.05535 0 4.02618 2.30634 6.60188 5.1252 5.03935 5.515127 8.55303 5.289461 7.05077-.452835-.7107-2.716614-.38712-3.232862 1.38763-2.213864 5.56992 3.198024 8.06969 6.588692 8.06969 10.945652 0 3.738879.74165 4.686297 3.69978 4.72626 3.30417.044636 3.39209.229133.82219 1.725349-3.99665 2.326878-3.59639 4.799369.77696 4.799369h3.65457l-3.72101 2.605237c-2.54705 1.78329-3.40571 3.598306-2.7216 5.752865.60051 1.891267.22232 3.147626-.9475 3.147626-1.13584 0-1.58951 1.366275-1.089 3.279532.7262 2.77582.25054 3.127136-3.0969 2.287325-3.75952-.94319-3.95489-.60806-3.95489 6.783779 0 6.33972-.40982 7.43601-2.21876 5.93533-1.75826-1.45862-2.74143-.51067-4.73679 4.56693-1.3849 3.52419-4.13114 7.27057-6.10273 8.3253-3.53384 1.89047-3.54866 1.84797-1.04328-2.99487 2.21881-4.28898 2.24768-5.60714.22742-10.38417l-2.31399-5.471595-1.63432 4.265045c-1.81709 4.742-6.23727 9.7062-8.6425 9.7062-.86064 0-.3376-1.87222 1.16234-4.16049 4.22884-6.45135 1.3947-6.74701-5.65368-.58981-5.18859 4.53258-13.44116 17.06334-13.44116 20.40918 0 .42783 5.54969.77787 12.33262.77787 13.32144 0 14.65548 1.11487 8.58956 7.17831-3.08502 3.08375-3.5297 4.73215-2.52944 9.37642 1.46299 6.79263.16948 15.79591-2.99388 20.83889-2.01246 3.2082-3.71388 3.69827-12.83959 3.69827-10.24709 0-10.54661.12233-11.55685 4.72005-1.30387 5.93405.13353 11.95785 5.33392 22.35318 2.24819 4.49402 5.05003 10.78108 6.2263 13.97123l2.13868 5.80028.11587-7.30819c.08142-5.1361-1.05706-9.04428-3.83051-13.1494-6.13105-9.07483-6.55625-12.31475-2.26987-17.29591 4.1549-4.82838 11.31375-5.80878 26.77061-3.6662l8.22175 1.13967-7.26375-2.87144c-9.5152-3.76145-10.64631-6.98062-2.45273-6.98062h6.17888l-3.57535-3.80421c-1.96643-2.09231-3.57532-5.36911-3.57532-7.28179 0-3.09151.55414-3.31875 4.99139-2.04669 13.23892 3.79533 21.98923 13.95528 18.16721 21.09387-.98014 1.83065-1.78205 7.0418-1.78205 11.58038 0 8.01415-.15401 8.28005-5.34414 9.22674-2.93928.53613-10.40087.24683-16.58133-.6429-14.4138-2.07499-18.89973-.60409-9.12782 2.99295 8.7162 3.20843 11.93292 8.90586 14.37742 25.46527 2.54219 17.22102-1.86868 25.00448-16.39471 28.93037-4.25899 1.15104-9.88873.9165-19.90363-.82925-12.33016-2.14931-15.45345-2.14956-26.68178-.0021-15.11705 2.89117-14.84782 2.89059-22.81366.05078zm35.87347-2.89217c4.52196.06542 15.12356.35416 23.55909.64164l15.33735.52272 4.80595-5.3679c4.85553-5.42325 6.12397-12.56165 3.78306-21.2901-.96886-3.6126-1.0228-3.60169-5.79676 1.17027-6.0037 6.00125-14.40435 7.69652-25.19523 5.0845-14.83382-3.59063-19.91577-3.79412-27.81415-1.11363-13.65875 4.63535-25.81518 2.34856-32.514626-6.11647-2.658666-3.35932-2.756424-3.24609-3.925574 4.54711-1.540837 10.27084.372841 15.46029 7.49602 20.32737 5.32784 3.6404 6.66426 3.83121 18.88833 2.69658 7.23513-.67156 16.85457-1.16749 21.37654-1.10209zm-11.08976-22.54266c2.14963-1.25169.08781-1.68252-8.23135-1.71997-6.10465-.0275-11.10026-.60473-11.10133-1.28275-.00108-.67801 13.50315-1.05123 30.00939-.82934 21.79082.29291 29.20812-.07553 27.0789-1.34512-1.84871-1.10232-12.57846-1.55512-29.03332-1.22523-14.35547.28778-25.78585.01605-25.40085-.60385 1.0225-1.64641-9.53711 1.59891-11.46148 3.52248-1.07921 1.07877.27498 2.4905 3.99996 4.16989 6.00092 2.70553 18.9473 2.33756 24.14008-.68611zm45.67393.77943c6.6727-2.78689 7.29107-5.0818 1.74429-6.47338-2.17696-.54616-5.32177-1.50953-6.98848-2.14081-2.82677-1.0707-2.81638-.93312.15466 2.04758 3.15323 3.1635 3.06297 3.20389-9.04392 4.04809-11.87599.8281-12.06286.90685-6.47374 2.72818 8.04554 2.62185 13.97202 2.56154 20.60719-.20966zm-43.25465-21.86257c-.42735-7.00617-1.26812-13.65867-1.86838-14.78333-1.22601-2.297-10.01552 18.94307-10.01552 24.20271 0 2.75492 1.07605 3.3191 6.33044 3.3191h6.33045l-.77699-12.73848zm15.11844 5.75286c2.19495-17.14643 11.02076-151.194853 10.11081-153.565169-.55817-1.45397-1.46918-2.189443-2.02448-1.634386-.55527.55506-3.41143 21.925974-6.34699 47.490915-6.25834 54.50186-6.99706 52.87968-2.38062-5.227557 1.82857-23.01598 2.95823-42.801722 2.51038-43.968315-.94396-2.458895-15.0007-2.9651-16.46733-.593013-.51964.840436.54315 20.25635 2.36173 43.146485 4.57875 57.63184 3.87519 59.40594-2.33145 5.87908-2.90819-25.080759-5.76831-46.081847-6.35578-46.669086-.58748-.587237-1.48502.01819-1.99451 1.345394-.81603 2.125679 7.44625 126.601082 10.04482 151.330142.99002 9.42146 1.01039 9.45113 6.48615 9.45113 5.22588 0 5.53652-.33974 6.38727-6.98562zm-8.59392-57.93956c-.03351-2.71206.30759-4.02053.75804-2.90771.45041 1.11281.47781 3.33177.06091 4.93103-.4169 1.59925-.78544.68874-.81895-2.02332zm22.56195 58.7614c-1.67405-7.1998-9.56445-26.65658-9.83186-24.24421-.10021.90402-.67686 8.11564-1.28141 16.02583l-1.0992 14.38216h13.64563l-1.43316-6.16378zm-41.2886-25.43679c.72237-8.58485-2.50572-9.76843-25.003229-9.16734l-18.635174.49786-.191072 7.81884-.191058 7.81885 21.758287-.48962 21.758316-.48961.50393-5.98898zm85.8092-.87242-.01523-7.79706-19.069-.50806c-16.17148-.43088-19.54227-.07997-22.1835 2.30932-2.7421 2.48058-4.31036 10.42843-2.42836 12.30696.37736.37667 10.36678.86509 22.19872 1.08538l21.51262.4005-.01525-7.79704zm-77.26922-19.30279c0-1.35603-1.29492-2.55131-2.8776-2.65617-2.74059-.1816-2.74059-.22647 0-.94235 1.93049-.50429 2.8776-2.36765 2.8776-5.66144 0-4.66661-.30463-4.88446-6.15263-4.39956-4.2999.3565-6.31685 1.37631-6.69798 3.38655-.41072 2.16646.60058 2.90954 4.09721 3.01052l4.64252.13408-5.13768 2.25195c-2.82574 1.23856-5.57736 3.39718-6.11472 4.79694-.80122 2.08712.49295 2.545 7.19316 2.545 6.16609 0 8.17012-.60476 8.17012-2.46552zm35.42254.71022c.59692-.96544 3.63693-1.53557 6.7556-1.26699 3.64866.31422 6.21865-.37851 7.20832-1.94296 2.95627-4.6732 1.69708-6.53636-4.57792-6.77372l-6.16631-.23325 6.5774-1.17718c5.31126-.95057 3.96596-1.22208-6.98848-1.41042l-13.5659-.23326v5.75287c0 3.49308.80741 5.76275 2.05544 5.77804 1.37029.01676 1.23327.55627-.41108 1.6185-1.87681 1.21241-1.21204 1.59935 2.78055 1.6185 2.88591.01384 5.73549-.76472 6.33238-1.73013zm15.55231-18.79064c0-4.03197-.22403-4.10374-11.92154-3.81894l-11.92154.29026 11.51046 1.06315c8.04193.74281 9.77619 1.23735 5.75522 1.64114-3.16536.31787-8.53007.39858-11.92154.17934-4.67251-.30206-6.1663.22551-6.1663 2.1778 0 2.11045 2.23055 2.57644 12.33262 2.57644 12.05856 0 12.33262-.09132 12.33262-4.10919zm-52.9298-.39826c-.3152-1.63608-2.65789-3.31429-5.4647-3.91472l-4.91298-1.05095 4.47036-.19446c6.41107-.27889 4.1652-4.6216-2.81113-5.43572-4.80266-.56046-5.32015-.27697-3.99896 2.19068.83465 1.55894 1.51757 4.73221 1.51757 7.05169 0 3.74042.66437 4.21725 5.87578 4.21725 4.70098 0 5.76549-.57259 5.32406-2.86377zm46.76349-6.54363c-2.93927-.36462-7.749-.36462-10.68826 0-2.93929.36459-.53443.66294 5.34412.66294 5.87855 0 8.28342-.29835 5.34414-.66294zm-3.28869-4.902c-2.03489-.39176-5.36471-.39176-7.39957 0-2.03489.39177-.36999.71232 3.69978.71232 4.06975 0 5.73467-.32055 3.69979-.71232zm-50.97485-3.28735c-2.03489-.39176-5.3647-.39176-7.39958 0-2.03488.39177-.36998.71232 3.69979.71232 4.06976 0 5.73466-.32055 3.69979-.71232zm54.28616.00296c-2.02245-.39014-5.72224-.40024-8.22176-.02244-2.49951.37782-.84478.69702 3.67717.70936 4.52197.01235 6.56705-.29677 4.54459-.68692zm-11.07206-13.22512c3.49349-5.19813 7.10889-10.56062 8.03423-11.91665.92535-1.35604-.14506-.9115-2.37868.98783-2.23363 1.89933-5.52361 3.97445-7.31112 4.61136-3.17552 1.13148-3.17303 1.07114.10751-2.63151 1.84663-2.08422 4.64798-6.00849 6.2252-8.72055l2.8677-4.931022-3.31572 4.10919c-8.29164 10.275912-9.60058 12.807402-10.41108 20.135022-.47496 4.2941-.70747 7.80746-.51669 7.80746.19078 0 3.20517-4.25302 6.69865-9.45113zm-38.38602-21.821077c-.96317-2.602625-1.79944-3.175335-2.64342-1.810316-.67898 1.098177-.32541 3.091642.78571 4.429923 2.7147 3.26968 3.58369 2.04428 1.85771-2.619607zm45.17035-8.273614c6.46414-2.456651 3.01302-4.687692-4.3582-2.817444-5.89107 1.494699-6.58692 2.203791-6.58692 6.712279v5.041032l3.44661-3.697983c1.89562-2.033888 5.26996-4.390935 7.49851-5.237884zm-45.47648-6.30123c0-2.922515-1.05657-5.160453-2.7415-5.80675-4.70972-1.806554-5.71611 1.554685-1.81312 6.055727 4.6931 5.412211 4.55462 5.419779 4.55462-.248977zm40.28997-6.157459c2.18483-.838054 2.29518-1.331715.54558-2.440344-3.24127-2.053789-4.65985-1.741629-4.65985 1.025408 0 2.783408.28821 2.882526 4.11427 1.414936zm-.51725-6.646942c-1.18702-.47481-2.60526-.416415-3.15168.129763-.54639.546181.42481.934662 2.15822.863291 1.91558-.07887 2.30521-.468349.99346-.993054zm16.13518-8.739235c-5.6223-1.799842-9.9454-1.799842-5.75522 0 1.80879.776943 4.76862 1.390882 6.5774 1.364308 2.64377-.038841 2.48253-.306391-.82218-1.364308zm-34.53134-12.820668c0-1.673209-3.54857-5.259761-5.20408-5.259761-.69168 0-2.04965 1.479309-3.01768 3.287351-1.58036 2.951729-1.25051 3.28735 3.23086 3.28735 2.74499 0 4.9909-.591723 4.9909-1.31494z" transform="translate(-42.648628 -31.010811)"/>
</svg>
