<?xml version="1.0" encoding="UTF-8"?>
<!-- Created with Inkscape (http://www.inkscape.org/) -->
<svg id="svg2" width="1e3" height="600" version="1.0" xmlns="http://www.w3.org/2000/svg" xmlns:cc="http://creativecommons.org/ns#" xmlns:dc="http://purl.org/dc/elements/1.1/" xmlns:rdf="http://www.w3.org/1999/02/22-rdf-syntax-ns#">
 <metadata id="metadata7">
  <rdf:RDF>
   <cc:Work rdf:about="">
    <dc:format>image/svg+xml</dc:format>
    <dc:type rdf:resource="http://purl.org/dc/dcmitype/StillImage"/>
   </cc:Work>
  </rdf:RDF>
 </metadata>
 <g id="layer1" transform="translate(-8,-465.36218)">
  <rect id="rect4611" x="8" y="465" width="1e3" height="601" color="#000000" fill="#008033"/>
  <path id="path4617" d="m158 465.36218 850 500v-500z" fill="#000000" fill-rule="evenodd"/>
  <path id="path5588" d="M 858,1065.3622 8.0000003,565.36218 8,1065.3622 Z" fill="#800000" fill-rule="evenodd"/>
  <g id="g5599" transform="matrix(1.4085898,0,0,1.3774905,-10.857573,483.08318)" fill="#ffffff">
   <path id="path5591" transform="matrix(.72937 .49228 -.49228 .72937 240.71928 -274.84311)" d="m603 35.362182-21.61487 0.557096-7.9342 20.113712-7.20919-20.384811-21.58108-1.330394 17.15934-13.155602-5.40364-20.93594172 17.81425 12.25420172 18.24145-11.60872843-6.14954 20.72911543z" color="#000000"/>
   <path id="path5593" transform="matrix(.72937 .49228 -.49228 .72937 240.9663 -193.26025)" d="m603 35.362182-21.61487 0.557096-7.9342 20.113712-7.20919-20.384811-21.58108-1.330394 17.15934-13.155602-5.40364-20.93594172 17.81425 12.25420172 18.24145-11.60872843-6.14954 20.72911543z" color="#000000"/>
   <path id="path5595" transform="matrix(.72937 .49228 -.49228 .72937 200.9663 -233.26025)" d="m603 35.362182-21.61487 0.557096-7.9342 20.113712-7.20919-20.384811-21.58108-1.330394 17.15934-13.155602-5.40364-20.93594172 17.81425 12.25420172 18.24145-11.60872843-6.14954 20.72911543z" color="#000000"/>
   <path id="path5597" transform="matrix(.72937 .49228 -.49228 .72937 280.9663 -234.26025)" d="m603 35.362182-21.61487 0.557096-7.9342 20.113712-7.20919-20.384811-21.58108-1.330394 17.15934-13.155602-5.40364-20.93594172 17.81425 12.25420172 18.24145-11.60872843-6.14954 20.72911543z" color="#000000"/>
  </g>
  <g id="g1784" transform="translate(-9.1700462,6.69626)">
   <path id="path3234" d="m500.22701 993.5223c-0.79065-0.78879-17.06815-3.15626-29.32732-4.26549-3.52367-0.31882-6.40667-1.49146-6.40667-2.60585 0-1.11436-2.14445-1.21129-4.76545-0.21538-3.60032 1.36805-4.32154 0.66535-2.94989-2.8742 0.99856-2.57671 0.9007-4.54993-0.21751-4.38488-6.03106 0.89012-8.79011-0.83929-7.3339-4.59702 0.90147-2.3261 0.32733-4.2293-1.27578-4.2293-1.60312 0-3.41312 1.48049-4.02224 3.28995-0.67559 2.007-3.54406 0.70017-7.35579-3.35117-3.4366-3.65262-6.24832-5.67688-6.24832-4.49832 0 1.17854-2.02531 0.13734-4.50067-2.31379-2.47536-2.45112-5.99903-3.52312-7.83038-2.3822-2.25901 1.40739-1.7274 2.38883 1.65327 3.05217 2.74063 0.5378 4.96334 3.10513 4.93937 5.70522-0.0377 4.08267-0.42008 4.15061-2.80381 0.49814-1.51813-2.3261-2.77984-3.03519-2.80383-1.57575-0.024 1.45945-1.77118 0.31403-3.88274-2.54541-2.11152-2.8594-5.31486-4.29579-7.11851-3.19202-1.80365 1.10382-3.27935 0.52751-3.27935-1.28066 0-1.80816-1.60842-2.67644-3.57424-1.92946-4.72592 1.79577-10.00078-4.01637-8.41723-9.27445 0.71905-2.38764-0.67013-1.75933-3.25197 1.47081-2.69926 3.37702-4.54364 4.17799-4.59788 1.99677-0.0498-2.00327-2.6532-6.36607-5.78535-9.69512-3.13215-3.32909-5.69482-7.08238-5.69482-8.34071 0-1.25832 2.56267 0.2497 5.69482 3.35117 6.03121 5.97217 11.38962 7.38806 11.38962 3.00954 0-1.44624-2.56266-3.43492-5.6948-4.4193-3.13215-0.98438-5.69482-2.97305-5.69482-4.4193 0-3.93358-7.88319-3.1722-9.26561 0.89488-0.95179 2.80034-2.10577 2.78264-5.61675-0.0861-5.54719-4.53245-8.11442-16.84672-3.9238-18.82133 1.72997-0.81515 0.46502-0.8376-2.81102-0.0498-4.12878 0.99278-9.10771-1.51069-16.22676-8.15908-5.64869-5.27526-9.41401-10.43929-8.36739-11.47565 1.04663-1.03638-0.0922-1.12621-2.53069-0.19962-3.01863 1.147-6.68531-1.73004-11.48866-9.01445-5.77237-8.75401-6.65066-12.49324-4.83082-20.56751 1.22329-5.42759 1.43372-11.77154 0.4676-14.09764-0.96614-2.32612-2.08271-5.49808-2.4813-7.04882-2.87243-11.17567-5.84135-15.11344-9.64158-12.78779-3.07644 1.88277-3.28527 3.42368-0.85667 6.32136 1.76632 2.10744 4.60774 7.46818 6.31428 11.91276 2.75396 7.17252 2.60466 7.67171-1.32781 4.44-2.43683-2.0026-3.79277-4.27271-3.01315-5.04469 0.77962-0.77199-0.35699-4.71473-2.52582-8.7617-4.9446-9.22649-9.84781-22.34809-11.44162-30.61919-0.90133-4.67735 0.12381-6.34394 3.90209-6.34394 4.20489 0 5.12456-2.36943 5.12456-13.20299 0-13.11407-0.0342-13.16114-5.0822-6.98824-3.15615 3.85958-5.79262 5.07649-6.95685 3.21115-1.03109-1.65199-0.49418-4.65079 1.1931-6.66396 1.68732-2.0132 2.11796-4.69734 0.957-5.9648-1.16095-1.26744 0.11323-1.51466 2.83154-0.54936 3.9112 1.3889 4.82125 0.30609 4.36192-5.18983-0.69156-8.27414-0.49637-8.21503-6.73377-2.03865-4.7081 4.66197-4.85387 4.50816-2.9282-3.08925 1.22889-4.84828 0.72029-9.55406-1.2921-11.95506-2.1575-2.57424-2.26903-3.95961-0.31873-3.95961 1.76325 0 2.6525-4.93982 2.15713-11.98299-0.46353-6.59066 0.46602-13.62116 2.06564-15.6233 1.5996-2.00219 3.21693-8.34613 3.59404-14.09765 0.56325-8.5904 1.74696-10.4182 6.63029-10.238 4.57222 0.16872 7.76229-3.67915 13.81748-16.66666 4.33004-9.28734 7.55247-17.63318 7.16094-18.54631-1.6982-3.96073-6.91192-1.03827-12.12829 6.79831-7.25764 10.90306-7.38436 5.64137-0.14719-6.11141 3.02475-4.91205 7.05404-14.06876 8.95404-20.34827 4.20211-13.88807 15.534-24.38685 26.10069-24.18179 8.26839 0.16046 10.11187-3.77193 4.41348-9.41452-2.65756-2.63155-2.65756-3.38344 0-3.38344 1.87929 0 3.41689-1.26878 3.41689-2.81952 0-3.74142 10.58211-14.09765 14.40509-14.09765 1.68392 0 2.04689-1.55624 0.82196-3.52442-1.2064-1.93842 1.28065-1.27479 5.52679 1.47475 4.2461 2.74956 7.72023 4.33554 7.72023 3.52442 0-3.44805-1.57147-5.65527-3.55927-4.99917-1.17454 0.38769-2.13555-1.15849-2.13555-3.43593 0-2.70376 1.64438-3.51596 4.73821-2.34038 3.18593 1.21059 4.06373 0.71973 2.67938-1.49825-1.19706-1.91792-0.39204-3.29867 1.92325-3.29867 2.19014 0 5.44162-3.17197 7.22552-7.04883 1.78387-3.87685 5.05578-7.04882 7.2709-7.04882 2.21514 0 4.73815-1.83368 5.60667-4.07484 1.19918-3.09446 3.63032-3.49237 10.10449-1.65375 7.30831 2.07547 9.16824 1.44964 13.02821-4.38375 2.47652-3.74267 6.39524-6.80484 8.70826-6.80484 2.31299 0 4.20547-1.12082 4.20547-2.49068 0-1.36988 2.56267-3.15427 5.69481-3.96535 3.26012-0.84419 5.71346-0.0807 5.73842 1.78581 0.0289 2.15748 0.75129 2.2737 2.13554 0.34359 1.15058-1.60429 4.65463-2.87307 7.78678-2.81952 3.13214 0.0536 6.55042-1.07753 7.5962-2.51341 1.04576-1.43595 4.4423-2.99475 7.54785-3.46406 4.43198-0.66975 5.32131 0.37793 4.13472 4.87099-1.31173 4.96694-0.42668 5.54918 6.68921 4.40079 4.51049-0.72795 9.93963-1.42785 12.0648-1.55537 2.13281-0.12798 3.16712-2.02984 2.30864-4.24508-1.45843-3.76346 9.23464-9.37455 16.60671-8.71418 10.80811 0.96811 18.15334 4.72319 16.67928 8.52685-0.93377 2.40959 0.0196 4.29941 2.23606 4.43241 2.12517 0.12755 7.55432 0.82742 12.0648 1.55537 7.11592 1.14839 8.00095 0.56615 6.68923-4.40079-1.1866-4.49306-0.29728-5.54074 4.13471-4.87099 3.10557 0.46931 6.50208 2.02811 7.54784 3.46406 1.04578 1.43588 4.46407 2.56692 7.5962 2.51341 3.13216-0.0536 6.6362 1.21523 7.78678 2.81952 1.38427 1.93011 2.1067 1.81389 2.13557-0.34359 0.0249-1.86649 2.47829-2.63 5.7384-1.78581 3.13215 0.81108 5.69482 2.59547 5.69482 3.96535 0 1.36986 1.89247 2.49068 4.20548 2.49068 2.31299 0 6.23171 3.06217 8.70823 6.80484 3.85999 5.83339 5.7199 6.45922 13.02821 4.38375 6.47418-1.83862 8.90532-1.44071 10.10451 1.65375 0.8685 2.24116 3.39151 4.07484 5.60665 4.07484 2.21515 0 5.48703 3.17197 7.27092 7.04882 1.78389 3.87686 5.03538 7.04883 7.22552 7.04883 2.31527 0 3.1203 1.38075 1.92323 3.29867-1.38433 2.21798-0.50655 2.70884 2.6794 1.49825 3.09382-1.17558 4.7382-0.36338 4.7382 2.34038 0 2.27744-0.961 3.99056-2.13556 3.80692-4.70899-0.73622-6.65331 0.47722-5.00252 3.1221 1.05709 1.69366 4.71253 0.86357 9.31199-2.11464 4.16447-2.69658 6.58468-3.31687 5.37828-1.37845-1.22491 1.96818-0.86196 3.52442 0.82196 3.52442 3.82298 0 14.40509 10.35623 14.40509 14.09765 0 1.55074 1.53761 2.81952 3.41689 2.81952 2.65757 0 2.65757 0.75189 0 3.38344-5.69836 5.64259-3.8549 9.57498 4.41349 9.41452 10.56668-0.20506 21.89857 10.29372 26.10069 24.18179 1.89999 6.27951 5.9293 15.43622 8.95404 20.34827 7.23716 11.75278 7.11047 17.01447-0.14717 6.11141-5.5586-8.35066-11.25457-11.12251-11.58783-5.63906-0.0943 1.55075 3.12817 9.89657 7.16092 18.5463 5.58256 11.97375 8.75095 15.67442 13.27701 15.50742 4.88333-0.1802 6.06706 1.6476 6.63031 10.238 0.37709 5.75152 1.99443 12.09546 3.59405 14.09765 1.5996 2.00214 2.52914 9.03264 2.06562 15.6233-0.49537 7.04317 0.39387 11.98299 2.15713 11.98299 1.95032 0 1.83878 1.38537-0.31872 3.95961-2.01239 2.401-2.52099 7.10678-1.29211 11.95506 1.92567 7.59741 1.77989 7.75122-2.92818 3.08925-6.23743-6.17638-6.04223-6.23549-6.73378 2.03865-0.45935 5.49592 0.45072 6.57873 4.3619 5.18983 2.71831-0.9653 3.9925-0.71808 2.83156 0.54936-1.16098 1.26746-0.73033 3.9516 0.95698 5.9648 1.68728 2.01317 2.22419 5.01197 1.19313 6.66396-1.16425 1.86534-3.80073 0.64843-6.95688-3.21115-5.04796-6.1729-5.08219-6.12583-5.08219 6.98824 0 10.83356 0.91969 13.20299 5.12457 13.20299 3.77827 0 4.8034 1.66659 3.90207 6.34394-1.5938 8.2711-6.497 21.3927-11.44161 30.61919-2.16884 4.04697-3.30544 7.98971-2.52582 8.7617 0.77962 0.77198-0.57633 3.04209-3.01316 5.04469-3.93247 3.23171-4.08175 2.73252-1.3278-4.44 1.70654-4.44458 4.54795-9.80532 6.31427-11.91276 2.4286-2.89768 2.21979-4.43859-0.85667-6.32136-3.80021-2.32565-6.76914 1.61212-9.64158 12.78779-0.39859 1.55074-1.51516 4.7227-2.48129 7.04882-0.96613 2.3261-0.7557 8.67005 0.4676 14.09764 1.81983 8.07427 0.94157 11.8135-4.83083 20.56751-4.80333 7.28441-8.47003 10.16145-11.48864 9.01445-2.43849-0.92659-3.57732-0.83676-2.5307 0.19962 1.04661 1.03636-2.71871 6.20039-8.36738 11.47565-7.11907 6.64839-12.09798 9.15186-16.22678 8.15908-3.27603-0.78774-4.54098-0.76529-2.81102 0.0498 4.19062 1.97461 1.6234 14.28888-3.92377 18.82133-3.511 2.86874-4.66497 2.88643-5.61678 0.0861-1.3824-4.06708-9.26559-4.82846-9.26559-0.89488 0 1.44625-2.56267 3.43492-5.69482 4.4193s-5.69482 2.97306-5.69482 4.4193c0 4.37852 5.35843 2.96263 11.38964-3.00954 3.13213-3.10147 5.69481-4.60949 5.69481-3.35117 0 1.25833-2.56268 5.01162-5.69481 8.34071-3.13217 3.32905-5.73557 7.69185-5.78537 9.69512-0.0545 2.19074-1.9093 1.39499-4.6542-1.99677-2.61864-3.23575-3.94566-3.83025-3.11361-1.39494 1.72633 5.05302-3.63459 10.75928-8.57588 9.12828-1.92367-0.63492-3.4976 0.29497-3.4976 2.06645 0 1.77151-1.47573 2.31779-3.27938 1.21397-1.80364-1.10377-5.00699 0.33262-7.11851 3.19202-2.11154 2.85944-3.85877 4.00486-3.88274 2.54541-0.024-1.45944-1.28569-0.75035-2.80382 1.57575-2.38374 3.65247-2.76614 3.58453-2.80381-0.49814-0.024-2.60009 2.19873-5.16742 4.93936-5.70522 3.38068-0.66334 3.91229-1.64478 1.65327-3.05217-1.83133-1.14092-5.35502-0.0689-7.83037 2.3822-2.47537 2.45113-4.50068 3.49233-4.50068 2.31379 0-1.17856-2.81172 0.8457-6.2483 4.49832-3.81174 4.05134-6.68019 5.35817-7.35581 3.35117-0.60911-1.80946-2.41912-3.28995-4.02224-3.28995-1.60311 0-2.17724 1.9032-1.27578 4.2293 1.45623 3.75773-1.30283 5.48714-7.3339 4.59702-1.11821-0.16505-1.21606 1.80817-0.2175 4.38488 1.37165 3.53955 0.65042 4.24225-2.94989 2.8742-2.62101-0.99591-4.76545-0.89898-4.76545 0.21538 0 1.11439-2.88299 2.28703-6.40666 2.60585-3.52366 0.31882-11.532 1.31518-17.79629 2.21411-12.86302 1.8459-44.20417 3.26147-45.4171 2.05138zm1.2823-10.7859c0-0.60943-1.92201-1.1081-4.27112-1.1081-2.34909 0-4.27111 1.22898-4.27111 2.73105 0 1.50206 1.92202 2.00071 4.27111 1.10811 2.34911-0.89263 4.27112-2.12158 4.27112-2.73106zm39.86368 1.71144c0-1.55075-2.24233-2.80011-4.98296-2.77636-4.25843 0.0369-4.36194 0.44057-0.71185 2.77636 5.37366 3.43873 5.69481 3.43873 5.69481 0zm15.66075-12.09782c3.13214-0.51493 8.68755-2.54713 12.34534-4.516 3.6578-1.96888 7.37843-2.85902 8.26808-1.97804 2.1966 2.17505 50.9005-23.45941 59.41237-31.27071 3.75106-3.44231 6.8201-5.69336 6.8201-5.00227 0 1.62785 13.25606-9.52663 21.29932-17.92265 3.43986-3.59068 9.3444-13.39703 13.12119-21.79189 5.27411-11.72302 8.00511-14.91158 11.77414-13.74684 3.81459 1.17884 6.96766-2.75816 14.1608-17.68153 5.08947-10.55892 9.39522-19.83243 9.56837-20.60781 0.17316-0.77537 1.71686-4.74115 3.43042-8.8129 6.86679-16.31663 12.45028-46.10152 12.35453-65.90464-0.0593-12.27023-4.04984-44.39079-6.65542-53.57108-1.76055-6.20296-3.33299-11.9125-3.49434-12.68787-1.66863-8.01972-13.22606-32.73613-21.09467-45.11248-9.1314-14.36261-13.46071-19.89464-26.70212-34.12011-2.74064-2.94434-4.03719-5.35331-2.88123-5.35331 2.31408 0-18.82987-15.35933-21.68305-15.75094-6.26689-0.86013-12.5146-5.74874-16.08535-12.58621-2.274-4.35442-7.03163-8.80788-10.57246-9.8966s-10.28189-4.66585-14.98011-7.94914c-4.69822-3.28331-9.1829-6.08121-9.96592-6.21753-0.78304-0.13637-3.34572-0.94033-5.69482-1.78661-2.34911-0.84625-10.03712-3.10584-17.08445-5.02132-7.04733-1.91544-17.93865-5.0493-24.20295-6.9641-15.04908-4.6-50.2121-3.51099-69.76145 2.16056-8.61342 2.49885-18.86407 5.34872-22.77927 6.33302-3.91517 0.98433-9.04051 2.51885-11.38962 3.41011-2.34911 0.89123-4.91176 1.73199-5.69481 1.86834-0.78304 0.13636-5.2677 2.93422-9.96592 6.21753-4.69822 3.28329-11.4393 6.86042-14.98013 7.94914s-8.29845 5.54218-10.57244 9.8966c-3.57077 6.83747-9.81846 11.72608-16.08534 12.58621-2.85319 0.39161-23.99716 15.75094-21.68307 15.75094 1.15596 0-0.1406 2.40897-2.88123 5.35331-13.24142 14.22547-17.57073 19.7575-26.70213 34.12011-7.8686 12.37635-19.42603 37.09276-21.09467 45.11248-0.16133 0.77537-1.73377 6.48491-3.49434 12.68787-2.60556 9.18029-6.59606 41.30085-6.65541 53.57108-0.0958 19.80312 5.48773 49.58801 12.35453 65.90464 1.71358 4.07175 3.25726 8.03753 3.43041 8.8129 0.17315 0.77538 4.47892 10.04889 9.56837 20.60781 7.19315 14.92337 10.34622 18.86037 14.16082 17.68153 3.76902-1.16474 6.50001 2.02382 11.77412 13.74684 3.77682 8.39486 9.68133 18.20121 13.1212 21.79189 8.04328 8.39602 21.29931 19.5505 21.29931 17.92265 0-0.69109 3.06905 1.55996 6.82011 5.00227 8.51188 7.8113 57.21576 33.44576 59.41237 31.27071 0.88965-0.88098 4.61029-4.3e-4 8.26807 1.95669 3.6578 1.95712 10.40192 3.97712 14.98691 4.48884 4.585 0.51173 8.79041 1.38004 9.34536 1.92956 1.15554 1.14423 59.1314-0.46568 67.74048-1.88105zm-212.94534-74.50204c-2.61012-2.58456-5.47788-3.97418-6.37278-3.08804-0.8949 0.88613 0.50848 3.72579 3.1186 6.31036 2.61013 2.58459 5.47787 3.97423 6.37276 3.08806 0.8949-0.88614-0.50848-3.72581-3.11858-6.31038zm352.15875 0.38618c0.85495-2.20619 0.56962-4.01127-0.63407-4.01127-2.83247 0-9.02235 6.12926-9.02235 8.93401 0 3.51017 7.96118-0.54835 9.65642-4.92274zm-361.79437-13.47019c-9.26412-15.96048-18.02491-23.43888-18.02491-15.38645 0 6.08576 12.43611 21.4512 16.20315 20.01983 2.03278-0.77246 2.85258-2.85745 1.82176-4.63338zm383.45942-15.05488c0-6.70501-5.3907-3.82547-12.6546 6.75963-5.09421 7.42343-6.19767 11.03322-3.81787 12.4896 3.58932 2.19663 16.47247-12.8582 16.47247-19.24923zm-420.28579-119.75217c-0.80655-1.29227-3.38846-2.34959-5.73758-2.34959-2.3491 0-3.61119 1.05732-2.80464 2.34959 0.80659 1.29231 3.38849 2.34964 5.73762 2.34964 2.34911 0 3.6112-1.05733 2.8046-2.34964zm447.72831-0.38829c1.08939-1.07873-0.0793-1.9613-2.59695-1.9613-2.51769 0-5.30002 1.15741-6.18295 2.57202-1.8218 2.9189 5.74707 2.39241 8.7799-0.61072zm-448.16698-11.40634c2.01747 1.23464 2.431-0.43273 1.21941-4.9166-1.00836-3.73167-1.85088-7.73643-1.87225-8.89948-0.0214-1.16307-1.32021-2.11466-2.88627-2.11466-1.56609 0-2.74624 4.75797-2.62261 10.57324 0.12364 5.81529 0.87373 8.97936 1.6669 7.03126 0.79315-1.9481 2.81582-2.70127 4.49482-1.67376zm445.12825-15.26194c-2.35393-2.33087-3.74482-0.28988-6.07948 8.92099-1.47726 5.82825-1.13568 7.59645 1.19228 6.17178 1.79446-1.09821 3.46775-0.33586 3.71837 1.69408 0.25062 2.02997 0.98167-0.55471 1.62453-5.74371 0.64286-5.18898 0.43779-10.1584-0.4557-11.04314zm-440.12516-13.35669c0-3.87684 1.60168-7.06824 3.55927-7.09197 2.37282-0.0288 2.13555-0.95425-0.71185-2.77636-7.05651-4.51564-8.54223-3.28965-8.54223 7.04882 0 5.42759 1.28134 9.86834 2.84741 9.86834 1.56608 0 2.8474-3.17196 2.8474-7.04883zm435.65322-2.81951c0-10.33847-1.48572-11.56446-8.54221-7.04882-2.84742 1.82211-3.08469 2.74756-0.71185 2.77636 1.95759 0.0238 3.55925 3.21513 3.55925 7.09197 0 3.87687 1.28134 7.04883 2.84741 7.04883 1.56608 0 2.8474-4.44075 2.8474-9.86834zm-404.6431-68.11805c2.69981-5.86742 2.70058-7.95687 3e-3 -9.60749-5.52166-3.37914-10.1708-0.0938-9.41065 6.64992 0.38599 3.42454 0.80859 7.17801 0.9391 8.34106 0.52353 4.66562 5.2172 1.68169 8.46814-5.38349zm376.40631 5.38349c0.13052-1.16305 0.55311-4.91652 0.93911-8.34106 0.76014-6.74383-3.889-10.02906-9.41066-6.64992-2.69714 1.65062-2.6964 3.74007 3e-3 9.60749 3.25093 7.06518 7.9446 10.04911 8.46812 5.38349zm-337.8299-48.35659c2.93106-4.69612-6.26542-5.51083-12.60148-1.11633-4.78454 3.31839-5.41745 4.92487-2.61589 6.63937 3.71296 2.27225 12.29639-0.84305 15.21737-5.52304zm303.72312-0.60721c-3.44986-2.76618-8.32919-4.2479-10.84295-3.29273-3.92973 1.49322-3.69113 2.44176 1.70198 6.7661 3.44987 2.76619 8.3292 4.24791 10.84295 3.29274 3.92974-1.49323 3.69113-2.44178-1.70198-6.76611zm-285.04004-12.52737c0-0.68385-1.28133-1.24336-2.8474-1.24336-1.56608 0-2.8474 1.34368-2.8474 2.98594 0 1.64227 1.28132 2.20177 2.8474 1.24336 1.56607-0.95842 2.8474-2.3021 2.8474-2.98594zm259.11401 1.57616c0-1.55072-1.35696-2.81952-3.01547-2.81952-1.65849 0-2.22353 1.2688-1.25565 2.81952 0.9679 1.55075 2.32486 2.81954 3.01547 2.81954s1.25565-1.26879 1.25565-2.81954zm-256.2666-10.68349c0-3.32885-0.80721-3.44125-4.27111-0.59462-2.34911 1.93051-4.2711 3.77758-4.2711 4.10462 0 0.32703 1.92199 0.59461 4.2711 0.59461 2.34912 0 4.27111-1.84707 4.27111-4.10461zm253.02534 0.34522c-1.73296-2.06766-3.63463-3.75936-4.2259-3.75936-0.59129 0-1.07507 1.6917-1.07507 3.75936 0 2.06767 1.90168 3.75939 4.2259 3.75939 3.19874 0 3.46006-0.91379 1.07507-3.75939zm-231.54325-12.4207c3.24228-5.19475-1.05754-6.32255-10.04727-2.63535-6.82483 2.79929-7.9974 4.37403-5.48712 7.36911 3.32962 3.97263 11.69055 1.42481 15.53439-4.73376zm215.18308-2.29852c-11.15888-5.23302-15.31423-1.57527-6.36866 5.60596 5.4608 4.38377 7.59071 4.76853 10.97967 1.98351 3.5783-2.94066 2.89148-4.07115-4.61101-7.58947zm-195.2776-7.69137c3.86009-2.50448 7.01835-3.6179 7.01835-2.47428 0 1.14361 1.71954 0.66612 3.82123-1.06104 2.10168-1.72716 4.66435-2.30545 5.69482-1.28509 1.03045 1.02039 1.87357 0.44986 1.87357-1.26783 0-1.71765-1.0672-3.77617-2.37158-4.57441-3.22492-1.9736-22.638 7.30586-24.45982 11.69181-1.94398 4.68008-0.0124 4.44408 8.42343-1.02916zm173.37266 1.02916c-1.82182-4.38595-21.2349-13.66541-24.45982-11.69181-1.30436 0.79824-2.37157 2.72014-2.37157 4.27089 0 1.55074 1.19282 2.08958 2.65065 1.19737 1.45787-0.89219 3.46841-0.31195 4.46787 1.28937 0.99947 1.60133 2.82123 2.29707 4.04838 1.54609 1.22714-0.751 4.66226 0.45673 7.63361 2.68385 6.7227 5.03887 9.9489 5.32178 8.03088 0.70424zm-83.77953-19.70513c0-3.5053-2.02883-4.73633-7.11851-4.31921-4.23877 0.34736-7.11851 2.33067-7.11851 4.90259 0 2.72748 2.62334 4.31922 7.11851 4.31922 4.8638 0 7.11851-1.55286 7.11851-4.9026zm-224.94512 148.86503c0-0.68385 1.28134-2.02752 2.8474-2.98594 1.56608-0.95841 2.84742-0.3989 2.84742 1.24335 0 1.64227-1.28134 2.98595-2.84742 2.98595-1.56606 0-2.8474-0.55951-2.8474-1.24336zm429.95841-1.57618c0-1.55073 0.56502-2.81953 1.25565-2.81953 0.6906 0 2.04755 1.2688 3.01546 2.81953 0.96788 1.55075 0.40284 2.81954-1.25566 2.81954-1.65849 0-3.01545-1.26879-3.01545-2.81954zm-242.02958-150.67843c0-2.97596 5.46449-4.22623 7.08982-1.62216 0.98367 1.57603-0.20911 2.86551-2.65065 2.86551s-4.43917-0.55951-4.43917-1.24335zm51.25333 0c0-2.97596 5.46449-4.22623 7.08982-1.62216 0.98366 1.57603-0.20912 2.86551-2.65066 2.86551-2.44153 0-4.43916-0.55951-4.43916-1.24335z" fill="#fff6f6" stroke="#000000" stroke-width="2.53739"/>
   <g>
    <ellipse id="path3236" cx="517.99518" cy="757.66986" rx="216.11925" ry="216.69351" color="#000000" fill="#112b00"/>
    <ellipse id="path4207" cx="517.18079" cy="756.97058" rx="209.74577" ry="210.4895" color="#000000" fill="#800000"/>
    <ellipse id="path4299" cx="515.76837" cy="755.9007" rx="193.50282" ry="193.33577" color="#000000" fill="#ffffff"/>
   </g>
   <g id="g4229" transform="matrix(1.4123542 -.0144271 .01456975 1.398527 9.2794366 482.65747)">
    <g>
     <rect id="rect4209" x="348.5" y="48.862183" width="9" height="33" color="#000000" fill="#112b00"/>
     <rect id="rect4213" x="357.5" y="48.862183" width="9" height="33" color="#000000" fill="#676266"/>
     <rect id="rect4215" x="348.5" y="80.362183" width="18" height="32.5" color="#000000" fill="#800000"/>
    </g>
    <g fill-rule="evenodd">
     <path id="path4217" d="m356.07453 103.84264-0.23668 6.52143-2.85739 3.00126 4.37854 5.51639 4.16054-5.51639-3.0519-4.00126v-5.52143z" fill="#676266"/>
     <path id="path4219" d="m385 86.862183h-19v25.999997z" fill="#676266"/>
     <path id="path4221" d="m366.5 86.862183-0.5-26.5 20.5 26.5z" fill="#112b00"/>
     <path id="path4225" d="m329.75 86.61218h19v-25.999997z" fill="#676266"/>
     <path id="path4227" d="m348.75 86.61218 1 26.5-20.5-26.5z" fill="#112b00"/>
    </g>
   </g>
   <g id="g4239" transform="matrix(.00178268 -1.3986003 1.4124282 .00176523 236.88186 1261.3425)">
    <g>
     <rect id="rect4241" x="348.5" y="48.862183" width="9" height="33" color="#000000" fill="#112b00"/>
     <rect id="rect4243" x="357.5" y="48.862183" width="9" height="33" color="#000000" fill="#676266"/>
     <rect id="rect4245" x="348.5" y="80.362183" width="18" height="32.5" color="#000000" fill="#800000"/>
    </g>
    <g fill-rule="evenodd">
     <path id="path4247" d="m356.07453 103.84264-0.23668 6.52143-2.85739 3.00126 4.37854 5.51639 4.16054-5.51639-3.0519-4.00126v-5.52143z" fill="#676266"/>
     <path id="path4249" d="m385 86.862183h-19v25.999997z" fill="#676266"/>
     <path id="path4251" d="m366.5 86.862183-0.5-26.5 20.5 26.5z" fill="#112b00"/>
     <path id="path4253" d="m329.75 86.61218h19v-25.999997z" fill="#676266"/>
     <path id="path4255" d="m348.75 86.61218 1 26.5-20.5-26.5z" fill="#112b00"/>
    </g>
   </g>
   <g>
    <rect id="rect4259" transform="matrix(-.01274619 .99991876 -.9999219 -.01249787 0 0)" x="742.3786" y="-736.47791" width="12.587431" height="46.610092" color="#000000" fill="#112b00"/>
    <rect id="rect4261" transform="matrix(-.01274619 .99991876 -.9999219 -.01249787 0 0)" x="754.966" y="-736.47791" width="12.587431" height="46.610092" color="#000000" fill="#676266"/>
    <rect id="rect4263" transform="matrix(-.01274619 .99991876 -.9999219 -.01249787 0 0)" x="742.3786" y="-691.98645" width="25.174862" height="45.903881" color="#000000" fill="#800000"/>
   </g>
   <g fill-rule="evenodd">
    <path id="path4265" d="m649.17309 761.14507-9.2061-0.44611-4.1878-4.04901-7.86894 6.02596 7.71673 5.91586 5.70545-4.19742 7.79801 0.0975z" fill="#676266"/>
    <path id="path4267" d="m673.34544 803.9947-0.3675-28.66921-36.72023-0.45896z" fill="#676266"/>
    <path id="path4269" d="m672.96903 776.02474 37.43531-0.23147-37.79185 28.20126z" fill="#112b00"/>
    <path id="path4271" d="m673.97725 724.63464-0.33872 26.57131 36.72024 0.45896z" fill="#676266"/>
    <path id="path4273" d="m673.63853 751.20595-37.44422 0.9307 37.79185-28.20125z" fill="#112b00"/>
   </g>
   <g id="g4275" transform="matrix(-1.4121425 .02818383 -.02846249 -1.3983173 1023.9679 1026.3105)">
    <g>
     <rect id="rect4277" x="348.5" y="48.862183" width="9" height="33" color="#000000" fill="#112b00"/>
     <rect id="rect4279" x="357.5" y="48.862183" width="9" height="33" color="#000000" fill="#676266"/>
     <rect id="rect4281" x="348.5" y="80.362183" width="18" height="32.5" color="#000000" fill="#800000"/>
    </g>
    <g fill-rule="evenodd">
     <path id="path4283" d="m356.07453 103.84264-0.23668 6.52143-2.85739 3.00126 4.37854 5.51639 4.16054-5.51639-3.0519-4.00126v-5.52143z" fill="#676266"/>
     <path id="path4285" d="m385 86.862183h-19v25.999997z" fill="#676266"/>
     <path id="path4287" d="m366.5 86.862183-0.5-26.5 20.5 26.5z" fill="#112b00"/>
     <path id="path4289" d="m329.75 86.61218h19v-25.999997z" fill="#676266"/>
     <path id="path4291" d="m348.75 86.61218 1 26.5-20.5-26.5z" fill="#112b00"/>
    </g>
   </g>
   <g id="g4321" transform="matrix(1.4124294,0,0,1.3986014,8,476.04445)" fill-rule="evenodd">
    <path id="path4317" d="m252.5 112.36218s41.5-17.999997 46.5-26.499997 49.5-24.5 49.5-24.5-53.5 1.5-96 50.999997z" fill="#676266"/>
    <path id="path4319" d="m221.56504 201.31036s19.05942-38.8099 17.14948-47.9625c-1.90994-9.15261 20.72044-48.43386 20.72044-48.43386s-38.99028 34.68513-37.86992 96.39636z" fill="#112b00"/>
   </g>
   <g id="g4325" transform="matrix(-.09552618 1.395399 -1.4091953 -.09459095 830.47489 272.37554)" fill-rule="evenodd">
    <path id="path4327" d="m252.5 112.36218s41.5-17.999997 46.5-26.499997 49.5-24.5 49.5-24.5-53.5 1.5-96 50.999997z" fill="#676266"/>
    <path id="path4329" d="m221.56504 201.31036s19.05942-38.8099 17.14948-47.9625c-1.90994-9.15261 20.72044-48.43386 20.72044-48.43386s-38.99028 34.68513-37.86992 96.39636z" fill="#112b00"/>
   </g>
   <g id="g4331" transform="matrix(-.04688453 -1.4034564 1.2525137 -.04564439 262.92069 1270.3216)" fill-rule="evenodd">
    <path id="path4333" d="m252.5 112.36218s41.5-17.999997 46.5-26.499997 49.5-24.5 49.5-24.5-53.5 1.5-96 50.999997z" fill="#676266"/>
    <path id="path4335" d="m221.56504 201.31036s19.05942-38.8099 17.14948-47.9625c-1.90994-9.15261 20.72044-48.43386 20.72044-48.43386s-38.99028 34.68513-37.86992 96.39636z" fill="#112b00"/>
   </g>
   <g id="g4337" transform="matrix(-1.4180561 .01195937 -.01533499 -1.240998 1024.9481 1022.129)" fill-rule="evenodd">
    <path id="path4339" d="m252.5 112.36218s41.5-17.999997 46.5-26.499997 49.5-24.5 49.5-24.5-53.5 1.5-96 50.999997z" fill="#676266"/>
    <path id="path4341" d="m221.56504 201.31036s19.05942-38.8099 17.14948-47.9625c-1.90994-9.15261 20.72044-48.43386 20.72044-48.43386s-38.99028 34.68513-37.86992 96.39636z" fill="#112b00"/>
   </g>
   <g fill="#800000" fill-rule="evenodd" stroke="#000000">
    <g id="g4375" transform="matrix(1.2852167,0,0,1.1922738,46.396198,506.19541)">
     <path id="path4371" d="m273.99105 209.37906s-13.01698-25.32341 3.00392-39.39198c16.02091-14.06856 12.01569-35.64036 12.01569-35.64036s10.01306 42.20569-3.00392 44.0815c-13.01699 1.87581-11.01438 31.88875-12.01569 30.95084z" stroke-width=".969087px"/>
     <path id="path4373" d="m360.00491 107.77042s-26.94846-8.19991-38.20712 10.14921c-11.25865 18.34915-33.08377 18.34136-33.08377 18.34136s43.04887 2.15942 42.81268-11.0052c-0.23617-13.1646 29.5592-16.67024 28.47821-17.48537z" stroke-width=".967412px"/>
    </g>
    <g id="g4379" transform="matrix(-.12183398 1.1797439 -1.1914081 -.1206412 809.07819 337.04386)">
     <path id="path4381" d="m273.99105 209.37906s-13.01698-25.32341 3.00392-39.39198c16.02091-14.06856 12.01569-35.64036 12.01569-35.64036s10.01306 42.20569-3.00392 44.0815c-13.01699 1.87581-11.01438 31.88875-12.01569 30.95084z" stroke-width=".969087px"/>
     <path id="path4383" d="m360.00491 107.77042s-26.94846-8.19991-38.20712 10.14921c-11.25865 18.34915-33.08377 18.34136-33.08377 18.34136s43.04887 2.15942 42.81268-11.0052c-0.23617-13.1646 29.5592-16.67024 28.47821-17.48537z" stroke-width=".967412px"/>
    </g>
    <g id="g4385" transform="matrix(-1.2844202 -.03947941 .04523995 -1.120871 979.69859 1013.276)">
     <path id="path4387" d="m273.99105 209.37906s-13.01698-25.32341 3.00392-39.39198c16.02091-14.06856 12.01569-35.64036 12.01569-35.64036s10.01306 42.20569-3.00392 44.0815c-13.01699 1.87581-11.01438 31.88875-12.01569 30.95084z" stroke-width=".969087px"/>
     <path id="path4389" d="m360.00491 107.77042s-26.94846-8.19991-38.20712 10.14921c-11.25865 18.34915-33.08377 18.34136-33.08377 18.34136s43.04887 2.15942 42.81268-11.0052c-0.23617-13.1646 29.5592-16.67024 28.47821-17.48537z" stroke-width=".967412px"/>
    </g>
    <g id="g4391" transform="matrix(.37739237 -.99609692 1.3184725 .28511734 121.5559 1093.4173)">
     <path id="path4393" d="m273.99105 209.37906s-13.01698-25.32341 3.00392-39.39198c16.02091-14.06856 12.01569-35.64036 12.01569-35.64036s10.01306 42.20569-3.00392 44.0815c-13.01699 1.87581-11.01438 31.88875-12.01569 30.95084z" stroke-width=".969087px"/>
     <path id="path4395" d="m360.00491 107.77042s-26.94846-8.19991-38.20712 10.14921c-11.25865 18.34915-33.08377 18.34136-33.08377 18.34136s43.04887 2.15942 42.81268-11.0052c-0.23617-13.1646 29.5592-16.67024 28.47821-17.48537z" stroke-width=".967412px"/>
    </g>
   </g>
   <path id="path4409" d="m605.74516 725.34745c-7.26262 24.88428-38.2918 88.43829-55.10056 84.79867-16.80875-3.63963-21.62235-78.44049-14.35974-103.32477 3.63131-12.44214 39.36751-25.40078 24.35908 4.50329-4.48419 8.93469-5.37113 16.42006 1.9563 18.19025 21.48032 5.18933 15.02105-9.60903 15.40291-10.94568 9.04404-31.65695 30.44815-23.293 27.74201 6.77824z" color="#000000" fill="#ffffff" stroke="#000000" stroke-width="3.27827"/>
   <g id="g4430" transform="matrix(1.4124294,0,0,1.1296396,-3.299435,524.58189)" fill="#ffffff" stroke="#000000" stroke-width="1.8">
    <ellipse id="path4412" cx="391" cy="190.86218" rx="9" ry="9.5" color="#000000"/>
    <ellipse id="path4426" cx="391.07059" cy="190.84454" rx="4.6392155" ry="5.1490197" color="#000000"/>
    <ellipse id="path4428" cx="391.22354" cy="190.9465" rx="1.427451" ry="1.2745098" color="#000000"/>
   </g>
   <g id="g4435" transform="matrix(1.4124294,0,0,1.19688,29.280602,515.14874)" fill="#ffffff" stroke="#000000" stroke-width="1.8">
    <ellipse id="path4437" cx="391" cy="190.86218" rx="9" ry="9.5" color="#000000"/>
    <ellipse id="path4439" cx="391.07059" cy="190.84454" rx="4.6392155" ry="5.1490197" color="#000000"/>
    <ellipse id="path4441" cx="391.22354" cy="190.9465" rx="1.427451" ry="1.2745098" color="#000000"/>
   </g>
   <path id="path4504" d="m523.04955 836.82481c-0.15312-0.99007-0.76958-2.67683-1.36992-3.74832-0.60031-1.07149-1.85342-3.69561-2.78463-5.83138-1.43729-3.29639-1.72825-3.5282-1.92537-1.53391-0.12774 1.29211 0.22839 4.05969 0.7914 6.15014 0.97082 3.6047 0.88754 3.82147-1.61371 4.20075-2.04903 0.31072-2.71698-0.1151-2.99435-1.9086-0.19637-1.26968-0.75725-2.56272-1.2464-2.87348-0.48915-0.31073-1.48585-4.36551-2.21486-9.01063s-1.57824-8.7071-1.88718-9.02666-0.29957 1.11382 0.0208 3.18526c0.32035 2.07147 0.20339 3.82378-0.25992 3.89403-0.4633 0.0702-0.59407 1.73336-0.29056 3.69579 0.46596 3.01302 0.22421 3.61775-1.55417 3.88741-1.6629 0.25217-2.19905-0.28275-2.54856-2.54271-0.35205-2.27646-0.76763-2.6825-2.03116-1.9845-1.36148 0.75208-1.43387 1.87777-0.50641 7.87491 1.03168 6.671 0.98391 7.0123-1.0238 7.31675-1.97439 0.29938-2.1685-0.0703-3.10729-5.91936-0.55073-3.43128-1.94212-9.10581-3.09198-12.61011l-2.09063-6.37144-0.29572 9.77641c-0.1666 5.50754 0.16195 11.43439 0.75243 13.57349l1.04812 3.79714-4.30749 0.65317-4.3075 0.65318-1.83935-11.89356-1.83933-11.89351-2.47418 0.37518c-2.35718 0.35744-2.42111 0.56859-1.35197 4.46534 1.08236 3.94491 1.02853 4.10439-1.51514 4.49011-2.59508 0.3935-2.65176 0.30676-3.53614-5.41186-0.85805-5.54825-1.01705-5.81814-3.50692-5.95225-2.58708-0.1393-2.60201-0.0915-1.85178 5.92456 0.41599 3.33578 1.29216 8.85952 1.94703 12.27502 1.14413 5.96718 1.10578 6.22285-0.9809 6.53927-3.42356 0.51915-5.02821-3.64005-5.36263-13.89987-0.15093-4.63-0.63671-10.68108-1.07951-13.4468-0.75593-4.72151-0.85978-4.87326-1.70081-2.48492-0.64008 1.81769-0.51745 3.97054 0.42963 7.54264 1.24915 4.71137 1.20843 5.01667-0.70774 5.30723-2.55836 0.38795-4.37387-1.44816-4.91931-4.97512-0.30904-1.99826-0.90664-2.66218-2.21736-2.46342-1.65804 0.25142-1.6852 0.69474-0.35763 5.83615 4.43423 17.17283 4.37481 16.68237 2.06315 17.0329-1.80839 0.27422-2.39416-0.47073-4.06211-5.16595-1.14975-3.23644-1.96057-4.61105-1.97717-3.35191-0.0156 1.18068-0.80591 2.25237-1.76884 2.39839-0.95738 0.14517-2.38914-0.5963-3.18164-1.64772-2.24385-2.97691-3.78043-14.83852-2.70416-20.87486 0.50784-2.84834 0.81666-5.86865 0.68627-6.71183-0.1304-0.84313 1.40652-4.05114 3.41539-7.12896 2.00885-3.07781 3.86338-7.06912 4.12116-8.86962 0.57695-4.02957 3.20449-8.55324 5.76945-9.93282 1.68499-0.90625 2.77243-7.54442 8.82363-53.86173 6.57163-50.30088 7.00552-52.84383 9.06972-53.15684 2.15484-0.32675 2.26616-0.0392 18.47192 47.71463 8.96719 26.42386 16.64571 47.99158 17.06333 47.92825 0.41764-0.0634 0.93033 0.99042 1.13931 2.34172 0.73493 4.75227 2.61558 6.64697 6.89609 6.94764 2.2758 0.15986 3.50996 0.59281 2.74254 0.96212-1.28061 0.61627-1.24614 0.94189 0.41925 3.9614 1.98144 3.59258 4.48762 4.1368 3.98157 0.8646-0.2541-1.643 0.0404-1.5409 1.48753 0.51557 1.51417 2.15179 1.64393 2.7667 0.80682 3.82336-0.83405 1.05279-0.74056 1.46579 0.57041 2.51983 0.86236 0.69337 2.38446 3.32792 3.38244 5.8545 0.998 2.52662 2.62154 5.56698 3.60787 6.75638 3.56292 4.29643 5.64082 8.25845 6.1885 11.79985 0.51541 3.33268 0.33188 3.64425-2.39005 4.05699-2.68081 0.40652-2.99596 0.13902-3.47327-2.94731-0.31574-2.04168-1.64217-4.62986-3.3284-6.49445-2.02997-2.24474-2.51349-2.47235-1.75249-0.82494 1.6045 3.47333 3.73845 10.06979 4.22286 13.05365 0.59565 3.66899-2.98271 4.1587-5.61817 0.76887-1.07937-1.38837-2.83589-2.70406-3.90336-2.92376-1.90911-0.39297-1.90851-0.33198 0.0362 3.72928 1.0874 2.27086 2.4536 5.00771 3.03601 6.08188 0.5824 1.07421 1.34974 3.83359 1.70519 6.13198 0.56673 3.66456 0.38709 4.21817-1.45969 4.49821-1.31875 0.19997-2.21-0.35352-2.38433-1.48082zm-38.05093-21.31144c-0.3867-1.10516-0.36435 0.13035 0.0496 2.74547 0.414 2.61516 0.7304 3.51938 0.7031 2.00937-0.0273-1.51002-0.36605-3.64968-0.75274-4.75484zm-40.68198 4.99121c-0.34105-0.35277-0.4315 0.37989-0.20103 1.62812 0.25469 1.37939 0.49788 1.63095 0.62007 0.64141 0.11056-0.89548-0.078-1.91674-0.41904-2.26953zm12.40066-22.36646c-0.0446-0.28846-0.46018-0.467-0.92349-0.39674-0.4633 0.0702-0.75471 0.69455-0.64758 1.38729s0.5227 0.87128 0.92349 0.39675c0.40077-0.47456 0.69219-1.09882 0.64758-1.3873zm62.99221-10.78429c-0.0578-0.37382-0.79789-1.39625-1.64459-2.27206-1.27564-1.31952-1.49519-1.30611-1.28108 0.0783 0.14211 0.91893 0.56627 1.98928 0.9426 2.37852 0.83749 0.86634 2.12703 0.74617 1.98307-0.18477z" fill="#112b00" stroke-width="1.4055"/>
   <g id="g4506" transform="matrix(1.4124294,0,0,1.3986014,-58.384181,496.32417)" fill="#ffffff" stroke="#000000" stroke-width="1.8">
    <ellipse id="path4508" cx="391" cy="190.86218" rx="9" ry="9.5" color="#000000"/>
    <ellipse id="path4510" cx="391.07059" cy="190.84454" rx="4.6392155" ry="5.1490197" color="#000000"/>
    <ellipse id="path4512" cx="391.22354" cy="190.9465" rx="1.427451" ry="1.2745098" color="#000000"/>
   </g>
   <g id="g4514" transform="matrix(1.4124294,0,0,1.3986014,-80.983051,499.12137)" fill="#ffffff" stroke="#000000" stroke-width="1.8">
    <ellipse id="path4516" cx="391" cy="190.86218" rx="9" ry="9.5" color="#000000"/>
    <ellipse id="path4518" cx="391.07059" cy="190.84454" rx="4.6392155" ry="5.1490197" color="#000000"/>
    <ellipse id="path4520" cx="391.22354" cy="190.9465" rx="1.427451" ry="1.2745098" color="#000000"/>
   </g>
   <ellipse id="path4522" cx="558.14124" cy="780.74683" rx="4.9435029" ry="9.090909" color="#000000" fill="#ffffff" stroke="#000000" stroke-width="2.12872"/>
   <ellipse id="path2332" cx="471.41809" cy="678.50897" rx="9.0466118" ry="13.853148" color="#000000" fill="#ffffff" stroke="#194119" stroke-width="4.7305"/>
  </g>
 </g>
</svg>
