<svg xmlns="http://www.w3.org/2000/svg" width="612.79999" height="413.79999" version="1.0">
  <path style="opacity:1;color:#000;fill:#000;fill-opacity:1;fill-rule:nonzero;stroke:#000;stroke-width:1.79999995;stroke-linecap:butt;stroke-linejoin:miter;marker:none;marker-start:none;marker-mid:none;marker-end:none;stroke-miterlimit:4;stroke-dasharray:none;stroke-dashoffset:0;stroke-opacity:1;visibility:visible;display:inline;overflow:visible;enable-background:accumulate" d="M12-428.63782h611v412H12z" transform="translate(-11.1 429.53782)"/>
  <path style="fill:maroon;fill-rule:evenodd;stroke:#000;stroke-width:1px;stroke-linecap:butt;stroke-linejoin:miter;stroke-opacity:1" d="m33-402.63782 233 356h328l-2-356H33z" transform="translate(-11.1 429.53782)"/>
  <path style="opacity:1;color:#000;fill:#fc0;fill-opacity:1;fill-rule:nonzero;stroke:none;stroke-width:1.79999995;stroke-linecap:butt;stroke-linejoin:miter;marker:none;marker-start:none;marker-mid:none;marker-end:none;stroke-miterlimit:4;stroke-dasharray:none;stroke-dashoffset:0;stroke-opacity:1;visibility:visible;display:inline;overflow:visible;enable-background:accumulate" d="M267-382.63782h305v304H267z" transform="translate(-11.1 429.53782)"/>
  <path style="fill:#000" d="M877.61707-30.22354c.47338-.44853 1.78267-.596271 2.90952-.328324 1.24527.296096.90771.615946-.86068.815501-1.60023.180582-2.52221-.038637-2.04884-.487177zm-1.0602-8.754328c-.01355-.509129.89578-2.079076 2.02076-3.488769 3.25646-4.080521 2.40293-4.592341-6.48329-3.887781-7.91448.627515-8.35781.831322-8.12747 3.736549.1516 1.91199-.61884 3.141216-2.03938 3.253846-1.42054.11263-2.37507-.979829-2.52666-2.891818-.20574-2.594833-.95393-3.016515-4.8097-2.710803-3.55137.281577-4.52273.908304-4.37115 2.820293.23129 2.91699-3.57914 3.603807-5.12346.923491-2.26179-3.925583-1.94617-12.725136.54528-15.202133 7.08504-7.043908 9.91896-14.232649 10.10217-25.625934.10646-6.619631-.41144-9.893358-1.64382-10.391052-.98956-.399621-1.86452-1.550317-1.94435-2.557119-.07982-1.006791-1.69648-4.011547-3.59258-6.677192-1.8961-2.66568-3.50499-5.57246-3.57533-6.45951-.07033-.88706-.78702-1.56058-1.59262-1.49671-.87177.06912-1.37095-3.02083-1.23307-7.63259.21555-7.20913-.26903-8.46687-6.95844-18.06082-8.32164-11.93491-10.85524-18.56022-7.20816-18.84939 1.4989-.11884 3.50383 2.0912 5.49553 6.05778 1.72464 3.4347 5.13991 8.86893 7.58952 12.07607 3.33406 4.36516 4.87032 8.36648 6.11057 15.91565.91125 5.54645 2.3417 10.54708 3.17878 11.11252 1.281.8653 15.33484-1.74969 16.99467-3.16219.92956-.79103-6.56959-10.67912-9.99693-13.18157-4.15849-3.03631-8.8473-15.49281-9.65199-25.64196-.67792-8.55024.14364-10.93553 3.86817-11.23084 3.38784-.26861 3.48831.10651 1.51444 5.65345-1.17458 3.30078-.91376 6.2443 1.20491 13.59774 2.70351 9.38329 4.91552 12.8348 10.81232 16.8709 1.72653 1.18172 4.11515 4.46388 5.30803 7.29367 1.99589 4.73463 2.51107 5.07674 6.45835 4.2885 2.35919-.47111 4.27314-.93123 4.25323-1.02252-.01993-.09127-1.19864-2.30013-2.61933-4.90858-3.49791-6.42216-3.48396-7.76336.08366-8.04623 2.00491-.15896 3.10901.57808 3.23436 2.15908.22047 2.78069 3.75532 8.41847 5.20623 8.30343.54274-.04303 2.12036-.87478 3.50582-1.84834 2.35591-1.65547 2.33395-2.06752-.33876-6.36313-3.27732-5.26731-3.47675-13.09425-.63105-24.76637 1.01474-4.16209 1.63913-10.4732 1.38756-14.02468-.34713-4.90032.09304-6.50089 1.8256-6.63826 3.43397-.27227 4.0707 13.67647 1.21602 26.63892-2.28937 10.39559-2.26771 10.81004.86586 16.5728 2.18995 4.02736 3.86409 5.65116 5.25442 5.09646 1.12224-.44777 3.59613-.93747 5.49758-1.08823 3.23141-.2562 3.37756-.67163 2.23865-6.36179-.97217-4.85695-.75745-6.12423 1.06207-6.2685 1.58739-.12585 2.73548 1.66258 3.7771 5.88368l1.49651 6.06452 5.31461-2.27553c2.92305-1.25154 5.47384-2.28817 5.66842-2.3036.1946-.01543.38142-5.45696.41515-12.09229.03373-6.63532.22222-15.22966.41881-19.09852.35637-7.01257.33986-7.04178-5.35603-9.47021-3.14242-1.33976-5.77678-3.12665-5.85416-3.97085-.22905-2.49954 4.51719-2.12991 10.23791.79728 4.82055 2.46661 5.38691 3.33862 5.83443 8.9829.2726 3.43809.07664 11.21094-.43544 17.27297-.95966 11.36017-.28521 13.63883 3.21649 10.86699 1.58748-1.25661 2.26628-1.19236 3.12363.29568 1.72298 2.99038 1.4548 4.14406-1.00867 4.33937-1.25566.09957-2.23305.81143-2.17195 1.58195.06109.7705-.81814 2.09252-1.95387 2.93783-1.76579 1.31429-1.54689 2.27032 1.51093 6.59918 3.06234 4.33521 4.08243 4.91707 7.10281 4.0515 2.82359-.80917 3.56577-.52052 3.7218 1.44754.12785 1.61234-1.12416 2.83627-3.63829 3.55678-2.55029.73086-3.50058 1.67587-2.83931 2.82356.54666.94877 1.19278 4.23331 1.43585 7.29897.39395 4.968781.76689 5.477919 3.435 4.689714 2.2201-.655847 3.04105-.279067 3.17886 1.458989.10218 1.288766-.54804 2.401382-1.44495 2.472494-3.17519.251749-5.69667 4.039414-5.37659 8.076473.17839 2.249832-.16781 5.924892-.76929 8.166806l-1.09363 4.076213 5.16098-2.209744c5.06417-2.168314 5.14522-2.156929 4.3217.607119-1.02187 3.429644-3.00919 4.800335-7.51391 5.182423-1.88267.159686-3.40275.546417-3.37793.859403.02481.312986-1.04579 3.340955-2.37917 6.728816l-2.42429 6.159751 5.18848-.907333c3.86785-.67638 5.69519-1.856317 7.17922-4.635665 2.95685-5.537723 3.57341-4.608128 1.21455 1.831161-1.84633 5.04011-2.70383 5.799727-7.80238 6.911643-5.32551 1.161403-5.70474 1.543963-5.3956 5.443128.23061 2.908508-.36719 4.249402-1.95048 4.374937-1.5945.126422-2.3859-1.11641-2.62412-4.120951-.32089-4.047213-.63845-4.278387-5.36239-3.90384-4.35705.345457-5.23102.987429-6.60652 4.852818-1.04029 2.923423-2.56118 4.532075-4.42447 4.67981-2.47842.196507-2.69952-.29581-1.73957-3.873703.60481-2.254352 1.08843-4.240749 1.07467-4.414218-.01375-.173466-2.83958-.092236-6.27959.180513-6.25189.495692-6.25418.497754-5.2916 4.748561.7854 3.468381.45797 4.292697-1.77543 4.469776-2.11494.167686-2.81606-.762339-3.0795-4.084845-.27153-3.424694-.93776-4.254654-3.26709-4.06997-1.99444.158133-3.37714 1.645996-4.343 4.67335-1.10076 3.450175-2.23985 4.506599-5.104 4.733688-2.02787.160784-3.69814-.124226-3.71171-.633355zm-17.78611-11.224561c-.05174-.652509 1.87661-3.310041 4.28518-5.905623l4.37924-4.719268-6.29351.498992c-4.48031.355231-6.52812 1.113972-7.10788 2.633582-.44791 1.174018-1.98519 3.243958-3.41619 4.599867-3.87117 3.668023-3.02486 4.972537 2.92017 4.501176 2.92988-.232302 5.28473-.956228 5.23299-1.608726zm22.21717-5.824363c-.73338-4.311702-1.4652-5.207163-4.33788-5.307956-1.90064-.066682-3.4103.451087-3.35484 1.150597.05546.699525-1.86983 3.395529-4.2784 5.991113l-4.37924 4.719265 8.61628-.683157 8.61628-.683157-.8822-5.186705zm11.87653 2.004397c.39622-1.302239 1.99435-3.463262 3.55143-4.802277 4.27807-3.678964 3.3437-4.565549-4.18275-3.9688l-6.84907.543042.43853 5.531096c.36849 4.647387.90851 5.493834 3.38002 5.297877 1.61781-.128272 3.26563-1.298689 3.66184-2.600938zm20.5827-4.954167 2.04873-5.795267-5.50627.812753c-4.1145.607328-5.5948 1.445029-5.85649 3.31424-.1926 1.375816-1.67236 3.858634-3.28833 5.517373l-2.93813 3.015888 6.7459-.534859c6.62743-.52547 6.78185-.636612 8.79459-6.330128zm13.46348-1.408863 1.84068-6.087058-3.46571.819845c-2.22155.525527-4.14197 2.426759-5.34944 5.295993-2.50966 5.963439-2.31519 6.684893 1.71059 6.346245 2.74835-.23118 3.78612-1.487995 5.26388-6.375025zm-58.99968-9.756063c-.36101-4.553211-.93412-5.491805-3.24166-5.308847-1.93544.153454-3.23222 1.736422-4.18928 5.113879-1.86181 6.569996-1.89946 6.500613 3.30343 6.088091 4.39694-.348619 4.54981-.566886 4.12751-5.893123zm12.7494.184033c3.09141-6.330357 2.76221-6.979767-3.29483-6.499523-5.29887.42013-5.32473.451631-4.88851 5.953461.35866 4.523516.9417 5.491203 3.20069 5.312095 1.66321-.131872 3.64555-2.028007 4.98265-4.766033zm20.80793-2.322066c.70054-2.829325.98429-6.105134.63053-7.279572-.57402-1.905781-1.36603-1.93241-7.36721-.247714-6.11555 1.716807-6.77132 2.286921-7.24644 6.300069-.28732 2.426839-.98379 5.125847-1.54776 5.997798-.753 1.164257 1.00429 1.424431 6.61589.979505l7.64125-.605851 1.27374-5.144235zm15.40448 1.520781c-.09971-1.257685.05079-4.887431.33444-8.066101.48948-5.485259.331-5.763775-3.11419-5.47264-5.74425.485402-6.81292 1.906925-7.15357 9.515472l-.31954 7.137277 5.21706-.413645c4.07198-.322854 5.17732-.915576 5.0358-2.700363zm16.0303-8.596218c.86744-4.290142 1.13919-8.100047.60386-8.466474-.53534-.366409-2.9851-.142508-5.4439.497572-4.13688 1.0769-4.54903 1.749086-5.52185 9.005616-.5782 4.313021-1.02751 8.141524-.99847 8.50778.02904.36627 2.24213.123653 4.91798-.539144 4.53221-1.122611 4.97309-1.738904 6.44238-9.00535zm-64.11068-4.152656c.54636-5.082987-.13117-5.864678-4.76483-5.49729-3.31973.263206-3.67372.817923-3.3254 5.211098.3459 4.362526.79913 4.884074 4.02212 4.628534 2.92894-.232227 3.71668-1.073089 4.06811-4.342342zm14.6272 1.094024c.31889-.302151.77839-2.867431 1.02112-5.700624.44128-5.15065.44082-5.151111-3.88907-3.96311-5.63251 1.545414-6.00079 1.973586-6.61142 7.68685l-.51546 4.822802 4.70752-1.148273c2.58915-.631561 4.96842-1.395484 5.28731-1.697645zm17.14276-3.303743c.73246-.058084 1.17828-2.041484.99067-4.407558-.33296-4.199528-.48604-4.290479-6.42916-3.819266l-6.08807.482712.40199 5.070172c.39826 5.023057.44562 5.059521 5.09739 3.924846 2.58248-.629925 5.29469-1.192834 6.02718-1.250906zm15.50982-3.217351c1.64829-.657621 2.22075-2.54669 1.92026-6.336548-.36314-4.580165-.89007-5.362968-3.47215-5.158248-1.67422.13276-3.00313.757202-2.95315 1.387668.04998.630466-1.25111 1.606022-2.89129 2.167877-2.21918.760201-2.89659 2.101077-2.64765 5.240715.28883 3.642942.83716 4.179273 4.01506 3.92731 2.02434-.160505 4.73734-.713441 6.02892-1.228774zm17.39015-8.049202c.44846-2.416513.32487-5.858134-.27465-7.648064l-1.09005-3.25439-5.06305 2.42526c-4.74509 2.27298-5.03316 2.80175-4.58762 8.421152l.4754 5.995901 4.86228-.773102c4.19085-.666334 4.97487-1.379809 5.67769-5.166757zm-68.2989 3.427587c1.69865-.67772 2.21643-2.600846 1.87151-6.951121-.5082-6.40972-1.44529-6.86826-9.24322-4.52305-2.9643.89151-3.257 1.55042-2.10908 4.74797 1.45334 4.048279 4.46737 7.874456 6.10101 7.744928.56729-.044983 2.08818-.503405 3.37978-1.018727zm18.41817-10.744811c-.5909-7.4527-1.50452-8.20328-6.66092-5.47228-2.261 1.19751-2.73751 2.83745-2.3274 8.0099l.51569 6.504118 4.52315-.903229c4.43826-.886271 4.51237-1.038983 3.94948-8.138509zm14.01615 5.635189c3.30039-.992149 3.4507-1.526949 2.31169-8.224399-1.45775-8.57187-3.02542-10.02502-8.48351-7.86382-3.7247 1.47484-3.91731 2.03127-3.31836 9.58551.68332 8.618299 1.22287 8.987999 9.49018 6.502709zm17.77774-10.294349c-.35902-4.52809-4.30152-12.22474-6.17605-12.05704-.91315.0817-3.13256.59172-4.932 1.13339-2.78304.83777-3.0228 1.42053-1.60515 3.90149.91662 1.60413 1.87765 5.57869 2.13562 8.83236l.46905 5.91576 5.17246-2.37225c3.84541-1.76364 5.11181-3.1372 4.93607-5.35371zm11.15947-1.87861c3.87833-1.85778 4.76145-2.88627 3.70374-4.31345-.76389-1.03072-2.25338-3.3361-3.31003-5.12306-1.93704-3.2759-4.28493-3.83288-7.58027-1.79821-1.24199.76683-1.34825 3.04668-.34628 7.42966.79502 3.47784 1.66933 6.3056 1.94289 6.28392.27354-.0217 2.78903-1.13718 5.58995-2.47886z" transform="translate(-480.1 304.53782)"/>
  <path style="fill:#6c5d53;stroke:#000;stroke-width:2.5999999;stroke-miterlimit:4;stroke-dasharray:none;stroke-opacity:1" d="M388.06206-115.09752v-5.59891h-21.08923c-13.91433 0-21.85116.76194-23.32878 2.23957-1.60273 1.60272-2.23957 1.63645-2.23957.1186 0-1.45247-3.67633-1.84031-11.66439-1.23055-13.11769 1.00137-27.94322-1.10153-27.68629-3.92707.09335-1.02647 4.15639-2.74853 9.02897-3.82682l8.85923-1.96049-11.6644-1.3982c-11.32424-1.35744-16.40189-4.94546-6.99863-4.94546 2.82192 0 4.66575-1.06462 4.66575-2.69394 0-1.48167 2.44154-4.13619 5.42563-5.89895 3.20771-1.89484 5.85228-5.33824 6.46933-8.4235 2.42926-12.14626 22.38493-14.07129 45.66885-4.40547 13.39507 5.56067 11.43409 5.43083 58.72677 3.88843l35.10641-1.14498 17.80644-7.5788c9.79353-4.16833 18.29492-7.09031 18.89196-6.49326.59705.59703.30169 1.74281-.65636 2.54618-1.70873 1.43286-24.75893 11.45821-34.86875 15.16566-2.82278 1.03516-5.13233 3.10403-5.13233 4.59748 0 3.48372 5.71301 1.91987 25.50581-6.98187 31.08094-13.97852 48.49902-18.6389 54.51775-14.58675 3.77803 2.54359.80025 5.88153-5.24694 5.88153-8.44624 0-19.15898 4.58763-36.69999 15.71645l-16.41085 10.41179h30.22576c18.90633 0 30.22579.69893 30.22579 1.8663 0 1.18764-14.93042 1.8663-41.05867 1.8663-34.98586 0-41.05866.40809-41.05866 2.75917 0 2.32106 5.67968 2.83963 35.77228 3.26603 26.58986.37675 35.97152 1.10569 36.54845 2.83974.60328 1.8133-7.36381 2.33288-35.77231 2.33288h-36.54842v11.19782h-65.32061v-5.59891zm-53.13363-13.15475c.82679-1.33776 2.04259-1.26546 3.84275.22853 2.0119 1.66973 3.25471 1.66973 5.2666 0 1.80016-1.49399 3.01596-1.56629 3.84276-.22853.71867 1.16286 9.11636 1.95693 20.69549 1.95693 16.22453 0 19.48603-.47669 19.48603-2.84807 0-2.45068-3.94971-2.77618-28.30777-2.33288-20.61001.37511-28.51864 1.14957-29.08322 2.84807-.93796 2.82174 2.55514 3.13021 4.25736.37595zm6.2964-11.37032c-16.34754-3.39038-18.46356-3.46703-24.26194-.87873l-6.35241 2.83559 9.55896-1.05558c6.08777-.67226 10.02465-.30206 10.84138 1.01945.76277 1.23418 6.72059 2.01799 14.70299 1.93431l13.42055-.1407-17.90953-3.71434zm46.83723-4.40263c0-1.94351-1.95445-2.79945-6.39218-2.79945-3.51571 0-14.84211-3.03504-25.16979-6.7445-20.85362-7.49019-29.51401-7.53503-34.68449-.17963l-2.89945 4.12467 15.44334 1.2908c8.49384.70994 21.74213 2.52376 29.44063 4.03074 18.8279 3.68554 24.26194 3.74767 24.26194.27737z" transform="translate(-8.1 425.53782)"/>
  <path style="fill:none;fill-rule:evenodd;stroke:#000;stroke-width:1px;stroke-linecap:butt;stroke-linejoin:miter;stroke-opacity:1" d="M317-127.63782c15-2 14-3 14-3l1 2-15 1zM476-136.63782l-7 6 7-6zM388-150.63782v42h66l-1-44-65 2z" transform="translate(-8.1 425.53782)"/>
  <g>
    <path d="M721.29796-251.77967c-5.8835-1.95166-14.19819-5.13102-18.4771-7.0653-5.56281-2.51463-14.70804-3.82921-32.09179-4.61303-23.75196-1.07093-24.32702-1.20265-24.96564-5.71767-.60704-4.29189-.19093-4.52307 5.83488-3.24173 3.56869.75884 11.60103 1.82626 17.84965 2.37199 10.13397.88507 11.28907.61824 10.69429-2.47027-.3864-2.00636-3.32393-4.15104-6.98496-5.09972-3.47498-.90046-6.31813-2.47065-6.31813-3.48933 0-3.07039 17.73529.04266 28.20187 4.95021 18.04288 8.45993 19.4888 8.73657 28.06174 5.36901 4.35599-1.71107 7.91996-3.85352 7.91996-4.76098 0-.90746 8.3147-1.64992 18.4771-1.64992 15.88383 0 19.02304.54596 22.36701 3.88991 3.07937 3.07938 6.42289 3.87556 16.0459 3.82101 6.68579-.03791 13.94318-1.13195 16.12755-2.4312 9.03455-5.37375 16.97356-12.34 18.45904-16.19736 2.16146-5.61261 9.66118-7.56493 9.66118-2.51498 0 2.03931-.65642 3.74373-1.45871 3.78761-3.18266.17404-18.39811 15.47988-15.38848 15.47988 1.70646 0 7.53723-3.93854 12.95728-8.75231 10.58765-9.40333 17.33451-11.81291 13.6147-4.86239-1.145 2.13945-3.14505 3.89427-4.44458 3.89958-1.29952.0053-4.98847 2.2233-8.19765 4.92886l-5.83486 4.91919 9.72478-.89976c5.34863-.49487 12.56928-1.49934 16.0459-2.23218 5.04561-1.06356 6.32111-.70666 6.32111 1.76872 0 3.49568-2.431 4.20559-24.11474 7.0419-8.44935 1.1052-26.28428 5.50111-39.63316 9.76868-21.21287 6.78162-26.50614 7.74603-42.01379 7.65461-11.71801-.06908-21.37561-1.30955-28.44035-3.65303z" style="fill:#6c5d53;fill-opacity:1;stroke:#000;stroke-width:1.70000005;stroke-miterlimit:4;stroke-dasharray:none;stroke-opacity:1" transform="translate(-338.1 521.53782)"/>
    <path d="M779-260.63782a30 9 0 1 1-60 0 30 9 0 1 1 60 0z" style="opacity:1;color:#000;fill:#6c5d53;fill-opacity:1;fill-rule:nonzero;stroke:#000;stroke-width:1.70000005;stroke-linecap:butt;stroke-linejoin:miter;marker:none;marker-start:none;marker-mid:none;marker-end:none;stroke-miterlimit:4;stroke-dasharray:none;stroke-dashoffset:0;stroke-opacity:1;visibility:visible;display:inline;overflow:visible;enable-background:accumulate" transform="translate(-338.1 521.53782)"/>
    <g>
      <path style="fill:#e3dedb;stroke:#000;stroke-width:2.03606749;stroke-opacity:1" d="M740.48768-148.94577c0-7.55676 13.74778-21.38131 38.25258-38.46622 10.40398-7.25371 20.01717-14.95131 21.36266-17.10578 4.14289-6.63383 6.15373-4.36457 4.81129 5.42963-1.93278 14.10123-7.72981 25.29111-18.36508 35.44976-13.51485 12.90916-26.91077 20.16868-37.40816 20.27223-8.12739.08016-8.65329-.25895-8.65329-5.57962z" transform="translate(-328.1 387.53782)"/>
      <path style="fill:#e3dedb;fill-opacity:1;stroke:#000;stroke-width:2;stroke-miterlimit:4;stroke-dasharray:none;stroke-opacity:1" d="M746.444-139.37809c-4.32776-5.52576-2.14019-8.7561 9.28372-13.7091 22.26134-9.65172 46.84275-36.45265 48.89187-53.30644.26113-2.1477 3.5569-6.1541 7.32393-8.9031 3.76704-2.749 8.73167-7.7457 11.0325-11.10379 5.40338-7.88624 9.98104-7.43367 7.36765.72837-1.09275 3.4129-1.08184 8.14135.02427 10.50767 1.15707 2.47538.96395 6.09769-.45479 8.53022-1.35622 2.32532-2.46182 6.12242-2.45689 8.438.00492 2.31558-1.12466 4.07233-2.51017 3.90386-1.38552-.16844-2.77083 1.76391-3.07846 4.29415-.30763 2.53022-1.70604 5.12988-3.10756 5.77705-1.40154.64717-2.74036 2.75675-2.97516 4.68797-.47577 3.91312-9.10318 13.97235-20.30481 23.67466-4.05919 3.51585-7.4763 7.14055-7.59358 8.05487-.1173.91433-5.33358 4.33887-11.59173 7.61007-11.97878 6.26142-25.30055 6.62538-29.85079.81554z" transform="translate(-328.1 387.53782)"/>
      <g>
        <path style="fill:#e3dedb;stroke:#000;stroke-width:2.03606749;stroke-opacity:1" d="M740.48768-148.94577c0-7.55676 13.74778-21.38131 38.25258-38.46622 10.40398-7.25371 20.01717-14.95131 21.36266-17.10578 4.14289-6.63383 6.15373-4.36457 4.81129 5.42963-1.93278 14.10123-7.72981 25.29111-18.36508 35.44976-13.51485 12.90916-26.91077 20.16868-37.40816 20.27223-8.12739.08016-8.65329-.25895-8.65329-5.57962z" transform="matrix(-1 0 0 1 1152.6957 387.555463)"/>
        <path style="fill:#e3dedb;fill-opacity:1;stroke:#000;stroke-width:2;stroke-miterlimit:4;stroke-dasharray:none;stroke-opacity:1" d="M746.444-139.37809c-4.32776-5.52576-2.14019-8.7561 9.28372-13.7091 22.26134-9.65172 46.84275-36.45265 48.89187-53.30644.26113-2.1477 3.5569-6.1541 7.32393-8.9031 3.76704-2.749 8.73167-7.7457 11.0325-11.10379 5.40338-7.88624 9.98104-7.43367 7.36765.72837-1.09275 3.4129-1.08184 8.14135.02427 10.50767 1.15707 2.47538.96395 6.09769-.45479 8.53022-1.35622 2.32532-2.46182 6.12242-2.45689 8.438.00492 2.31558-1.12466 4.07233-2.51017 3.90386-1.38552-.16844-2.77083 1.76391-3.07846 4.29415-.30763 2.53022-1.70604 5.12988-3.10756 5.77705-1.40154.64717-2.74036 2.75675-2.97516 4.68797-.47577 3.91312-9.10318 13.97235-20.30481 23.67466-4.05919 3.51585-7.4763 7.14055-7.59358 8.05487-.1173.91433-5.33358 4.33887-11.59173 7.61007-11.97878 6.26142-25.30055 6.62538-29.85079.81554z" transform="matrix(-1 0 0 1 1152.6957 387.555463)"/>
      </g>
    </g>
  </g>
  <g>
    <path style="opacity:1;color:#000;fill:#6c5d53;fill-opacity:1;fill-rule:nonzero;stroke:#000;stroke-width:2;stroke-linecap:butt;stroke-linejoin:miter;marker:none;marker-start:none;marker-mid:none;marker-end:none;stroke-miterlimit:4;stroke-dasharray:none;stroke-dashoffset:0;stroke-opacity:1;visibility:visible;display:inline;overflow:visible;enable-background:accumulate" d="M826-172.63782a6 10 0 1 1-12 0 6 10 0 1 1 12 0z" transform="rotate(-19.249534 1491.65122813 1388.87767805)"/>
    <path style="opacity:1;color:#000;fill:#6c5d53;fill-opacity:1;fill-rule:nonzero;stroke:#000;stroke-width:2;stroke-linecap:butt;stroke-linejoin:miter;marker:none;marker-start:none;marker-mid:none;marker-end:none;stroke-miterlimit:4;stroke-dasharray:none;stroke-dashoffset:0;stroke-opacity:1;visibility:visible;display:inline;overflow:visible;enable-background:accumulate" d="M826-159.63782a4.5 5 0 1 1-9 0 4.5 5 0 1 1 9 0z" transform="rotate(-19.249534 1489.70279965 1395.27453247)"/>
  </g>
  <g>
    <path style="opacity:1;color:#000;fill:#6c5d53;fill-opacity:1;fill-rule:nonzero;stroke:#000;stroke-width:2;stroke-linecap:butt;stroke-linejoin:miter;marker:none;marker-start:none;marker-mid:none;marker-end:none;stroke-miterlimit:4;stroke-dasharray:none;stroke-dashoffset:0;stroke-opacity:1;visibility:visible;display:inline;overflow:visible;enable-background:accumulate" d="M826-172.63782a6 10 0 1 1-12 0 6 10 0 1 1 12 0z" transform="rotate(15.728759 -508.11740743 -1633.55918927)"/>
    <path style="opacity:1;color:#000;fill:#6c5d53;fill-opacity:1;fill-rule:nonzero;stroke:#000;stroke-width:2;stroke-linecap:butt;stroke-linejoin:miter;marker:none;marker-start:none;marker-mid:none;marker-end:none;stroke-miterlimit:4;stroke-dasharray:none;stroke-dashoffset:0;stroke-opacity:1;visibility:visible;display:inline;overflow:visible;enable-background:accumulate" d="M826-159.63782a4.5 5 0 1 1-9 0 4.5 5 0 1 1 9 0z" transform="rotate(15.728759 -503.49757096 -1640.29886811)"/>
  </g>
  <g>
    <path style="opacity:1;color:#000;fill:#6c5d53;fill-opacity:1;fill-rule:nonzero;stroke:#000;stroke-width:2;stroke-linecap:butt;stroke-linejoin:miter;marker:none;marker-start:none;marker-mid:none;marker-end:none;stroke-miterlimit:4;stroke-dasharray:none;stroke-dashoffset:0;stroke-opacity:1;visibility:visible;display:inline;overflow:visible;enable-background:accumulate" d="M826-172.63782a6 10 0 1 1-12 0 6 10 0 1 1 12 0z" transform="rotate(-12.820119 1960.43894108 1798.06282899)"/>
    <path style="opacity:1;color:#000;fill:#6c5d53;fill-opacity:1;fill-rule:nonzero;stroke:#000;stroke-width:2;stroke-linecap:butt;stroke-linejoin:miter;marker:none;marker-start:none;marker-mid:none;marker-end:none;stroke-miterlimit:4;stroke-dasharray:none;stroke-dashoffset:0;stroke-opacity:1;visibility:visible;display:inline;overflow:visible;enable-background:accumulate" d="M826-159.63782a4.5 5 0 1 1-9 0 4.5 5 0 1 1 9 0z" transform="rotate(-12.820119 1956.98837762 1807.46394264)"/>
  </g>
  <g>
    <path style="opacity:1;color:#000;fill:#6c5d53;fill-opacity:1;fill-rule:nonzero;stroke:#000;stroke-width:2;stroke-linecap:butt;stroke-linejoin:miter;marker:none;marker-start:none;marker-mid:none;marker-end:none;stroke-miterlimit:4;stroke-dasharray:none;stroke-dashoffset:0;stroke-opacity:1;visibility:visible;display:inline;overflow:visible;enable-background:accumulate" d="M826-172.63782a6 10 0 1 1-12 0 6 10 0 1 1 12 0z" transform="rotate(-37.43311 1068.8923659 538.80033567)"/>
    <path style="opacity:1;color:#000;fill:#6c5d53;fill-opacity:1;fill-rule:nonzero;stroke:#000;stroke-width:2;stroke-linecap:butt;stroke-linejoin:miter;marker:none;marker-start:none;marker-mid:none;marker-end:none;stroke-miterlimit:4;stroke-dasharray:none;stroke-dashoffset:0;stroke-opacity:1;visibility:visible;display:inline;overflow:visible;enable-background:accumulate" d="M826-159.63782a4.5 5 0 1 1-9 0 4.5 5 0 1 1 9 0z" transform="rotate(-37.43311 1068.41658275 542.25190042)"/>
  </g>
  <g>
    <path transform="rotate(2.7440063 128.04827184 -2974.04001615)" d="m252 242.36218-14.59372-8.841-13.8411 9.97817 3.89858-16.61147-13.76694-10.08024L230.7 215.38218l5.33266-16.2081 6.60996 15.73049 17.06271.06309-12.918 11.14743L252 242.36218z" style="opacity:1;color:#000;fill:#fff;fill-opacity:1;fill-rule:nonzero;stroke:#000;stroke-width:2;stroke-linecap:butt;stroke-linejoin:miter;marker:none;marker-start:none;marker-mid:none;marker-end:none;stroke-miterlimit:4;stroke-dasharray:none;stroke-dashoffset:0;stroke-opacity:1;visibility:visible;display:inline;overflow:visible;enable-background:accumulate"/>
    <path transform="rotate(2.7440063 -1045.70000837 -3801.54846462)" d="m252 242.36218-14.59372-8.841-13.8411 9.97817 3.89858-16.61147-13.76694-10.08024L230.7 215.38218l5.33266-16.2081 6.60996 15.73049 17.06271.06309-12.918 11.14743L252 242.36218z" style="opacity:1;color:#000;fill:#fff;fill-opacity:1;fill-rule:nonzero;stroke:#000;stroke-width:2;stroke-linecap:butt;stroke-linejoin:miter;marker:none;marker-start:none;marker-mid:none;marker-end:none;stroke-miterlimit:4;stroke-dasharray:none;stroke-dashoffset:0;stroke-opacity:1;visibility:visible;display:inline;overflow:visible;enable-background:accumulate"/>
    <path transform="rotate(2.7440063 -879.94341142 -2113.57648623)" d="m252 242.36218-14.59372-8.841-13.8411 9.97817 3.89858-16.61147-13.76694-10.08024L230.7 215.38218l5.33266-16.2081 6.60996 15.73049 17.06271.06309-12.918 11.14743L252 242.36218z" style="opacity:1;color:#000;fill:#fff;fill-opacity:1;fill-rule:nonzero;stroke:#000;stroke-width:2;stroke-linecap:butt;stroke-linejoin:miter;marker:none;marker-start:none;marker-mid:none;marker-end:none;stroke-miterlimit:4;stroke-dasharray:none;stroke-dashoffset:0;stroke-opacity:1;visibility:visible;display:inline;overflow:visible;enable-background:accumulate"/>
    <path transform="rotate(2.7440063 -2737.54842839 -2925.50118603)" d="m252 242.36218-14.59372-8.841-13.8411 9.97817 3.89858-16.61147-13.76694-10.08024L230.7 215.38218l5.33266-16.2081 6.60996 15.73049 17.06271.06309-12.918 11.14743L252 242.36218z" style="opacity:1;color:#000;fill:#fff;fill-opacity:1;fill-rule:nonzero;stroke:#000;stroke-width:2;stroke-linecap:butt;stroke-linejoin:miter;marker:none;marker-start:none;marker-mid:none;marker-end:none;stroke-miterlimit:4;stroke-dasharray:none;stroke-dashoffset:0;stroke-opacity:1;visibility:visible;display:inline;overflow:visible;enable-background:accumulate"/>
    <path transform="matrix(.52067 .02496 -.02496 .52067 -11.45628 191.85009)" d="m252 242.36218-14.59372-8.841-13.8411 9.97817 3.89858-16.61147-13.76694-10.08024L230.7 215.38218l5.33266-16.2081 6.60996 15.73049 17.06271.06309-12.918 11.14743L252 242.36218z" style="opacity:1;color:#000;fill:#fff;fill-opacity:1;fill-rule:nonzero;stroke:#000;stroke-width:2;stroke-linecap:butt;stroke-linejoin:miter;marker:none;marker-start:none;marker-mid:none;marker-end:none;stroke-miterlimit:4;stroke-dasharray:none;stroke-dashoffset:0;stroke-opacity:1;visibility:visible;display:inline;overflow:visible;enable-background:accumulate"/>
  </g>
  <path style="fill:#ffd618;fill-opacity:1" d="M211.85775-218.94618c7.47303.30885 14.56798-3.46596 20.33659-10.81988 4.99222-6.3642 6.18616-10.65489 5.56447-19.99712l-.44347-6.66397-4.89308 6.3698c-6.6011 8.59332-14.58783 11.63813-25.68728 9.79287-6.14946-1.02235-9.54335-2.38217-11.32899-4.53919-2.3747-2.86858-2.11858-2.91529 3.73836-.68176 12.38551 4.72317 28.74009-2.75268 33.20581-15.17871 2.2738-6.32694 2.19394-6.5589-7.03966-20.44543-5.13675-7.72524-10.16605-14.07974-11.17625-14.1211-1.01019-.04136-3.87783-1.87022-6.37252-4.06412-5.47058-4.81098-6.70753-4.34331-6.02539 2.27799.38118 3.70001-.00158 5.07506-1.44861 5.20415-1.24694.11126-.89516 2.58242.96129 6.75258 1.88548 4.23535 2.21893 6.64036.93654 6.75476-1.34163.1197-1.24838 2.00599.28578 5.78105 2.67714 6.58758 2.56925 8.33763-.38948 6.31702-1.77702-1.21357-1.98405-.8425-1.19468 2.14136.52517 1.98513.63898 3.80414.2529 4.04226-1.4915.91984-12.85119-9.97078-18.06564-17.31968-4.3002-6.06044-5.86979-7.32112-7.31681-5.87683-1.49049 1.48766-2.41137.97725-4.82328-2.67346l-2.98105-4.51221-1.34625 3.38057c-1.23223 3.09428-1.92514 2.49218-8.18179-7.10959-5.42971-8.3327-6.85461-12.15202-6.92819-18.57049l-.09263-8.08031-4.63371 3.36194c-4.24887 3.08272-4.57087 3.09688-3.87711.17044.95535-4.02988-.87618-4.49502-5.4131-1.37469-4.63334 3.1866-6.2966 2.67134-4.18722-1.2972l1.69177-3.18291-5.74334 2.33407c-4.68704 1.90478-5.6372 1.88633-5.16623-.10035.68835-2.90361-1.03681-3.55983-4.21142-1.60195-1.79247 1.10545-2.15615.79515-1.6366-1.39643.63831-2.69255.45644-2.74117-4.09359-1.09435-4.23814 1.53395-4.58946 1.47138-3.19597-.56908 1.9764-2.89402-.25239-3.52457-3.58644-1.01464-1.38858 1.04535-2.77249 1.49893-3.0753 1.00794-.96757-1.56888 13.38431-15.88316 20.71525-20.66097 9.11884-5.94307 14.88779-6.03097 23.1585-.35291 9.19797 6.31465 12.23357 6.99005 13.7746 3.06479 1.31691-3.35444-.19336-5.15264-15.22097-18.12249l-5.36783-4.63282 5.82965 1.46288c3.2063.80458 7.78417 1.38227 10.17306 1.28378 3.4911-.14393 5.48283 1.21306 10.15011 6.91548 9.5153 11.62564 12.23727 10.24999 16.95495-8.56898 2.22151-8.86162 3.47061-11.09917 8.86672-15.88322 6.11434-5.4208 20.56979-12.94247 23.52636-12.24157.8094.19189-.109 2.18778-2.04089 4.43531-3.0865 3.59077-3.23116 4.15314-1.19271 4.63639 1.48925.35305 1.76741 1.35885.7769 2.80924-.8486 1.24261-.71571 3.08805.29534 4.10101 1.46399 1.46677 1.35277 2.14114-.54633 3.31237-3.34082 2.06038-3.44322 3.83414-.26831 4.648 2.56347.65714 2.53562.76839-.53227 2.12506-1.99072.88031-3.08946 2.53173-2.8533 4.28845.25058 1.86391-1.51203 4.08302-5.07134 6.3848-5.88198 3.80379-5.1559 4.88443 1.8874 2.8091 5.31001-1.5646 17.01281.88911 23.2586 4.87661 4.05399 2.58818 4.21045 3.03757 1.46078 4.19561-2.74489 1.156-2.41988 2.02611 2.99096 8.00714 3.33879 3.69063 5.5426 7.23714 4.89738 7.88114-.64523.64402.71598 5.4573 3.02489 10.69621 2.30893 5.2389 3.70084 10.25333 3.09313 11.14318-.60769.88984-.7522 4.91969-.32113 8.95524.85258 7.98164.16182 9.80869-2.03322 5.37776-2.01557-4.06863-4.5031-4.14527-4.41085-.13592.05764 2.50393-.46428 3.05672-1.93664 2.0512-1.41106-.96365-1.41608 1.11345-.01675 6.92584 1.09932 4.56627 1.86291 11.17109 1.69686 14.67738-.16606 3.50628.49872 10.26397 1.47728 15.01706 4.57598 22.22662-11.02149 41.35137-29.58253 36.27244l-5.15666-1.41105 6.12458.25311zm23.15061-60.90175c-1.65374-10.055-4.87445-16.47067-8.71898-17.3682-1.92865-.45025-4.95765-1.70106-6.73113-2.77957-5.48782-3.33737-4.31245.68964 2.74315 9.39844 3.685 4.54847 7.94776 10.442 9.47278 13.09675 3.55631 6.19084 4.52305 5.48917 3.23418-2.34742z" transform="translate(-11.1 429.53782)"/>
</svg>
