<?xml version="1.0" encoding="utf-8"?>
<!-- Generator: Adobe Illustrator 13.0.1, SVG Export Plug-In . SVG Version: 6.00 Build 14948)  -->
<!DOCTYPE svg PUBLIC "-//W3C//DTD SVG 1.1//EN" "http://www.w3.org/Graphics/SVG/1.1/DTD/svg11.dtd">
<svg version="1.1" id="Livello_7" xmlns="http://www.w3.org/2000/svg" xmlns:xlink="http://www.w3.org/1999/xlink" x="0px" y="0px"
	 width="326px" height="217px" viewBox="0 0 326 217" enable-background="new 0 0 326 217" xml:space="preserve">
<g id="Rosso">
	<polygon fill="#FF0000" points="326,144.367 326,0 109.117,0 	"/>
	<g id="Stelle_1_">
		<path fill="#FFFFFF" d="M170.374,2.047l3.485,10.634l10.961,0.1l-8.879,6.396l3.436,10.633l-9.104-6.596l-8.979,6.57l3.461-10.607
			l-9.003-6.571l11.11,0.075L170.374,2.047z"/>
		<path fill="#FFFFFF" d="M296.596,8.276l3.485,10.634l10.961,0.1l-8.879,6.396l3.436,10.633l-9.104-6.596l-8.979,6.57l3.461-10.607
			l-9.003-6.571l11.11,0.075L296.596,8.276z"/>
		<path fill="#FFFFFF" d="M296.596,58.765l3.485,10.634l10.961,0.1l-8.879,6.396l3.436,10.633l-9.104-6.596l-8.979,6.57
			l3.461-10.607l-9.003-6.571l11.11,0.075L296.596,58.765z"/>
		<path fill="#FFFFFF" d="M235.943,15.161l3.485,10.634l10.961,0.1l-8.879,6.396l3.436,10.633l-9.104-6.596l-8.979,6.57
			l3.461-10.607l-9.003-6.571l11.11,0.075L235.943,15.161z"/>
	</g>
</g>
<g id="Nero">
	<polygon points="0,72.558 216.997,217 326,217 326,144.366 109.117,0 0,0 	"/>
	<g id="Cerchi">
		<path fill="#FFFF00" d="M147.146,66.977c-0.513-2.716,1.268-5.328,3.982-5.845l0,0c2.714-0.512,5.328,1.268,5.843,3.983l0,0
			c0.514,2.713-1.268,5.328-3.98,5.842l0,0C150.274,71.471,147.662,69.689,147.146,66.977L147.146,66.977z M151.076,66.231
			c0.104,0.54,0.627,0.897,1.169,0.795l0,0c0.541-0.103,0.897-0.626,0.795-1.167l0,0c-0.103-0.543-0.626-0.9-1.167-0.797l0,0
			C151.331,65.165,150.975,65.688,151.076,66.231L151.076,66.231z"/>
		<path fill="#FFFF00" d="M138.896,70.925c-1.147-2.515-0.043-5.477,2.469-6.628l0,0c2.513-1.146,5.477-0.044,6.626,2.469l0,0
			c1.147,2.512,0.044,5.477-2.468,6.625l0,0C143.009,74.541,140.046,73.436,138.896,70.925L138.896,70.925z M142.535,69.261
			c0.229,0.5,0.823,0.722,1.325,0.492l0,0c0.501-0.229,0.722-0.823,0.492-1.323l0,0c-0.229-0.502-0.822-0.724-1.323-0.495l0,0
			C142.527,68.165,142.306,68.758,142.535,69.261L142.535,69.261z"/>
		<path fill="#FFFF00" d="M131.831,76.732c-1.715-2.167-1.352-5.307,0.812-7.026l0,0c2.165-1.714,5.307-1.353,7.024,0.812l0,0
			c1.714,2.164,1.352,5.307-0.812,7.022l0,0C136.69,79.259,133.548,78.895,131.831,76.732L131.831,76.732z M134.966,74.247
			c0.342,0.43,0.972,0.503,1.404,0.161l0,0c0.432-0.343,0.504-0.972,0.161-1.403l0,0c-0.343-0.433-0.972-0.506-1.403-0.163l0,0
			C134.696,73.183,134.624,73.813,134.966,74.247L134.966,74.247z"/>
		<path fill="#FFFF00" d="M126.36,84.061c-2.184-1.693-2.582-4.83-0.892-7.017l0,0c1.691-2.182,4.829-2.582,7.015-0.891l0,0
			c2.182,1.691,2.582,4.83,0.891,7.013l0,0C131.683,85.352,128.544,85.75,126.36,84.061L126.36,84.061z M128.81,80.898
			c0.435,0.335,1.063,0.256,1.402-0.18l0,0c0.337-0.437,0.257-1.064-0.18-1.401l0,0c-0.437-0.338-1.064-0.259-1.402,0.177l0,0
			C128.292,79.93,128.373,80.558,128.81,80.898L128.81,80.898z"/>
		<path fill="#FFFF00" d="M122.801,92.486c-2.525-1.122-3.663-4.072-2.544-6.6l0,0c1.12-2.523,4.071-3.662,6.598-2.543l0,0
			c2.522,1.12,3.662,4.072,2.542,6.597l0,0C128.279,92.466,125.326,93.603,122.801,92.486L122.801,92.486z M124.423,88.828
			c0.502,0.221,1.094-0.006,1.318-0.51l0,0c0.224-0.504-0.005-1.095-0.51-1.318l0,0c-0.504-0.224-1.095,0.003-1.318,0.508l0,0
			C123.689,88.012,123.917,88.603,124.423,88.828L124.423,88.828z"/>
		<path fill="#FFFF00" d="M121.361,101.517c-2.72-0.485-4.53-3.077-4.049-5.8l0,0c0.484-2.718,3.077-4.529,5.798-4.047l0,0
			c2.717,0.484,4.53,3.078,4.046,5.797l0,0C126.675,100.187,124.08,101.998,121.361,101.517L121.361,101.517z M122.061,97.578
			c0.54,0.095,1.061-0.268,1.158-0.811l0,0c0.097-0.543-0.267-1.062-0.811-1.158l0,0c-0.542-0.096-1.062,0.265-1.158,0.809l0,0
			C121.153,96.961,121.516,97.48,122.061,97.578L122.061,97.578z"/>
		<path fill="#FFFF00" d="M122.123,110.631c-2.757,0.179-5.135-1.904-5.318-4.663l0,0c-0.18-2.754,1.904-5.134,4.661-5.316l0,0
			c2.754-0.18,5.136,1.905,5.315,4.661l0,0C126.964,108.068,124.877,110.447,122.123,110.631L122.123,110.631z M121.86,106.638
			c0.548-0.037,0.966-0.514,0.931-1.064l0,0c-0.035-0.55-0.513-0.967-1.063-0.93l0,0c-0.549,0.036-0.967,0.512-0.931,1.062l0,0
			C120.831,106.257,121.308,106.674,121.86,106.638L121.86,106.638z"/>
		<path fill="#FFFF00" d="M125.042,119.297c-2.634,0.834-5.441-0.621-6.279-3.255l0,0c-0.833-2.631,0.621-5.44,3.254-6.277l0,0
			c2.631-0.834,5.442,0.621,6.276,3.254l0,0C129.13,115.651,127.673,118.46,125.042,119.297L125.042,119.297z M123.833,115.484
			c0.523-0.167,0.814-0.73,0.648-1.256l0,0c-0.165-0.525-0.729-0.816-1.255-0.648l0,0c-0.523,0.167-0.816,0.729-0.649,1.254l0,0
			C122.742,115.36,123.305,115.65,123.833,115.484L123.833,115.484z"/>
		<path fill="#FFFF00" d="M129.951,127.015c-2.357,1.439-5.432,0.699-6.876-1.66l0,0c-1.438-2.355-0.697-5.43,1.658-6.872l0,0
			c2.355-1.439,5.433-0.699,6.873,1.658l0,0C133.047,122.495,132.305,125.572,129.951,127.015L129.951,127.015z M127.864,123.601
			c0.468-0.287,0.616-0.903,0.329-1.375l0,0c-0.286-0.47-0.902-0.617-1.374-0.329l0,0c-0.468,0.286-0.618,0.903-0.33,1.372l0,0
			C126.775,123.741,127.391,123.888,127.864,123.601L127.864,123.601z"/>
		<path fill="#FFFF00" d="M136.562,133.333c-1.944,1.961-5.106,1.979-7.073,0.033l0,0c-1.959-1.943-1.976-5.105-0.034-7.069l0,0
			c1.943-1.96,5.108-1.978,7.07-0.034l0,0C138.488,128.204,138.503,131.37,136.562,133.333L136.562,133.333z M133.719,130.518
			c0.386-0.391,0.383-1.024-0.009-1.413l0,0c-0.391-0.389-1.024-0.385-1.413,0.008l0,0c-0.386,0.391-0.384,1.025,0.008,1.412l0,0
			C132.696,130.915,133.33,130.909,133.719,130.518L133.719,130.518z"/>
		<path fill="#FFFF00" d="M144.494,137.887c-1.419,2.369-4.485,3.143-6.86,1.724l0,0c-2.367-1.418-3.14-4.484-1.724-6.855l0,0
			c1.418-2.367,4.486-3.143,6.856-1.725l0,0C145.136,132.446,145.909,135.517,144.494,137.887L144.494,137.887z M141.06,135.833
			c0.28-0.472,0.126-1.086-0.347-1.369l0,0c-0.473-0.285-1.087-0.129-1.37,0.345l0,0c-0.281,0.472-0.128,1.087,0.345,1.369l0,0
			C140.161,136.464,140.775,136.306,141.06,135.833L141.06,135.833z"/>
		<path fill="#FFFF00" d="M153.285,140.411c-0.812,2.64-3.604,4.124-6.25,3.314l0,0c-2.637-0.811-4.121-3.604-3.312-6.244l0,0
			c0.811-2.639,3.604-4.125,6.244-3.314l0,0C152.606,134.975,154.091,137.771,153.285,140.411L153.285,140.411z M149.458,139.238
			c0.16-0.524-0.137-1.085-0.664-1.247l0,0c-0.527-0.164-1.086,0.135-1.247,0.663l0,0c-0.16,0.525,0.135,1.086,0.661,1.247l0,0
			C148.736,140.065,149.295,139.766,149.458,139.238L149.458,139.238z"/>
		<path fill="#FFFF00" d="M162.424,140.759c-0.157,2.758-2.513,4.867-5.276,4.713l0,0c-2.754-0.155-4.863-2.512-4.71-5.27l0,0
			c0.155-2.756,2.512-4.867,5.27-4.712l0,0C160.464,135.644,162.576,138.003,162.424,140.759L162.424,140.759z M158.428,140.536
			c0.03-0.549-0.393-1.021-0.943-1.053l0,0c-0.552-0.033-1.022,0.391-1.052,0.942l0,0c-0.03,0.548,0.391,1.022,0.94,1.053l0,0
			C157.924,141.511,158.396,141.087,158.428,140.536L158.428,140.536z"/>
		<path fill="#FFFF00" d="M171.381,138.911c0.508,2.715-1.275,5.326-3.996,5.838l0,0c-2.711,0.508-5.323-1.275-5.833-3.99l0,0
			c-0.508-2.713,1.275-5.326,3.99-5.836l0,0C168.254,134.413,170.869,136.198,171.381,138.911L171.381,138.911z M167.447,139.649
			c-0.102-0.539-0.625-0.896-1.168-0.795l0,0c-0.543,0.1-0.898,0.623-0.795,1.166l0,0c0.102,0.539,0.623,0.898,1.164,0.797l0,0
			C167.191,140.717,167.549,140.192,167.447,139.649L167.447,139.649z"/>
		<path fill="#FFFF00" d="M179.637,134.974c1.143,2.515,0.035,5.477-2.484,6.625l0,0c-2.512,1.141-5.473,0.034-6.619-2.479l0,0
			c-1.141-2.513-0.035-5.476,2.479-6.62l0,0C175.523,131.354,178.49,132.462,179.637,134.974L179.637,134.974z M175.992,136.632
			c-0.227-0.5-0.82-0.721-1.324-0.492l0,0c-0.502,0.227-0.723,0.819-0.492,1.322l0,0c0.227,0.499,0.82,0.723,1.32,0.494l0,0
			C176,137.729,176.221,137.134,175.992,136.632L175.992,136.632z"/>
		<path fill="#FFFF00" d="M186.711,129.176c1.711,2.168,1.344,5.31-0.828,7.026l0,0c-2.166,1.709-5.307,1.343-7.02-0.824l0,0
			c-1.709-2.166-1.346-5.308,0.822-7.02l0,0C181.852,126.646,184.996,127.011,186.711,129.176L186.711,129.176z M183.568,131.657
			c-0.34-0.432-0.969-0.504-1.404-0.161l0,0c-0.434,0.341-0.506,0.969-0.16,1.401l0,0c0.338,0.432,0.969,0.506,1.398,0.164l0,0
			C183.838,132.722,183.91,132.091,183.568,131.657L183.568,131.657z"/>
		<path fill="#FFFF00" d="M192.191,121.854c2.18,1.695,2.574,4.834,0.877,7.02l0,0c-1.693,2.178-4.832,2.574-7.012,0.879l0,0
			c-2.178-1.693-2.578-4.832-0.881-7.012l0,0C186.869,120.56,190.01,120.162,192.191,121.854L192.191,121.854z M189.734,125.015
			c-0.434-0.338-1.061-0.258-1.402,0.18l0,0c-0.34,0.436-0.26,1.062,0.18,1.398l0,0c0.432,0.34,1.062,0.26,1.396-0.175l0,0
			C190.25,125.984,190.17,125.354,189.734,125.015L189.734,125.015z"/>
		<path fill="#FFFF00" d="M195.762,113.434c2.521,1.125,3.656,4.078,2.531,6.606l0,0c-1.123,2.52-4.076,3.655-6.598,2.531l0,0
			c-2.52-1.124-3.66-4.075-2.533-6.598l0,0C190.285,113.45,193.238,112.312,195.762,113.434L195.762,113.434z M194.133,117.09
			c-0.502-0.224-1.092,0.003-1.318,0.51l0,0c-0.227,0.504,0,1.094,0.508,1.315l0,0c0.5,0.227,1.094-0.001,1.314-0.503l0,0
			C194.865,117.909,194.637,117.316,194.133,117.09L194.133,117.09z"/>
		<path fill="#FFFF00" d="M197.215,104.405c2.717,0.489,4.525,3.084,4.037,5.808l0,0c-0.486,2.715-3.084,4.524-5.801,4.036l0,0
			c-2.715-0.488-4.527-3.081-4.037-5.8l0,0C191.9,105.73,194.496,103.918,197.215,104.405L197.215,104.405z M196.508,108.344
			c-0.541-0.098-1.061,0.264-1.158,0.81l0,0c-0.1,0.544,0.262,1.062,0.807,1.156l0,0c0.541,0.101,1.062-0.263,1.156-0.804l0,0
			C197.414,108.963,197.051,108.443,196.508,108.344L196.508,108.344z"/>
		<path fill="#FFFF00" d="M196.465,95.29c2.756-0.176,5.133,1.912,5.311,4.674l0,0c0.176,2.753-1.912,5.13-4.668,5.306l0,0
			c-2.752,0.176-5.133-1.908-5.307-4.666l0,0C191.623,97.848,193.709,95.467,196.465,95.29L196.465,95.29z M196.721,99.284
			c-0.549,0.034-0.967,0.51-0.93,1.063l0,0c0.033,0.552,0.508,0.969,1.059,0.929l0,0c0.551-0.032,0.969-0.509,0.932-1.057l0,0
			C197.75,99.668,197.271,99.25,196.721,99.284L196.721,99.284z"/>
		<path fill="#FFFF00" d="M193.557,86.618c2.635-0.83,5.441,0.629,6.275,3.268l0,0c0.828,2.631-0.631,5.438-3.264,6.269l0,0
			c-2.631,0.829-5.441-0.625-6.27-3.261l0,0C189.467,90.26,190.924,87.45,193.557,86.618L193.557,86.618z M194.76,90.435
			c-0.523,0.165-0.816,0.727-0.648,1.255l0,0c0.166,0.528,0.727,0.819,1.252,0.649l0,0c0.527-0.163,0.818-0.726,0.65-1.249l0,0
			C195.852,90.562,195.287,90.271,194.76,90.435L194.76,90.435z"/>
		<path fill="#FFFF00" d="M188.658,78.895c2.361-1.436,5.434-0.691,6.875,1.671l0,0c1.434,2.357,0.689,5.432-1.67,6.867l0,0
			c-2.355,1.435-5.432,0.695-6.867-1.666l0,0C185.559,83.409,186.301,80.332,188.658,78.895L188.658,78.895z M190.74,82.312
			c-0.469,0.286-0.619,0.901-0.33,1.374l0,0c0.287,0.473,0.902,0.622,1.371,0.331l0,0c0.473-0.285,0.621-0.9,0.332-1.368l0,0
			C191.83,82.174,191.213,82.027,190.74,82.312L190.74,82.312z"/>
		<path fill="#FFFF00" d="M182.055,72.567c1.949-1.959,5.111-1.971,7.076-0.022l0,0c1.955,1.946,1.969,5.109,0.02,7.067l0,0
			c-1.943,1.957-5.107,1.975-7.066,0.026l0,0C180.125,77.691,180.109,74.526,182.055,72.567L182.055,72.567z M184.895,75.387
			c-0.387,0.39-0.387,1.023,0.008,1.413l0,0c0.393,0.391,1.025,0.388,1.41-0.007l0,0c0.391-0.389,0.389-1.023-0.004-1.408l0,0
			C185.92,74.993,185.285,74.997,184.895,75.387L184.895,75.387z"/>
		<path fill="#FFFF00" d="M174.129,68.002c1.424-2.368,4.492-3.136,6.865-1.714l0,0c2.365,1.421,3.135,4.489,1.711,6.857l0,0
			c-1.42,2.365-4.488,3.139-6.855,1.715l0,0C173.482,73.44,172.709,70.37,174.129,68.002L174.129,68.002z M177.561,70.062
			c-0.281,0.471-0.131,1.086,0.346,1.371l0,0c0.477,0.285,1.09,0.131,1.369-0.344l0,0c0.285-0.472,0.133-1.086-0.342-1.366l0,0
			C178.463,69.433,177.848,69.589,177.561,70.062L177.561,70.062z"/>
		<path fill="#FFFF00" d="M165.342,65.466c0.816-2.64,3.611-4.119,6.256-3.306l0,0c2.637,0.814,4.117,3.609,3.303,6.249l0,0
			c-0.814,2.636-3.607,4.122-6.248,3.306l0,0C166.016,70.9,164.529,68.104,165.342,65.466L165.342,65.466z M169.166,66.645
			c-0.16,0.525,0.133,1.086,0.664,1.249l0,0c0.531,0.162,1.09-0.134,1.246-0.662l0,0c0.166-0.526-0.131-1.086-0.658-1.244l0,0
			C169.893,65.819,169.332,66.118,169.166,66.645L169.166,66.645z"/>
		<path fill="#FFFF00" d="M156.203,65.106c0.161-2.758,2.521-4.863,5.284-4.707l0,0c2.755,0.16,4.861,2.52,4.701,5.277l0,0
			c-0.16,2.754-2.516,4.865-5.276,4.704l0,0C158.158,70.221,156.045,67.862,156.203,65.106L156.203,65.106z M160.199,65.335
			c-0.03,0.547,0.389,1.022,0.943,1.053l0,0c0.554,0.031,1.025-0.391,1.051-0.94l0,0c0.035-0.551-0.387-1.024-0.937-1.051l0,0
			C160.706,64.36,160.234,64.784,160.199,65.335L160.199,65.335z"/>
		<path fill="none" stroke="#FFFF00" stroke-width="6" stroke-linejoin="bevel" d="M172.354,138.375"/>
		<path fill="none" stroke="#FFFF00" stroke-width="6" stroke-linejoin="bevel" d="M119.323,103.075"/>
	</g>
	<g id="Freccia_SE">
		<polyline fill="none" stroke="#FFFF00" stroke-width="5" points="212.13,154.552 214.517,166.44 202.628,168.827 		"/>
		
			<line fill="none" stroke="#FFFF00" stroke-width="6" stroke-linejoin="bevel" x1="172.354" y1="138.375" x2="235.106" y2="180.146"/>
		
			<line fill="none" stroke="#FFFF00" stroke-width="6" stroke-linejoin="bevel" x1="76.378" y1="74.489" x2="119.323" y2="103.075"/>
		<polyline fill="none" stroke="#FFFF00" stroke-width="5" points="232.72,168.257 235.106,180.146 223.218,182.532 		"/>
		<polyline fill="none" stroke="#FFFF00" stroke-width="5" points="222.425,161.404 224.812,173.293 212.923,175.68 		"/>
	</g>
	<g id="Freccia_NW">
		<polyline fill="none" stroke="#FFFF00" stroke-width="5" points="105.354,53.47 102.968,41.581 114.856,39.194 		"/>
		<line fill="none" stroke="#FFFF00" stroke-width="6" stroke-linejoin="bevel" x1="145.13" y1="69.646" x2="82.378" y2="27.876"/>
		
			<line fill="none" stroke="#FFFF00" stroke-width="6" stroke-linejoin="bevel" x1="241.105" y1="133.532" x2="198.161" y2="104.946"/>
		<polyline fill="none" stroke="#FFFF00" stroke-width="5" points="84.765,39.765 82.378,27.876 94.267,25.489 		"/>
		<polyline fill="none" stroke="#FFFF00" stroke-width="5" points="95.06,46.617 92.673,34.729 104.562,32.342 		"/>
	</g>
	<g id="uccello">
		<path id="corpo" fill="#FFFF00" d="M159.721,128.275c0.992-2.117-0.7-5.979,0.486-7.166c3.267-3.267,10.388-10.752,12.527-15.762
			c0.934-2.186,2.312-0.979,0.347-7.485l3.057-7.688c0,0,6.876-2.042,0-8.429c-1.297-1.205-12.411-0.093-13.245,6.205
			c0,0-9.386,0.217-9.386,3.458c0,0-6.225-1.92-8.126-2.043c-2.344-0.152-8.312,0.605-8.312,0.605c0,0,9.646,3.229,10.396,8.312
			c0,0-6.269-5.238-9.394-5.238c-0.556,0,1.686,1.896,6.854,10.821c0.497,0.858,0.948,8.319-3.211,9.734
			c-4.212,1.433-10.107,6.54-10.107,6.541c0,0,0.103,4.849,0.103,4.849s5.924,6.043,5.923,6.043l15.814,8.663
			c0,0,3.074-2.862,3.358-4.171C157.219,133.615,157.219,133.615,159.721,128.275z"/>
		<path fill="none" stroke="#000000" d="M137.952,129.104c0,0,7.991-6.052,11.881-2.161"/>
		<path fill="none" stroke="#000000" d="M162.893,87.95c0,0,3.983-0.557,3.983,1.574"/>
		<ellipse transform="matrix(0.8868 -0.4622 0.4622 0.8868 -27.0815 84.1849)" cx="158.276" cy="97.364" rx="1.529" ry="2.687"/>
	</g>
</g>
<g id="Verde">
	<polygon fill="#00CE00" points="0,72.558 0,217 216.997,217 	"/>
	<g id="Stelle">
		<path fill="#FFFFFF" d="M146.786,186.298l3.486,10.634l10.96,0.1l-8.878,6.396l3.436,10.633l-9.104-6.596l-8.979,6.57
			l3.461-10.607l-9.003-6.571l11.11,0.075L146.786,186.298z"/>
		<path fill="#FFFFFF" d="M69.725,180.068l3.486,10.634l10.96,0.1l-8.878,6.396l3.436,10.633l-9.104-6.596l-8.979,6.57l3.461-10.607
			l-9.003-6.571l11.11,0.075L69.725,180.068z"/>
		<path fill="#FFFFFF" d="M20.548,138.432l3.486,10.634l10.96,0.1l-8.878,6.396l3.436,10.633l-9.104-6.596l-8.979,6.57l3.461-10.607
			l-9.003-6.571l11.11,0.075L20.548,138.432z"/>
	</g>
</g>
</svg>
