<svg xmlns="http://www.w3.org/2000/svg" width="507.11865" height="340" version="1.0">
  <path style="opacity:1;color:#000;fill:navy;fill-opacity:1;fill-rule:nonzero;stroke:none;stroke-width:4;stroke-linecap:butt;stroke-linejoin:miter;marker:none;marker-start:none;marker-mid:none;marker-end:none;stroke-miterlimit:4;stroke-dasharray:none;stroke-dashoffset:0;stroke-opacity:1;visibility:visible;display:inline;overflow:visible;enable-background:accumulate" d="M22.857143 378.07648h507.11865v340H22.857143z" transform="translate(-22.857143 -378.07648)"/>
  <path style="opacity:1;color:#000;fill:#ff7f2a;fill-opacity:1;fill-rule:nonzero;stroke:none;stroke-width:4;stroke-linecap:butt;stroke-linejoin:miter;marker:none;marker-start:none;marker-mid:none;marker-end:none;stroke-miterlimit:4;stroke-dasharray:none;stroke-dashoffset:0;stroke-opacity:1;visibility:visible;display:inline;overflow:visible;enable-background:accumulate" d="M151.52289 377.58029h382.32156v341.43158H151.52289z" transform="translate(-22.857143 -378.07648)"/>
  <path transform="matrix(.8277 0 0 .8277 -2.656285 -2.093644)" d="M92.934037 96.757876 78.631384 85.67797 63.947817 96.247882l6.117854-17.02651-14.590054-10.69862 18.083694.556944 5.666417-17.182022 5.058483 17.37072 18.092089.079546-14.957375 10.178752 5.515112 17.231184z" style="opacity:1;color:#000;fill:#fff;fill-opacity:1;fill-rule:nonzero;stroke:none;stroke-width:4;stroke-linecap:butt;stroke-linejoin:miter;marker:none;marker-start:none;marker-mid:none;marker-end:none;stroke-miterlimit:4;stroke-dasharray:none;stroke-dashoffset:0;stroke-opacity:1;visibility:visible;display:inline;overflow:visible;enable-background:accumulate"/>
  <path transform="matrix(.8277 0 0 .8277 -41.656285 59.90636)" d="M92.934037 96.757876 78.631384 85.67797 63.947817 96.247882l6.117854-17.02651-14.590054-10.69862 18.083694.556944 5.666417-17.182022 5.058483 17.37072 18.092089.079546-14.957375 10.178752 5.515112 17.231184z" style="opacity:1;color:#000;fill:#fff;fill-opacity:1;fill-rule:nonzero;stroke:none;stroke-width:4;stroke-linecap:butt;stroke-linejoin:miter;marker:none;marker-start:none;marker-mid:none;marker-end:none;stroke-miterlimit:4;stroke-dasharray:none;stroke-dashoffset:0;stroke-opacity:1;visibility:visible;display:inline;overflow:visible;enable-background:accumulate"/>
  <path transform="matrix(.8277 0 0 .8277 36.843715 59.406356)" d="M92.934037 96.757876 78.631384 85.67797 63.947817 96.247882l6.117854-17.02651-14.590054-10.69862 18.083694.556944 5.666417-17.182022 5.058483 17.37072 18.092089.079546-14.957375 10.178752 5.515112 17.231184z" style="opacity:1;color:#000;fill:#fff;fill-opacity:1;fill-rule:nonzero;stroke:none;stroke-width:4;stroke-linecap:butt;stroke-linejoin:miter;marker:none;marker-start:none;marker-mid:none;marker-end:none;stroke-miterlimit:4;stroke-dasharray:none;stroke-dashoffset:0;stroke-opacity:1;visibility:visible;display:inline;overflow:visible;enable-background:accumulate"/>
  <path transform="matrix(.8277 0 0 .8277 16.316227 115.76497)" d="M92.934037 96.757876 78.631384 85.67797 63.947817 96.247882l6.117854-17.02651-14.590054-10.69862 18.083694.556944 5.666417-17.182022 5.058483 17.37072 18.092089.079546-14.957375 10.178752 5.515112 17.231184z" style="opacity:1;color:#000;fill:#fff;fill-opacity:1;fill-rule:nonzero;stroke:none;stroke-width:4;stroke-linecap:butt;stroke-linejoin:miter;marker:none;marker-start:none;marker-mid:none;marker-end:none;stroke-miterlimit:4;stroke-dasharray:none;stroke-dashoffset:0;stroke-opacity:1;visibility:visible;display:inline;overflow:visible;enable-background:accumulate"/>
  <path transform="matrix(.8277 0 0 .8277 -2.183773 209.26497)" d="M92.934037 96.757876 78.631384 85.67797 63.947817 96.247882l6.117854-17.02651-14.590054-10.69862 18.083694.556944 5.666417-17.182022 5.058483 17.37072 18.092089.079546-14.957375 10.178752 5.515112 17.231184z" style="opacity:1;color:#000;fill:#fff;fill-opacity:1;fill-rule:nonzero;stroke:none;stroke-width:4;stroke-linecap:butt;stroke-linejoin:miter;marker:none;marker-start:none;marker-mid:none;marker-end:none;stroke-miterlimit:4;stroke-dasharray:none;stroke-dashoffset:0;stroke-opacity:1;visibility:visible;display:inline;overflow:visible;enable-background:accumulate"/>
  <path style="fill:#000" d="M282.86434 575.82822c-.57857-1.47208-.64782-3.70891-.15389-4.97071.49393-1.26179.29312-2.29417-.44625-2.29417-.73935 0-1.74841 1.03238-2.24235 2.29417-1.13183 2.89143-5.67651 3.02245-5.67651.16364 0-3.11674-4.37628-4.24865-5.92661-1.53293-1.18118 2.06907-1.55739 2.05704-3.39061-.10836-1.74744-2.06405-1.53194-2.9888 1.4126-6.06137l3.47462-3.62571-8.10691-1.70438c-4.82601-1.01461-12.29579-4.45631-18.45739-8.50425-5.69278-3.73994-14.11078-7.7407-18.70667-8.89057l-8.35618-2.09067 8.74195-4.3359c10.95487-5.4335 17.14368-5.28802 30.21941.71033 13.20556 6.05791 18.10611 6.07272 20.64568.06238 3.01329-7.13142 18.46544-21.11835 28.82934-26.09564 16.45015-7.90025 39.00343-9.62655 52.52806-4.02065l5.24293 2.17318-4.68054.99466c-2.5743.54706-8.19096 1.74903-12.48145 2.67104-10.98993 2.36171-24.10654 9.5024-32.07474 17.46148-8.83261 8.82252-4.98046 8.85094 7.35169.05422 13.96594-9.96211 21.92508-13.46171 32.51033-14.29465 9.46085-.74447 27.31679 1.89449 27.31679 4.0372 0 .62794-3.78423 2.31108-8.40938 3.74031-4.62515 1.42924-11.82148 5.25151-15.99185 8.49395-10.44684 8.12234-25.43357 15.24004-35.249 16.74094l-8.21764 1.25657 7.02081 1.95843c8.74751 2.4401 19.60627 1.27972 28.1882-3.01223 4.9311-2.46611 6.85096-2.81729 7.73511-1.41487.79939 1.26795 3.3549 1.54995 7.97931.88047 3.74179-.5417 12.06887-.25089 18.50461.64624 25.21626 3.51513 32.66574 3.43393 55.12211-.6008 11.86802-2.13233 22.57476-4.68773 23.79276-5.67865 3.14849-2.56156 2.79476.59081-.51578 4.59644-2.78344 3.36785-21.89792 9.27091-30.0198 9.27091-2.25382 0-5.45981.9763-7.12445 2.16954-2.90591 2.083-2.85057 2.21285 1.38754 3.25559 2.42782.59734 9.09674.64769 14.81984.11189 5.7231-.53579 14.96917-1.30601 20.54682-1.71155l10.14118-.73739-6.97867 3.25092c-3.83826 1.78799-13.21313 4.2814-20.83302 5.54091-12.6446 2.09005-16.19038 2.04833-40.60686-.47777-14.71386-1.52228-35.89963-3.04039-47.07948-3.37354-19.00674-.5664-20.51714-.39979-23.25448 2.56536-3.40817 3.6918-6.02575 4.01752-8.52852 1.06126-3.94897-4.66451-19.62183-3.93447-24.81442 1.15584-1.98493 1.94582-2.03679 2.73149-.31464 4.76569 1.62216 1.91608 1.65605 2.82982.15887 4.28276-1.48909 1.44507-2.23851 1.26454-3.44381-.82956-.84731-1.47208-2.87494-2.67653-4.50585-2.67653-1.63092 0-3.65507 1.20445-4.49809 2.67653-1.45981 2.5491-1.58289 2.5491-2.58472 0z" transform="translate(-22.857143 -378.07648)"/>
</svg>
