<svg xmlns="http://www.w3.org/2000/svg" width="487.40701" height="324.93799" version="1.0">
  <path style="color:#000;fill:#fd5;fill-opacity:1;fill-rule:nonzero;stroke:none;stroke-width:1.79999995;marker:none;visibility:visible;display:inline;overflow:visible;enable-background:accumulate" d="M91.227417 442.69122h487.40701v324.93799H91.227417z" transform="translate(-91.227417 -442.69122)"/>
  <path style="fill:#000;fill-rule:evenodd;stroke:#000;stroke-width:.71118957px;stroke-linecap:butt;stroke-linejoin:miter;stroke-opacity:1" d="M373.76955 514.43414s-59.05769 27.38877-59.81484 96.19475c-.75715 68.80597-.75715 40.08115-.75715 40.08115s29.52884-27.38879 62.08629-52.1055c32.55745-24.7167 17.41445-59.4537 17.41445-59.4537s-17.41445 42.0852-31.04314 29.39285c-13.62871-12.69237 13.62869-54.10955 12.11439-54.10955z" transform="translate(-91.227417 -442.69122)"/>
  <path d="m167.41421 254.36218 46 2v-10l60-7v20l36.29856-.37381v31.1127l-70.00357-1.41421s-19.09189-3.53554-24.04164-10.6066c-4.94974-7.07107-17.67766-13.43503-17.67766-13.43503l-28.99138-.70711-1.58431-9.57594z" style="fill:#000;fill-rule:evenodd;stroke:#000;stroke-width:1px;stroke-linecap:butt;stroke-linejoin:miter;stroke-opacity:1" transform="matrix(.69605 0 0 .66802 28.122113 34.87411)"/>
  <path d="m451.57272 254.27579-46 2v-10l-60-7v20l-36.29855-.37381v31.1127l70.00356-1.41421s19.09189-3.53554 24.04164-10.6066c4.94974-7.07107 17.67766-13.43503 17.67766-13.43503l28.99138-.70711 1.58431-9.57594z" style="fill:#000;fill-rule:evenodd;stroke:#000;stroke-width:1px;stroke-linecap:butt;stroke-linejoin:miter;stroke-opacity:1" transform="matrix(.69605 0 0 .66802 28.122113 34.87411)"/>
  <path style="color:#000;fill:#000;fill-opacity:1;fill-rule:nonzero;stroke:none;stroke-width:1.79999995;marker:none;visibility:visible;display:inline;overflow:visible;enable-background:accumulate" d="M326.89746 541.63855h5.8892446v109.11536H326.89746z" transform="translate(-91.227417 -442.69122)"/>
  <path style="color:#000;fill:none;stroke:#000;stroke-width:1.79999995;stroke-linecap:butt;stroke-linejoin:miter;stroke-miterlimit:4;stroke-opacity:1;stroke-dasharray:none;stroke-dashoffset:0;marker:none;visibility:visible;display:inline;overflow:visible;enable-background:accumulate" d="M473.05444 619.61285a136.82516 124.45079 0 1 1-273.65033 0 136.82516 124.45079 0 1 1 273.65033 0z" transform="matrix(.9998 0 0 1.06228 -92.4577756 -495.732885)"/>
  <text transform="matrix(-.3673 -.9301 .9301 -.3673 -118.782698 -423.780118)" y="10.504725" x="-688.50995" style="font-size:20.00000191px;font-style:normal;font-weight:400;fill:#000;fill-opacity:1;stroke:none;font-family:Bitstream Vera Sans" xml:space="preserve"><tspan y="10.504725" x="-688.50995">N</tspan></text>
  <text transform="matrix(-.35065 -.9365 .9365 -.35065 -118.782698 -423.780118)" y="21.920527" x="-672.88867" style="font-size:20px;font-style:normal;font-weight:400;fill:#000;fill-opacity:1;stroke:none;font-family:Bitstream Vera Sans" xml:space="preserve"><tspan y="21.920527" x="-672.88867">A</tspan></text>
  <text transform="matrix(-.148 -.98899 .98899 -.148 -118.782698 -423.780118)" y="160.33592" x="-640.30627" style="font-size:20.00000191px;font-style:normal;font-weight:400;fill:#000;fill-opacity:1;stroke:none;font-family:Bitstream Vera Sans" xml:space="preserve"><tspan y="160.33592" x="-640.30627">T</tspan></text>
  <text transform="rotate(-95.6810314 -251.2486631 -158.11370515) skewX(.0000165)" y="191.02011" x="-618.17047" style="font-size:20px;font-style:normal;font-weight:400;fill:#000;fill-opacity:1;stroke:none;font-family:Bitstream Vera Sans" xml:space="preserve"><tspan y="191.02011" x="-618.17047">I</tspan></text>
  <text transform="rotate(-91.871086 -264.47235525 -154.40717166) skewX(.0000054)" y="232.05864" x="-598.92145" style="font-size:20px;font-style:normal;font-weight:400;fill:#000;fill-opacity:1;stroke:none;font-family:Bitstream Vera Sans" xml:space="preserve"><tspan y="232.05864" x="-598.92145">O</tspan></text>
  <text transform="matrix(.16565 -.98618 .98618 .16565 -118.782698 -423.780118)" y="344.07074" x="-525.14148" style="font-size:20px;font-style:normal;font-weight:400;fill:#000;fill-opacity:1;stroke:none;font-family:Bitstream Vera Sans" xml:space="preserve"><tspan y="344.07074" x="-525.14148">N</tspan></text>
  <text transform="matrix(.27564 -.96126 .96126 .27564 -118.782698 -423.780118)" y="398.48648" x="-468.95364" style="font-size:19.99999809px;font-style:normal;font-weight:400;fill:#000;fill-opacity:1;stroke:none;font-family:Bitstream Vera Sans" xml:space="preserve"><tspan y="398.48648" x="-468.95364">A</tspan></text>
  <text transform="matrix(.43746 -.89924 .89924 .43746 -118.782698 -423.780118)" y="471.02753" x="-380.4104" style="font-size:20px;font-style:normal;font-weight:400;fill:#000;fill-opacity:1;stroke:none;font-family:Bitstream Vera Sans" xml:space="preserve"><tspan y="471.02753" x="-380.4104">L</tspan></text>
  <g>
    <text y="494.09097" x="335.58282" style="font-size:20px;font-style:normal;font-weight:400;fill:#000;fill-opacity:1;stroke:none;font-family:Bitstream Vera Sans" xml:space="preserve" transform="matrix(1 0 0 1 -94.6466928 -440.8805735)"><tspan y="494.09097" x="335.58282">D</tspan></text>
    <text transform="rotate(10.521401 2346.88596489 -734.43735714)" y="422.64215" x="434.33243" style="font-size:20px;font-style:normal;font-weight:400;fill:#000;fill-opacity:1;stroke:none;font-family:Bitstream Vera Sans" xml:space="preserve"><tspan y="422.64215" x="434.33243">I</tspan></text>
    <text transform="rotate(18.9617663 1272.69361648 -503.82168187) skewX(.000051)" y="352.75809" x="497.08377" style="font-size:20px;font-style:normal;font-weight:400;fill:#000;fill-opacity:1;stroke:none;font-family:Bitstream Vera Sans" xml:space="preserve"><tspan y="352.75809" x="497.08377">S</tspan></text>
    <text transform="rotate(19.7541353 1218.74456746 -492.23950968)" y="344.90335" x="515.00397" style="font-size:20px;font-style:normal;font-weight:400;fill:#000;fill-opacity:1;stroke:none;font-family:Bitstream Vera Sans" xml:space="preserve"><tspan y="344.90335" x="515.00397">T</tspan></text>
    <text transform="rotate(28.4037068 823.73229562 -407.43711225)" y="260.59891" x="572.59528" style="font-size:20.00000381px;font-style:normal;font-weight:400;fill:#000;fill-opacity:1;stroke:none;font-family:Bitstream Vera Sans" xml:space="preserve"><tspan y="260.59891" x="572.59528">R</tspan></text>
    <text transform="rotate(33.9611588 674.58065233 -375.41712253) skewX(.000077)" y="201.65916" x="607.73163" style="font-size:20px;font-style:normal;font-weight:400;fill:#000;fill-opacity:1;stroke:none;font-family:Bitstream Vera Sans" xml:space="preserve"><tspan y="201.65916" x="607.73163">I</tspan></text>
    <text transform="rotate(38.6786878 580.7730352 -355.27852924) skewX(.000081)" y="149.45378" x="627.17102" style="font-size:19.99999619px;font-style:normal;font-weight:400;fill:#000;fill-opacity:1;stroke:none;font-family:Bitstream Vera Sans" xml:space="preserve"><tspan y="149.45378" x="627.17102">C</tspan></text>
    <text transform="matrix(.7433 .66896 -.66896 .7433 -94.6466928 -440.8805735)" y="111.48384" x="649.15332" style="font-size:20px;font-style:normal;font-weight:400;fill:#000;fill-opacity:1;stroke:none;font-family:Bitstream Vera Sans" xml:space="preserve"><tspan y="111.48384" x="649.15332">T</tspan></text>
  </g>
  <g>
    <text transform="rotate(52.365716 401.0091324 -316.68693983)" y="-10.90761" x="687.38214" style="font-size:20px;font-style:normal;font-weight:400;fill:#000;fill-opacity:1;stroke:none;font-family:Bitstream Vera Sans" xml:space="preserve"><tspan y="-10.90761" x="687.38214">C</tspan></text>
    <text transform="rotate(67.198407 284.4759638 -291.6697948) skewX(.0000594)" y="-190.07162" x="672.60291" style="font-size:20px;font-style:normal;font-weight:400;fill:#000;fill-opacity:1;stroke:none;font-family:Bitstream Vera Sans" xml:space="preserve"><tspan y="-190.07162" x="672.60291">O</tspan></text>
    <text transform="rotate(65.6210651 294.59496823 -293.84210845) skewX(.0000625)" y="-170.91678" x="691.60144" style="font-size:20.00000572px;font-style:normal;font-weight:400;fill:#000;fill-opacity:1;stroke:none;font-family:Bitstream Vera Sans" xml:space="preserve"><tspan y="-170.91678" x="691.60144">M</tspan></text>
    <text transform="rotate(81.8842008 206.7823569 -274.99077166)" y="-361.59058" x="631.77466" style="font-size:20px;font-style:normal;font-weight:400;fill:#000;fill-opacity:1;stroke:none;font-family:Bitstream Vera Sans" xml:space="preserve"><tspan y="-361.59058" x="631.77466">M</tspan></text>
    <text transform="rotate(86.0942414 188.68049418 -271.10472228) skewX(.0000113)" y="-408.27124" x="619.32605" style="font-size:20px;font-style:normal;font-weight:400;fill:#000;fill-opacity:1;stroke:none;font-family:Bitstream Vera Sans" xml:space="preserve"><tspan y="-408.27124" x="619.32605">I</tspan></text>
    <text transform="rotate(90.653387 170.61733017 -267.22697499)" y="-457.22333" x="591.43195" style="font-size:20px;font-style:normal;font-weight:400;fill:#000;fill-opacity:1;stroke:none;font-family:Bitstream Vera Sans" xml:space="preserve"><tspan y="-457.22333" x="591.43195">S</tspan></text>
    <text transform="rotate(99.682842 138.69014337 -260.37298677) skewX(-.0000275)" y="-546.86267" x="524.48492" style="font-size:20px;font-style:normal;font-weight:400;fill:#000;fill-opacity:1;stroke:none;font-family:Bitstream Vera Sans" xml:space="preserve"><tspan y="-546.86267" x="524.48492">S</tspan></text>
    <text transform="matrix(.35065 -.9365 .9365 .35065 -94.6466928 -440.8805735)" y="653.60162" x="-429.89456" style="font-size:20px;font-style:normal;font-weight:400;fill:#000;fill-opacity:1;stroke:none;font-family:Bitstream Vera Sans" xml:space="preserve"><tspan y="653.60162" x="-429.89456">I</tspan></text>
    <text transform="rotate(116.3795302 89.40993662 -249.79371856) skewX(-.0000661)" y="-681.99005" x="361.4097" style="font-size:20px;font-style:normal;font-weight:400;fill:#000;fill-opacity:1;stroke:none;font-family:Bitstream Vera Sans" xml:space="preserve"><tspan y="-681.99005" x="361.4097">O</tspan></text>
    <text transform="rotate(113.7966623 96.38901897 -251.29195123)" y="-665.16919" x="406.92554" style="font-size:20px;font-style:normal;font-weight:400;fill:#000;fill-opacity:1;stroke:none;font-family:Bitstream Vera Sans" xml:space="preserve"><tspan y="-665.16919" x="406.92554">N</tspan></text>
  </g>
  <g>
    <text transform="matrix(.96754 -.25272 .25272 .96754 -93.6466941 -444.8805744)" y="797.15771" x="156.79547" style="font-size:48px;font-style:normal;font-weight:400;fill:#000;fill-opacity:1;stroke:none;font-family:Bitstream Vera Sans" xml:space="preserve"><tspan y="797.15771" x="156.79547">D</tspan></text>
    <text transform="rotate(35.7632072 642.62288137 -367.5686268)" y="418.49088" x="606.43854" style="font-size:48px;font-style:normal;font-weight:400;fill:#000;fill-opacity:1;stroke:none;font-family:Bitstream Vera Sans" xml:space="preserve"><tspan y="418.49088" x="606.43854">N</tspan></text>
    <text transform="rotate(10.9742997 2268.8197136 -709.8942513) skewX(.000031)" y="654.87103" x="427.72174" style="font-size:48px;font-style:normal;font-weight:400;fill:#000;fill-opacity:1;stroke:none;font-family:Bitstream Vera Sans" xml:space="preserve"><tspan y="654.87103" x="427.72174">C</tspan></text>
    <text transform="matrix(.77092 -.63693 .63693 .77092 -93.6466941 -444.8805744)" y="809.83734" x="-140.8665" style="font-size:48px;font-style:normal;font-weight:400;fill:#000;fill-opacity:1;stroke:none;font-family:Bitstream Vera Sans" xml:space="preserve"><tspan y="809.83734" x="-140.8665">C</tspan></text>
  </g>
  <g>
    <text transform="rotate(-47.7144963 -545.77930745 -113.43387767)" y="544.40607" x="-232.39449" style="font-size:19.99999046px;font-style:normal;font-weight:400;fill:#000;fill-opacity:1;stroke:none;font-family:Bitstream Vera Sans" xml:space="preserve"><tspan y="544.40607" x="-232.39449">C</tspan></text>
    <text transform="rotate(-41.0848787 -635.589787 -94.1539378)" y="565.01575" x="-154.86873" style="font-size:19.99999428px;font-style:normal;font-weight:400;fill:#000;fill-opacity:1;stroke:none;font-family:Bitstream Vera Sans" xml:space="preserve"><tspan y="565.01575" x="-154.86873">A</tspan></text>
    <text transform="rotate(-36.1952385 -721.85742874 -75.63451602)" y="574.2937" x="-81.255287" style="font-size:19.99999046px;font-style:normal;font-weight:400;fill:#000;fill-opacity:1;stroke:none;font-family:Bitstream Vera Sans" xml:space="preserve"><tspan y="574.2937" x="-81.255287">I</tspan></text>
    <text transform="matrix(.85919 -.51166 .51166 .85919 -94.6466928 -440.8805735)" y="579.27802" x="-20.918634" style="font-size:19.99999046px;font-style:normal;font-weight:400;fill:#000;fill-opacity:1;stroke:none;font-family:Bitstream Vera Sans" xml:space="preserve"><tspan y="579.27802" x="-20.918634">T</tspan></text>
    <text transform="rotate(-29.1306768 -895.71349257 -38.3125045)" y="580.24139" x="5.4846239" style="font-size:19.99999046px;font-style:normal;font-weight:400;fill:#000;fill-opacity:1;stroke:none;font-family:Bitstream Vera Sans" xml:space="preserve"><tspan y="580.24139" x="5.4846239">A</tspan></text>
    <text transform="matrix(.74167 -.67077 .67077 .74167 -94.6466928 -440.8805735)" y="562.52063" x="-151.39236" style="font-size:19.99998474px;font-style:normal;font-weight:400;fill:#000;fill-opacity:1;stroke:none;font-family:Bitstream Vera Sans" xml:space="preserve"><tspan y="562.52063" x="-151.39236">P</tspan></text>
    <text transform="rotate(-12.1235003 -2123.20445858 225.19074658)" y="549.7027" x="187.63899" style="font-size:19.99999046px;font-style:normal;font-weight:400;fill:#000;fill-opacity:1;stroke:none;font-family:Bitstream Vera Sans" xml:space="preserve"><tspan y="549.7027" x="187.63899">L</tspan></text>
  </g>
</svg>
