<svg xmlns="http://www.w3.org/2000/svg" version="1.0" width="661" height="440">
  <path style="color:#000;fill:#d40000;fill-opacity:1;fill-rule:nonzero;stroke:none;stroke-width:3.82986999;stroke-linecap:butt;stroke-linejoin:miter;marker:none;marker-start:none;marker-mid:none;marker-end:none;stroke-miterlimit:4;stroke-dasharray:none;stroke-dashoffset:0;stroke-opacity:1;visibility:visible;display:inline;overflow:visible" d="M0 0h661v440H0z"/>
  <path style="fill:#2d5016;fill-opacity:1;fill-rule:evenodd;stroke:none;stroke-width:1px;stroke-linecap:butt;stroke-linejoin:miter;stroke-opacity:1" d="M-.5 441.02714 662.02772-.50000262l.50116 442.02888262L-.5 441.02714z"/>
  <path transform="rotate(3.20857361 129.44501452 905.861153)" d="m353.51352 307.02703-59.42368-30.24159-56.1896 35.89508-3.52185-66.58322-59.18085-30.71408 55.90183-36.34162-2.99125-66.60916 59.42368 30.24159 56.1896-35.89508 3.52185 66.58322 59.18085 30.71408-55.90183 36.34162 2.99125 66.60916z" style="color:#000;fill:#fc0;fill-opacity:1;fill-rule:nonzero;stroke:none;stroke-width:.995;stroke-linecap:butt;stroke-linejoin:round;marker:none;marker-start:none;marker-mid:none;marker-end:none;stroke-miterlimit:4;stroke-dasharray:none;stroke-dashoffset:0;stroke-opacity:1;visibility:visible;display:inline;overflow:visible;enable-background:accumulate"/>
  <path style="fill:#a0892c;stroke:#000" d="M316.01031 261.62334c-6.65038-8.51557-4.88684-4.06916-12.34737-6.38912-5.10887-1.58867 12.2272-6.02591 14.08646-8.64216.39315-3.05436 5.37642-5.58617 6.37858-8.45667 8.36205-8.53873-3.94573-5.86352-9.46899-9.56181-5.02468-3.36444-1.38456-11.48352-.21363-16.73066.72466-3.24733 5.1073-5.24035 3.06894-12.72753-.94197 1.98855-7.31836 4.80351-9.77233 9.82451-2.40398 4.91875-.88535 12.04506-1.88553 13.96847 2.01354 3.59598 8.60517 8.39119 12.0744 10.04305-2.75767 4.29868-5.64891 10.51914-11.12935 8.14108-7.21887-3.1324-1.85856-6.06538-3.84894-8.39522-2.10543-3.83595-4.94475-6.15709-5.03639-11.4174-.22063-12.6646 5.31654-22.28584 7.72979-25.8455 8.26563-12.1922 14.22185-10.76164 16.06707-14.05064.4588-4.79659-5.51788 1.79732-4.40257-7.97622-.05647-5.39073 6.11271-13.84177 10.92969-15.55379 3.58152.16644 7.964 5.61268 7.43356 10.05509 1.91896 2.56769 1.00081 7.32904-.72689 9.50279-2.9982 1.8308-4.9924 4.11131-5.43445 7.76799-.29686 3.78169.74244 5.66941.85834 9.62341 1.55179 2.71531-.3382 7.46506-2.13015 12.74562.28621 5.88765.56728 8.13825 1.93251 13.7441-.54659 4.66395 7.72068 9.22782 5.81219 13.59069-1.7244 4.6633-6.40913 9.66909-8.89922 13.97023-.0031 3.15869 7.60175.4845 9.89006 1.23937 2.911-.81405 3.26251 8.44436.60814 10.18384-2.51485 2.55079-8.28465-1.224-11.96564-1.6133-1.65674-.02814-8.00239 3.38629-9.60828 2.95978z" transform="translate(-3.0577591 10.70217438)"/>
  <path style="fill:#000" d="M314.09052 230.77002c2.38395-1.72583 4.71772-3.09757 5.3919-3.48734 4.15484-2.39345 9.3288-5.35356 12.9074-8.45503 2.64422-1.10104 3.85506-3.56003 4.95827-6.01005 2.61408-2.09437 6.05667-6.71237 5.88701-9.26645-.51759-2.58715-2.06721-4.93918-1.85389-7.71581 1.5417-2.54932 4.3294 2.26434 4.04203 4.1058.40919 2.00655-1.32322 4.71138-.11522 6.13698 1.68486-2.06317 2.19838-4.7673 2.87876-7.24259-.68645-2.80245 2.01452-5.58892 1.19436-8.34631 1.81527-5.47241.48609-8.20604 2.56502-12.15179.32549-1.04702 1.71967-5.22591 2.43714-2.56976-.56531 3.84195-1.68718 7.72609-1.22516 11.64033-.10772 3.71537-1.35445 7.93498-2.02331 10.69254.10296 1.31343-1.67968 4.47727 1.012 2.15877 1.5127-1.0194 2.53719-4.23416 4.6293-2.76576.11868 2.56417-5.80851 5.10477-7.85104 6.57093-2.38563 4.37475-6.48811 5.87537-8.18134 9.1643-.84536 2.09936-1.52216 3.87361-2.89322 5.73383-2.32015 3.10835-7.87258 3.91327-9.95927 7.23138-1.49099 1.60433-5.79634 4.61309-10.47211 7.75392-.97944-1.18049-2.50158-2.05998-3.32863-3.17789z" transform="translate(-3.0577591 10.70217438)"/>
  <path style="fill:#639600;fill-opacity:1;fill-rule:evenodd;stroke:#250;stroke-width:1px;stroke-linecap:butt;stroke-linejoin:miter;stroke-opacity:1" d="M346.01262 164.12013s7.29435 2.86118 6.13165 11.6632c-.25647 1.94157 5.0191-3.63145 5.64959-4.55706 2.19729-3.22581-.05136-8.7698-4.11409-9.35019-4.25433-.60776-3.97383-2.38429-9.16318-1.87003-3.71078.36774-6.17112 4.67509-6.17112 4.67509s4.22048-2.1796 5.98412 4.48809c1.01141 3.82378 4.791 6.96225 7.42896 6.5204 3.30669-.55386-2.77876-13.05308-5.74593-11.5695zM350.50071 201.8949s-2.87966-7.50137 1.30903-9.7242c4.04206-2.14502 4.71508-5.82191 8.78917-6.17112 4.90885-.42076 8.04116.56101 8.04116.56101s-6.35812 4.25433-6.91913 9.9112c-.49091 4.95002-4.44135 4.53484-6.73214 5.98412-2.2908 1.44928-4.48808-.74802-4.48808-.74802l5.04909-6.73213 5.42311-2.80506s-2.43105.56101-5.0491 2.99206-5.42311 6.73214-5.42311 6.73214zM337.41045 218.53824s6.06752.87853 8.97618-3.92709c1.07527-1.77653 11.78124-4.67509 11.78124-4.67509s-2.01029 3.55307-2.05704 6.17112c-.07666 4.29252-6.07763 7.85416-10.84622 8.41517-4.7686.56102-8.04117-5.79711-8.04117-5.79711s6.17112.88827 9.9112.187c3.74008-.70127 5.04911-2.99206 5.04911-2.99206s-1.38444 1.39976-4.86211 2.80506c-3.69332 1.49244-9.91119-.1402-9.91119-.187zM343.20756 203.76493s-7.58321-6.2989-5.61011-12.15524c1.65889-4.9237 6.59624-9.16437 6.91914-12.71626 0 0 5.32961 6.21788 5.0491 12.52926-.28051 6.31138-6.17112 12.71625-6.17112 12.71625s-1.68303-1.87003-.93502-8.22816c.74802-6.35813 1.87004-6.54514 1.87004-6.54514-1.93539 4.53953-2.1775 9.36128-1.12203 14.39929z" transform="translate(-3.0577591 10.70217438)"/>
  <path style="fill:none;fill-rule:evenodd;stroke:#000;stroke-width:1px;stroke-linecap:butt;stroke-linejoin:miter;stroke-opacity:1" d="M333.29636 178.14542c-.7146-.01109-2.46454-2.09054-2.80505-2.43105M332.36133 168.98223c-3.48744 1.40018-4.67155-.50925-4.30107-1.30901" transform="translate(-3.0577591 10.70217438)"/>
  <path style="fill:#000;fill-rule:evenodd;stroke:#000;stroke-width:1px;stroke-linecap:butt;stroke-linejoin:miter;stroke-opacity:1" d="m303.571 239.22697-2.5124 1.58678 2.24794 2.38017 2.77686-2.38017-2.5124-1.58678z" transform="translate(-3.0577591 10.70217438)"/>
  <path transform="matrix(.96111 -.37309 .37309 .96111 221.23284 7.68899718)" d="m101.62162 89.729727-14.027654-5.520433-11.869085 9.293818-2.232991-14.908521-13.983225-5.63202 11.794662-9.388088-2.11414-14.925838 14.027653 5.520434 11.869085-9.293819 2.232991 14.908521 13.983224 5.63202-11.794661 9.388088 2.114141 14.925838z" style="color:#000;fill:#fc0;fill-opacity:1;fill-rule:nonzero;stroke:none;stroke-width:.995;stroke-linecap:butt;stroke-linejoin:round;marker:none;marker-start:none;marker-mid:none;marker-end:none;stroke-miterlimit:4;stroke-dasharray:none;stroke-dashoffset:0;stroke-opacity:1;visibility:visible;display:inline;overflow:visible;enable-background:accumulate"/>
  <path transform="matrix(.96111 -.37309 .37309 .96111 357.77014 55.04062538)" d="m101.62162 89.729727-14.027654-5.520433-11.869085 9.293818-2.232991-14.908521-13.983225-5.63202 11.794662-9.388088-2.11414-14.925838 14.027653 5.520434 11.869085-9.293819 2.232991 14.908521 13.983224 5.63202-11.794661 9.388088 2.114141 14.925838z" style="color:#000;fill:#fc0;fill-opacity:1;fill-rule:nonzero;stroke:none;stroke-width:.995;stroke-linecap:butt;stroke-linejoin:round;marker:none;marker-start:none;marker-mid:none;marker-end:none;stroke-miterlimit:4;stroke-dasharray:none;stroke-dashoffset:0;stroke-opacity:1;visibility:visible;display:inline;overflow:visible;enable-background:accumulate"/>
  <path transform="matrix(.96111 -.37309 .37309 .96111 403.15304 185.34931738)" d="m101.62162 89.729727-14.027654-5.520433-11.869085 9.293818-2.232991-14.908521-13.983225-5.63202 11.794662-9.388088-2.11414-14.925838 14.027653 5.520434 11.869085-9.293819 2.232991 14.908521 13.983224 5.63202-11.794661 9.388088 2.114141 14.925838z" style="color:#000;fill:#fc0;fill-opacity:1;fill-rule:nonzero;stroke:none;stroke-width:.995;stroke-linecap:butt;stroke-linejoin:round;marker:none;marker-start:none;marker-mid:none;marker-end:none;stroke-miterlimit:4;stroke-dasharray:none;stroke-dashoffset:0;stroke-opacity:1;visibility:visible;display:inline;overflow:visible;enable-background:accumulate"/>
  <path transform="matrix(.96111 -.37309 .37309 .96111 358.86713 314.85514738)" d="m101.62162 89.729727-14.027654-5.520433-11.869085 9.293818-2.232991-14.908521-13.983225-5.63202 11.794662-9.388088-2.11414-14.925838 14.027653 5.520434 11.869085-9.293819 2.232991 14.908521 13.983224 5.63202-11.794661 9.388088 2.114141 14.925838z" style="color:#000;fill:#fc0;fill-opacity:1;fill-rule:nonzero;stroke:none;stroke-width:.995;stroke-linecap:butt;stroke-linejoin:round;marker:none;marker-start:none;marker-mid:none;marker-end:none;stroke-miterlimit:4;stroke-dasharray:none;stroke-dashoffset:0;stroke-opacity:1;visibility:visible;display:inline;overflow:visible;enable-background:accumulate"/>
  <path transform="matrix(.96111 -.37309 .37309 .96111 223.24578 362.84799738)" d="m101.62162 89.729727-14.027654-5.520433-11.869085 9.293818-2.232991-14.908521-13.983225-5.63202 11.794662-9.388088-2.11414-14.925838 14.027653 5.520434 11.869085-9.293819 2.232991 14.908521 13.983224 5.63202-11.794661 9.388088 2.114141 14.925838z" style="color:#000;fill:#fc0;fill-opacity:1;fill-rule:nonzero;stroke:none;stroke-width:.995;stroke-linecap:butt;stroke-linejoin:round;marker:none;marker-start:none;marker-mid:none;marker-end:none;stroke-miterlimit:4;stroke-dasharray:none;stroke-dashoffset:0;stroke-opacity:1;visibility:visible;display:inline;overflow:visible;enable-background:accumulate"/>
  <path transform="matrix(.96111 -.37309 .37309 .96111 86.859995 315.72823738)" d="m101.62162 89.729727-14.027654-5.520433-11.869085 9.293818-2.232991-14.908521-13.983225-5.63202 11.794662-9.388088-2.11414-14.925838 14.027653 5.520434 11.869085-9.293819 2.232991 14.908521 13.983224 5.63202-11.794661 9.388088 2.114141 14.925838z" style="color:#000;fill:#fc0;fill-opacity:1;fill-rule:nonzero;stroke:none;stroke-width:.995;stroke-linecap:butt;stroke-linejoin:round;marker:none;marker-start:none;marker-mid:none;marker-end:none;stroke-miterlimit:4;stroke-dasharray:none;stroke-dashoffset:0;stroke-opacity:1;visibility:visible;display:inline;overflow:visible;enable-background:accumulate"/>
  <path transform="matrix(.96111 -.37309 .37309 .96111 41.384349 186.22240738)" d="m101.62162 89.729727-14.027654-5.520433-11.869085 9.293818-2.232991-14.908521-13.983225-5.63202 11.794662-9.388088-2.11414-14.925838 14.027653 5.520434 11.869085-9.293819 2.232991 14.908521 13.983224 5.63202-11.794661 9.388088 2.114141 14.925838z" style="color:#000;fill:#fc0;fill-opacity:1;fill-rule:nonzero;stroke:none;stroke-width:.995;stroke-linecap:butt;stroke-linejoin:round;marker:none;marker-start:none;marker-mid:none;marker-end:none;stroke-miterlimit:4;stroke-dasharray:none;stroke-dashoffset:0;stroke-opacity:1;visibility:visible;display:inline;overflow:visible;enable-background:accumulate"/>
  <path transform="matrix(.96111 -.37309 .37309 .96111 87.515774 55.72823438)" d="m101.62162 89.729727-14.027654-5.520433-11.869085 9.293818-2.232991-14.908521-13.983225-5.63202 11.794662-9.388088-2.11414-14.925838 14.027653 5.520434 11.869085-9.293819 2.232991 14.908521 13.983224 5.63202-11.794661 9.388088 2.114141 14.925838z" style="color:#000;fill:#fc0;fill-opacity:1;fill-rule:nonzero;stroke:none;stroke-width:.995;stroke-linecap:butt;stroke-linejoin:round;marker:none;marker-start:none;marker-mid:none;marker-end:none;stroke-miterlimit:4;stroke-dasharray:none;stroke-dashoffset:0;stroke-opacity:1;visibility:visible;display:inline;overflow:visible;enable-background:accumulate"/>
</svg>
