<!-- Created with Inkscape (http://www.inkscape.org/) -->
<svg xmlns:rdf="http://www.w3.org/1999/02/22-rdf-syntax-ns#" xmlns="http://www.w3.org/2000/svg" height="360" width="480" version="1.1" xmlns:cc="http://creativecommons.org/ns#" xmlns:dc="http://purl.org/dc/elements/1.1/">
 <metadata>
  <rdf:RDF>
   <cc:Work rdf:about="">
    <dc:format>image/svg+xml</dc:format>
    <dc:type rdf:resource="http://purl.org/dc/dcmitype/StillImage"/>
    <dc:title/>
   </cc:Work>
  </rdf:RDF>
 </metadata>
 <g transform="translate(0,-692.36217)">
  <g transform="translate(-30.25,330.24999)">
   <path d="m30.25,382.11,450,340-450,0z" fill="#fecb00"/>
   <path d="m65.25,362.11,445,0,0,335z" fill="#074337"/>
   <path d="m510.25,722.11,0-25-445-335-35,0,0,20,450,340z" fill="#FFF"/>
   <path stroke-linejoin="miter" d="m159,534.36c3.3676-0.76018,6.8363-0.81283,10-3,4.5758,42.77,26.683,72.287,49,88-24.335,0.51348-42.794,2.1272-59,13z" stroke="#000" stroke-linecap="butt" stroke-miterlimit="4" stroke-dasharray="none" stroke-width="2" fill="#ca4c00"/>
   <path d="M134.97,527.13c0.03-5.77,36.03-5.77,35.93-0.24,0.1,6.47-3.9,7.47-11.9,7.47v92h-12v-92c-7,0-12-1-12.027-7.235z" fill="#000"/>
   <path d="m76,632.36c51,7.1496,102,8.5817,153,0v22c-51.166-9.601-102.15-8.6691-153,0z" fill="#572d17"/>
   <path stroke-linejoin="miter" d="m83,660.36,37,0" stroke="#957106" stroke-linecap="butt" stroke-miterlimit="4" stroke-dasharray="none" stroke-width="4" fill="none"/>
   <path stroke-linejoin="miter" d="m90,634.36,0,17.666" stroke="#000" stroke-linecap="butt" stroke-miterlimit="4" stroke-dasharray="none" stroke-width="3" fill="none"/>
   <path stroke-linejoin="miter" d="m134,637.86,0,10.003" stroke="#000" stroke-linecap="butt" stroke-miterlimit="4" stroke-dasharray="none" stroke-width="3" fill="none"/>
   <path stroke-linejoin="miter" d="M138.92,638.11,139,647.78" stroke="#000" stroke-linecap="butt" stroke-miterlimit="4" stroke-dasharray="none" stroke-width="3" fill="none"/>
   <path stroke-linejoin="miter" d="m142.92,638.2,0.16714,9.4179" stroke="#000" stroke-linecap="butt" stroke-miterlimit="4" stroke-dasharray="none" stroke-width="3" fill="none"/>
   <path stroke-linejoin="miter" d="m148,638.36,0,9" stroke="#000" stroke-linecap="butt" stroke-miterlimit="4" stroke-dasharray="none" stroke-width="3" fill="none"/>
   <path stroke-linejoin="miter" d="m158,638.36,0,9" stroke="#000" stroke-linecap="butt" stroke-miterlimit="4" stroke-dasharray="none" stroke-width="3" fill="none"/>
   <path stroke-linejoin="miter" d="m162,638.36,0,9" stroke="#000" stroke-linecap="butt" stroke-miterlimit="4" stroke-dasharray="none" stroke-width="3" fill="none"/>
   <path stroke-linejoin="miter" d="m166.42,638.2-0.0836,9.3343" stroke="#000" stroke-linecap="butt" stroke-miterlimit="4" stroke-dasharray="none" stroke-width="3" fill="none"/>
   <path stroke-linejoin="miter" d="m171,638.11,0.0836,9.6686" stroke="#000" stroke-linecap="butt" stroke-miterlimit="4" stroke-dasharray="none" stroke-width="3" fill="none"/>
   <path stroke-linejoin="miter" d="m153,638.36,0,9" stroke="#000" stroke-linecap="butt" stroke-miterlimit="4" stroke-dasharray="none" stroke-width="3" fill="none"/>
   <path stroke-linejoin="miter" d="m216,634.36,0,17.749" stroke="#000" stroke-linecap="butt" stroke-miterlimit="4" stroke-dasharray="none" stroke-width="3" fill="none"/>
   <path stroke-linejoin="miter" d="m147,534.36c-3.6667-0.96417-7.3333-1.9465-11-4-4.5758,42.77-26.683,73.287-49,89,24.335,0.51348,43.794,2.1272,60,13z" stroke="#000" stroke-linecap="butt" stroke-miterlimit="4" stroke-dasharray="none" stroke-width="2" fill="#ca4c00"/>
   <path stroke-linejoin="miter" d="m120,660.36,23,0" stroke="#6b490c" stroke-linecap="butt" stroke-miterlimit="4" stroke-dasharray="none" stroke-width="4" fill="#6b490c"/>
   <path stroke-linejoin="miter" d="m157.08,660.36,14.919,0" stroke="#6b490c" stroke-linecap="butt" stroke-miterlimit="4" stroke-dasharray="none" stroke-width="4" fill="#6b490c"/>
   <path d="m143,654.36,0,11,23-5z" fill="#572d17"/>
   <path stroke-linejoin="miter" d="m172,660.36,24,0" stroke="#957106" stroke-linecap="butt" stroke-miterlimit="4" stroke-dasharray="none" stroke-width="4" fill="none"/>
   <path stroke-linejoin="miter" d="m196,660.36,17,0" stroke="#bf9800" stroke-linecap="butt" stroke-miterlimit="4" stroke-dasharray="none" stroke-width="4" fill="#bf9800"/>
   <path stroke-linejoin="miter" d="m213,660.36,2,0" stroke="#6b490c" stroke-linecap="butt" stroke-miterlimit="4" stroke-dasharray="none" stroke-width="4" fill="#6b490c"/>
   <path stroke-linejoin="miter" d="m218,660.36,2,0" stroke="#6b490c" stroke-linecap="butt" stroke-miterlimit="4" stroke-dasharray="none" stroke-width="4" fill="#6b490c"/>
   <path stroke-linejoin="miter" d="m215,660.36,3,0" stroke="#957106" stroke-linecap="butt" stroke-miterlimit="4" stroke-dasharray="none" stroke-width="4" fill="none"/>
   <path stroke-linejoin="miter" d="m220,660.36,3,0" stroke="#bf9800" stroke-linecap="butt" stroke-miterlimit="4" stroke-dasharray="none" stroke-width="4" fill="#bf9800"/>
   <path fill="#fecb00" d="m364.15,451.25c-3.102,4.0066-10.443-4.0303-19.236-4.2139-8.7938-0.18357-15.023,8.4272-17.588,11.359-2.5645,2.9316-10.809,18.32-10.626,19.969,0.18303,1.6488,5.1301-4.5799,6.9619-5.6791,0.18302,2.1984-2.0154,4.7635-1.4658,5.4961,0.54961,0.73262,6.4117-4.3969,8.4272-4.5799,0.54962,1.4658-1.0992,2.9311-0.54961,5.1295,0.73318,0.73264,4.0308-3.6642,6.2293-4.5799,0.36604,1.6488-2.0154,4.7635-0.73318,6.7783,0.9162,0.18303,6.4117-6.2287,8.2441-6.9619,1.8324-0.73318-0.9162,6.0457,0,6.5953,1.6488-1.0992,6.7789-6.9619,8.4277-7.6945,1.6488-0.73263-0.18302,7.5115,0.54961,7.5115,2.0149-1.4658,7.1449-8.4272,7.6945-9.5264,0.54961-1.0992-0.54961,10.626,5.1295,16.855,5.6791,6.2293,14.29,13.374,15.206,13.374,1.0992-2.0154-0.36604-6.2287,0.54961-6.0457,2.5645,2.748,7.3279,6.7783,8.4272,6.7783,1.0992,0-0.73318-4.3969,0.73262-4.3969,2.9316,2.748,11.359,13.557,27.847,18.504-1.0992-3.1146-3.4812-5.8627-3.6642-7.3279,1.0992,0.18302,4.947,2.0154,5.6797,1.8318,0.73263-0.18357-8.0611-10.992-7.5115-12.458,2.0154-0.18301,2.9316,1.0992,3.6642,0.18302-0.9162-1.4652-8.6107-10.076-8.6107-12.091,0-2.0154,2.382,0.36659,3.1146,0,0.73262-0.36659-2.9311-8.0611-2.1984-8.9768,0.73263-0.91565,8.7932,4.9465,10.809,4.9465,2.0154,0,0.54961-7.1449,1.4658-7.5115,0.9162-0.36659,7.6951,3.8473,9.1603,3.8473,1.4653,0,1.2822-3.1146,1.8318-2.748,0.5496,0.36659,16.488,16.305,10.992,34.992-5.4961,13.374-16.488,20.519-32.61,14.656,0.91565,1.4658,9.5264,8.6107,18.87,6.0457,9.3434-2.565,20.702-9.893,19.419-28.213-1.2822-18.32-7.3285-20.885-8.2441-23.633-0.91565-2.748,1.4664,0.73264,3.4812,1.4658,2.0149,0.73317-0.36659-3.8478-0.9162-5.8632-0.5496-2.0154,6.0457,4.2138,7.6945,4.7635,1.6488,0.54961-3.8473-15.022-5.4961-16.122-1.6488-1.0992,1.6488,0.36604,2.748,0.73263s-10.077-17.038-12.458-17.038c-2.3815,0,2.0149-0.9162,3.2976-0.9162,1.2828,0-12.823-11.359-15.205-11.359s5.129-2.9316,5.8621-3.1146c1.2828,0.18302-16.305-9.3434-32.06,0.18302-0.91619-0.73209,7.4203-6.503,7.6945-8.9762,0.0918-0.64139-2.7475-2.0154-2.9311-2.748-0.18358-0.73263,4.3969-2.9311,4.5799-4.5799-1.0992-1.4658-3.1146-0.9162-4.2139-1.2822-0.27426-1.374,3.8478-4.7635,3.4812-6.2287-0.27481-0.82442-3.2982-1.0992-4.0308-0.54961-0.73263,0.54961,1.9242-3.8473,1.4658-5.1295-0.36604-0.54961-1.8318-0.18302-3.2977,0.18302-0.9162-0.18302,4.7635-8.0611,3.6642-9.1603-1.0992-1.0992-16.489,8.0606-22.168,18.32-5.6791,10.26-1.2817,18.504-2.0149,21.984-0.73318,3.4807-1.6494,6.9619-4.0308,6.9619-2.3815,0-7.877-3.6642-9.7094-5.4961-1.8324-1.8318-2.1984-3.1146-4.7635-3.8473-2.565-0.73263-8.4272,1.4658-10.626,1.6488-2.1984,0.18303-10.809-1.6488-11.359-1.0992-0.54961,0.54962,8.4272,3.8473,10.443,4.9465,2.0154,1.0992,2.199,2.565,3.6642,3.4807,1.4653,0.91565,15.205,4.9465,10.809,10.626zm53.679,25.832c4.3969,4.3969,34.076,24.183,34.076,48.366s-21.618,23.451-27.847,22.718c6.9619,5.8621,33.343,4.7629,33.343-22.718,0-24.183-34.076-48.366-38.473-50.564-4.3969-2.1984-5.4961-2.1984-1.0992,2.1984z"/>
  </g>
 </g>
</svg>
