<svg xmlns="http://www.w3.org/2000/svg" width="950" height="478" version="1.0">
  <g transform="translate(236 -482.36218)">
    <path style="fill:#d40000;fill-opacity:1;stroke:none;stroke-opacity:1" d="M-236 482.36218h950v478h-950z"/>
    <path style="fill:#fff;fill-opacity:1;stroke:none;stroke-opacity:1" d="m588-23.637818-38.36977-14.555006-26.27152 31.5261049 1.98573-40.9895659-38.10146-15.243593L526.84-73.677817l2.72352-40.947163 22.48658 34.328433 39.78468-10.063145-25.69954 31.994077L588-23.637818z" transform="matrix(.57761 -.91076 .86124 .61083 311.7291 1089.5356)"/>
    <g style="fill:#fff">
      <path transform="matrix(.3055 -.14085 .22727 .13176 306.68761 657.22188)" d="M305.88759 148.58816a361 309 0 0 1-3.64372-56.582058L663 103.36218z" style="fill:#fff;fill-opacity:1;stroke:none;stroke-opacity:1"/>
      <path transform="matrix(.38084 -.43733 .4232 .38592 220.22275 909.71299)" d="m588-23.637818-38.36977-14.555006-26.27152 31.5261049 1.98573-40.9895659-38.10146-15.243593L526.84-73.677817l2.72352-40.947163 22.48658 34.328433 39.78468-10.063145-25.69954 31.994077L588-23.637818z" style="fill:#fff;fill-opacity:1;stroke:none;stroke-opacity:1"/>
    </g>
    <g style="opacity:1;color:#000;fill:#fff;fill-opacity:1;fill-rule:nonzero;stroke:none;stroke-width:1;stroke-linecap:butt;stroke-linejoin:miter;marker:none;marker-start:none;marker-mid:none;marker-end:none;stroke-miterlimit:4;stroke-dasharray:none;stroke-dashoffset:0;stroke-opacity:1;visibility:visible;display:inline;overflow:visible;enable-background:accumulate">
      <path transform="matrix(.2047 -.26695 .26248 .01071 388.99828633 771.51621522)" d="M305.88759 148.58816a361 309 0 0 1-3.64372-56.582058L663 103.36218z" style="color:#000;fill:#fff;fill-opacity:1;fill-rule:nonzero;stroke:none;stroke-width:3.71999025;stroke-linecap:butt;stroke-linejoin:miter;marker:none;marker-start:none;marker-mid:none;marker-end:none;stroke-miterlimit:4;stroke-dasharray:none;stroke-dashoffset:0;stroke-opacity:1;visibility:visible;display:inline;overflow:visible;enable-background:accumulate"/>
      <path transform="matrix(.13325 -.5644 .55426 .14433 430.11651319 1035.21532602)" d="m588-23.637818-38.36977-14.555006-26.27152 31.5261049 1.98573-40.9895659-38.10146-15.243593L526.84-73.677817l2.72352-40.947163 22.48658 34.328433 39.78468-10.063145-25.69954 31.994077L588-23.637818z" style="color:#000;fill:#fff;fill-opacity:1;fill-rule:nonzero;stroke:none;stroke-width:1.73537982;stroke-linecap:butt;stroke-linejoin:miter;marker:none;marker-start:none;marker-mid:none;marker-end:none;stroke-miterlimit:4;stroke-dasharray:none;stroke-dashoffset:0;stroke-opacity:1;visibility:visible;display:inline;overflow:visible;enable-background:accumulate"/>
    </g>
    <g style="fill:#fff">
      <path transform="matrix(.07762 -.32732 .24391 -.09757 497.08816276 829.68438026)" d="M305.88759 148.58816a361 309 0 0 1-3.64372-56.582058L663 103.36218z" style="fill:#fff;fill-opacity:1;stroke:none;stroke-opacity:1"/>
      <path transform="matrix(-.10922 -.56953 .56482 -.09497 642.45510793 1053.50659774)" d="m588-23.637818-38.36977-14.555006-26.27152 31.5261049 1.98573-40.9895659-38.10146-15.243593L526.84-73.677817l2.72352-40.947163 22.48658 34.328433 39.78468-10.063145-25.69954 31.994077L588-23.637818z" style="fill:#fff;fill-opacity:1;stroke:none;stroke-opacity:1"/>
    </g>
    <g style="fill:#fff">
      <path transform="matrix(-.0845 -.32561 .16994 -.20033 638.4313891 835.29365331)" d="M305.88759 148.58816a361 309 0 0 1-3.64372-56.582058L663 103.36218z" style="fill:#fff;fill-opacity:1;stroke:none;stroke-opacity:1"/>
      <path transform="matrix(-.36293 -.4523 .4548 -.34813 871.60809849 965.12645586)" d="m588-23.637818-38.36977-14.555006-26.27152 31.5261049 1.98573-40.9895659-38.10146-15.243593L526.84-73.677817l2.72352-40.947163 22.48658 34.328433 39.78468-10.063145-25.69954 31.994077L588-23.637818z" style="fill:#fff;fill-opacity:1;stroke:none;stroke-opacity:1"/>
    </g>
    <g style="fill:#fff">
      <path transform="matrix(.33605 -.01541 .1609 .20766 285.55410352 546.57810525)" d="M305.88759 148.58816a361 309 0 0 1-3.64372-56.582058L663 103.36218z" style="fill:#fff;fill-opacity:1;stroke:none;stroke-opacity:1"/>
      <path transform="matrix(.51752 -.26168 .24668 .5169 110.35446014 747.90625482)" d="m588-23.637818-38.36977-14.555006-26.27152 31.5261049 1.98573-40.9895659-38.10146-15.243593L526.84-73.677817l2.72352-40.947163 22.48658 34.328433 39.78468-10.063145-25.69954 31.994077L588-23.637818z" style="fill:#fff;fill-opacity:1;stroke:none;stroke-opacity:1"/>
    </g>
    <path style="fill:navy;fill-opacity:1;fill-rule:evenodd;stroke:none;stroke-width:1px;stroke-linecap:butt;stroke-linejoin:miter;stroke-opacity:1" d="m-235.5 482.36218 949.5 478-950.5-.5 1-477.5z"/>
    <g style="fill:#000">
      <path style="fill:#000;fill-opacity:1;fill-rule:evenodd;stroke:none;stroke-width:1px;stroke-linecap:butt;stroke-linejoin:miter;stroke-opacity:1" d="M87 138.36218s-115-65.999997-271 152c-156 218 6-9 6-9l191-109s3-23 74-34z" transform="translate(11 564)"/>
      <path style="fill:#000;fill-opacity:1;fill-rule:evenodd;stroke:none;stroke-width:1px;stroke-linecap:butt;stroke-linejoin:miter;stroke-opacity:1" d="M136 154.36218s-17-23-181 40 2-2 2-2l142 32s-82-38 37-70z" transform="translate(11 564)"/>
      <path style="fill:#000;fill-opacity:1;fill-rule:evenodd;stroke:none;stroke-width:1px;stroke-linecap:butt;stroke-linejoin:miter;stroke-opacity:1" d="m97 221.82943-138-36.46725-133 87.89543s125-25.24656 107 17.7661c-18 43.01265 181-73.86957 164-69.19428z" transform="translate(11 564)"/>
      <path style="fill:#000;fill-opacity:1;fill-rule:evenodd;stroke:none;stroke-width:1px;stroke-linecap:butt;stroke-linejoin:miter;stroke-opacity:1" d="m7 159.36218 19 39-49 12 30-51z" transform="translate(11 564)"/>
    </g>
    <path d="m-257.83214 836.47313-15.33115 20.33216 22.86082-12.72252-54.46813 162.06513-68.88186-98.0319 9.51131-117.26067 106.30901 45.6178z" style="fill:navy;fill-rule:evenodd;stroke:none;stroke-width:1px;stroke-linecap:butt;stroke-linejoin:miter;stroke-opacity:1" transform="translate(110 -13)"/>
    <g style="fill:#000">
      <path d="m-4 311.36218 88-26s-9 15-35 23 31-7 31-7l-74 42-10-32z" style="fill:#000;fill-opacity:1;fill-rule:evenodd;stroke:none;stroke-width:1px;stroke-linecap:butt;stroke-linejoin:miter;stroke-opacity:1" transform="translate(11 577)"/>
    </g>
    <rect style="opacity:1;color:#000;fill:#000;fill-opacity:1;fill-rule:nonzero;stroke:navy;stroke-width:3.3785615;stroke-linecap:butt;stroke-linejoin:miter;marker:none;marker-start:none;marker-mid:none;marker-end:none;stroke-miterlimit:4;stroke-dasharray:none;stroke-dashoffset:0;stroke-opacity:1;visibility:visible;display:inline;overflow:visible;enable-background:accumulate" width="10.590645" height="153.50671" x="-105.9603" y="756.45941" rx="10.583" transform="matrix(.99929 .03767 -.01189 .99993 0 0)"/>
    <rect style="opacity:1;color:#000;fill:#000;fill-opacity:1;fill-rule:nonzero;stroke:navy;stroke-width:4.05279016;stroke-linecap:butt;stroke-linejoin:miter;marker:none;marker-start:none;marker-mid:none;marker-end:none;stroke-miterlimit:4;stroke-dasharray:none;stroke-dashoffset:0;stroke-opacity:1;visibility:visible;display:inline;overflow:visible;enable-background:accumulate" width="11.192155" height="209.01657" x="149.09366" y="670.94751" rx="11.184077" transform="matrix(.95517 .29605 -.1467 .98918 0 0)"/>
    <g>
      <path style="fill:#000;fill-opacity:1;fill-rule:evenodd;stroke:none;stroke-width:1px;stroke-linecap:butt;stroke-linejoin:miter;stroke-opacity:1" d="M-214 295.36218s86 56 293-8-68 21-68 21l70-6s-6 91-305 17 1 0 1 0l18-6-9-18z" transform="translate(11 577)"/>
      <path style="opacity:1;color:#000;fill:navy;fill-opacity:1;fill-rule:nonzero;stroke:none;stroke-width:1;stroke-linecap:butt;stroke-linejoin:miter;marker:none;marker-start:none;marker-mid:none;marker-end:none;stroke-miterlimit:4;stroke-dasharray:none;stroke-dashoffset:0;stroke-opacity:1;visibility:visible;display:inline;overflow:visible;enable-background:accumulate" d="M-337 845.36218h124v89h-124z"/>
    </g>
  </g>
</svg>
