<svg xmlns="http://www.w3.org/2000/svg" width="510" height="344" version="1.0">
  <path style="opacity:1;color:#000;fill:#784421;fill-opacity:1;fill-rule:nonzero;stroke:none;stroke-width:4;stroke-linecap:butt;stroke-linejoin:miter;marker:none;marker-start:none;marker-mid:none;marker-end:none;stroke-miterlimit:4;stroke-dasharray:none;stroke-dashoffset:0;stroke-opacity:1;visibility:visible;display:inline;overflow:visible;enable-background:accumulate" transform="translate(0 2)" d="M0-2h510v344H0z"/>
  <path style="fill:navy;fill-rule:evenodd;stroke:none;stroke-width:1px;stroke-linecap:butt;stroke-linejoin:miter;stroke-opacity:1" d="m-.5-2.5.5 344 510 .5L-.5-2.5z" transform="translate(0 2)"/>
  <path style="fill:#1e5726;fill-opacity:1;fill-rule:evenodd;stroke:#fff;stroke-width:.97956568;stroke-linecap:butt;stroke-linejoin:round;stroke-miterlimit:4;stroke-dasharray:none;stroke-opacity:1" d="M363.83895 808.03051s1.64205-4.13419-5.46645-11.56739c-1.38329-1.44651 1.14845-8.00599 6.39602-7.41078 6.21174.70459 4.18408 13.5593 4.18408 13.5593l-5.11365 5.41887z" transform="rotate(-9.68614 -3956.96255154 338.1914147)"/>
  <path style="fill:#1e5726;fill-opacity:1;fill-rule:evenodd;stroke:#fff;stroke-width:.95808733;stroke-linecap:butt;stroke-linejoin:round;stroke-miterlimit:4;stroke-dasharray:none;stroke-opacity:1" d="M369.88057 793.80358s-1.82608 3.8996-11.65889 3.10785c-1.91342-.15404-4.85869 5.97611-1.02579 9.66799 4.5372 4.37022 12.21894-5.3677 12.21894-5.3677l.46574-7.40814z" transform="rotate(-9.68614 -3956.96255154 338.1914147)"/>
  <path style="fill:#1e5726;fill-opacity:1;fill-rule:evenodd;stroke:#fff;stroke-width:1.15216947;stroke-linecap:butt;stroke-linejoin:round;stroke-miterlimit:4;stroke-dasharray:none;stroke-opacity:1" d="M370.27737 799.84572s-2.25366 4.39465-14.79296 3.31316c-2.44009-.21044-6.07796 6.69658-1.1273 10.96029 5.86032 5.04713 15.4644-5.86914 15.4644-5.86914l.45586-8.40431z" transform="rotate(-9.68614 -3956.96255154 338.1914147)"/>
  <path style="fill:#1e5726;fill-opacity:1;fill-rule:evenodd;stroke:#fff;stroke-width:1.46475983;stroke-linecap:butt;stroke-linejoin:round;stroke-miterlimit:4;stroke-dasharray:none;stroke-opacity:1" d="M370.54264 806.45325s-2.77512 6.05804-17.59088 4.88771c-2.88309-.22772-7.35812 9.29597-1.60261 14.99881 6.81306 6.75069 18.44821-8.3955 18.44821-8.3955l.74528-11.49102z" transform="rotate(-9.68614 -3956.96255154 338.1914147)"/>
  <path style="fill:#1e5726;fill-opacity:1;fill-rule:evenodd;stroke:#fff;stroke-width:1.04789817;stroke-linecap:butt;stroke-linejoin:round;stroke-miterlimit:4;stroke-dasharray:none;stroke-opacity:1" d="M370.72252 815.26049s-3.35465 7.55952-21.03584 6.20382c-3.44067-.26381-8.84857 11.62109-2.01569 18.68033 8.08837 8.3563 22.08335-10.57589 22.08335-10.57589l.96818-14.30826z" transform="rotate(-9.68614 -3956.96255154 338.1914147)"/>
  <path style="fill:#1e5726;fill-opacity:1;fill-rule:evenodd;stroke:#fff;stroke-width:1.51023722;stroke-linecap:butt;stroke-linejoin:round;stroke-miterlimit:4;stroke-dasharray:none;stroke-opacity:1" d="M370.55987 824.78924s-27.88092 7.53836-28.85364 11.3359c-1.26827 4.95139-4.19081 6.738 4.42705 12.92255 10.20132 7.32091 22.60839-10.47733 22.60839-10.47733l1.8182-13.78112z" transform="rotate(-9.68614 -3956.96255154 338.1914147)"/>
  <path d="M371.89059 835.73646s3.83729 15.31266-10.78894 20.91303c-14.94154 5.72109-15.31839-6.76621-12.31583-11.56602 2.57509-4.11648 23.46101-8.725 23.10477-9.34701z" style="fill:#fff;fill-rule:evenodd;stroke:#f5f5f5;stroke-width:2.91489029;stroke-linecap:butt;stroke-linejoin:round;stroke-miterlimit:4;stroke-dasharray:none;stroke-opacity:1" transform="rotate(-9.68614 -3980.89544663 353.33719079)"/>
  <path d="M372.37881 835.56862s4.31297 15.57977-10.83326 21.67376c-15.47273 6.22537-16.11833-6.54774-13.0828-11.53514 2.60335-4.27736 24.30028-9.51072 23.91606-10.13862z" style="fill:#fff;fill-rule:evenodd;stroke:#1e5726;stroke-width:1.38293624;stroke-linecap:butt;stroke-linejoin:round;stroke-miterlimit:4;stroke-dasharray:none;stroke-opacity:1" transform="rotate(-9.68614 -3980.89544663 353.33719079)"/>
  <g>
    <path style="fill:#1e5726;fill-opacity:1;fill-rule:evenodd;stroke:#fff;stroke-width:.97956568;stroke-linecap:butt;stroke-linejoin:round;stroke-miterlimit:4;stroke-dasharray:none;stroke-opacity:1" d="M363.83895 808.03051s1.64205-4.13419-5.46645-11.56739c-1.38329-1.44651 1.14845-8.00599 6.39602-7.41078 6.21174.70459 4.18408 13.5593 4.18408 13.5593l-5.11365 5.41887z" transform="rotate(-9.68614 -4060.58033874 47.91975194)"/>
    <path style="fill:#1e5726;fill-opacity:1;fill-rule:evenodd;stroke:#fff;stroke-width:.95808733;stroke-linecap:butt;stroke-linejoin:round;stroke-miterlimit:4;stroke-dasharray:none;stroke-opacity:1" d="M369.88057 793.80358s-1.82608 3.8996-11.65889 3.10785c-1.91342-.15404-4.85869 5.97611-1.02579 9.66799 4.5372 4.37022 12.21894-5.3677 12.21894-5.3677l.46574-7.40814z" transform="rotate(-9.68614 -4060.58033874 47.91975194)"/>
    <path style="fill:#1e5726;fill-opacity:1;fill-rule:evenodd;stroke:#fff;stroke-width:1.15216947;stroke-linecap:butt;stroke-linejoin:round;stroke-miterlimit:4;stroke-dasharray:none;stroke-opacity:1" d="M370.27737 799.84572s-2.25366 4.39465-14.79296 3.31316c-2.44009-.21044-6.07796 6.69658-1.1273 10.96029 5.86032 5.04713 15.4644-5.86914 15.4644-5.86914l.45586-8.40431z" transform="rotate(-9.68614 -4060.58033874 47.91975194)"/>
    <path style="fill:#1e5726;fill-opacity:1;fill-rule:evenodd;stroke:#fff;stroke-width:1.46475983;stroke-linecap:butt;stroke-linejoin:round;stroke-miterlimit:4;stroke-dasharray:none;stroke-opacity:1" d="M370.54264 806.45325s-2.77512 6.05804-17.59088 4.88771c-2.88309-.22772-7.35812 9.29597-1.60261 14.99881 6.81306 6.75069 18.44821-8.3955 18.44821-8.3955l.74528-11.49102z" transform="rotate(-9.68614 -4060.58033874 47.91975194)"/>
    <path style="fill:#1e5726;fill-opacity:1;fill-rule:evenodd;stroke:#fff;stroke-width:1.04789817;stroke-linecap:butt;stroke-linejoin:round;stroke-miterlimit:4;stroke-dasharray:none;stroke-opacity:1" d="M370.72252 815.26049s-3.35465 7.55952-21.03584 6.20382c-3.44067-.26381-8.84857 11.62109-2.01569 18.68033 8.08837 8.3563 22.08335-10.57589 22.08335-10.57589l.96818-14.30826z" transform="rotate(-9.68614 -4060.58033874 47.91975194)"/>
    <path style="fill:#1e5726;fill-opacity:1;fill-rule:evenodd;stroke:#fff;stroke-width:1.51023722;stroke-linecap:butt;stroke-linejoin:round;stroke-miterlimit:4;stroke-dasharray:none;stroke-opacity:1" d="M370.55987 824.78924s-27.88092 7.53836-28.85364 11.3359c-1.26827 4.95139-4.19081 6.738 4.42705 12.92255 10.20132 7.32091 22.60839-10.47733 22.60839-10.47733l1.8182-13.78112z" transform="rotate(-9.68614 -4060.58033874 47.91975194)"/>
    <path d="M371.89059 835.73646s3.83729 15.31266-10.78894 20.91303c-14.94154 5.72109-15.31839-6.76621-12.31583-11.56602 2.57509-4.11648 23.46101-8.725 23.10477-9.34701z" style="fill:#fff;fill-rule:evenodd;stroke:#f5f5f5;stroke-width:2.91489029;stroke-linecap:butt;stroke-linejoin:round;stroke-miterlimit:4;stroke-dasharray:none;stroke-opacity:1" transform="rotate(-9.68614 -4084.51323384 63.06552802)"/>
    <path d="M372.37881 835.56862s4.31297 15.57977-10.83326 21.67376c-15.47273 6.22537-16.11833-6.54774-13.0828-11.53514 2.60335-4.27736 24.30028-9.51072 23.91606-10.13862z" style="fill:#fff;fill-rule:evenodd;stroke:#1e5726;stroke-width:1.38293624;stroke-linecap:butt;stroke-linejoin:round;stroke-miterlimit:4;stroke-dasharray:none;stroke-opacity:1" transform="rotate(-9.68614 -4084.51323384 63.06552802)"/>
  </g>
  <g>
    <path style="fill:#1e5726;fill-opacity:1;fill-rule:evenodd;stroke:#fff;stroke-width:.97956568;stroke-linecap:butt;stroke-linejoin:round;stroke-miterlimit:4;stroke-dasharray:none;stroke-opacity:1" d="M363.83895 808.03051s1.64205-4.13419-5.46645-11.56739c-1.38329-1.44651 1.14845-8.00599 6.39602-7.41078 6.21174.70459 4.18408 13.5593 4.18408 13.5593l-5.11365 5.41887z" transform="rotate(-9.68614 -3527.7757181 373.48265367)"/>
    <path style="fill:#1e5726;fill-opacity:1;fill-rule:evenodd;stroke:#fff;stroke-width:.95808733;stroke-linecap:butt;stroke-linejoin:round;stroke-miterlimit:4;stroke-dasharray:none;stroke-opacity:1" d="M369.88057 793.80358s-1.82608 3.8996-11.65889 3.10785c-1.91342-.15404-4.85869 5.97611-1.02579 9.66799 4.5372 4.37022 12.21894-5.3677 12.21894-5.3677l.46574-7.40814z" transform="rotate(-9.68614 -3527.7757181 373.48265367)"/>
    <path style="fill:#1e5726;fill-opacity:1;fill-rule:evenodd;stroke:#fff;stroke-width:1.15216947;stroke-linecap:butt;stroke-linejoin:round;stroke-miterlimit:4;stroke-dasharray:none;stroke-opacity:1" d="M370.27737 799.84572s-2.25366 4.39465-14.79296 3.31316c-2.44009-.21044-6.07796 6.69658-1.1273 10.96029 5.86032 5.04713 15.4644-5.86914 15.4644-5.86914l.45586-8.40431z" transform="rotate(-9.68614 -3527.7757181 373.48265367)"/>
    <path style="fill:#1e5726;fill-opacity:1;fill-rule:evenodd;stroke:#fff;stroke-width:1.46475983;stroke-linecap:butt;stroke-linejoin:round;stroke-miterlimit:4;stroke-dasharray:none;stroke-opacity:1" d="M370.54264 806.45325s-2.77512 6.05804-17.59088 4.88771c-2.88309-.22772-7.35812 9.29597-1.60261 14.99881 6.81306 6.75069 18.44821-8.3955 18.44821-8.3955l.74528-11.49102z" transform="rotate(-9.68614 -3527.7757181 373.48265367)"/>
    <path style="fill:#1e5726;fill-opacity:1;fill-rule:evenodd;stroke:#fff;stroke-width:1.04789817;stroke-linecap:butt;stroke-linejoin:round;stroke-miterlimit:4;stroke-dasharray:none;stroke-opacity:1" d="M370.72252 815.26049s-3.35465 7.55952-21.03584 6.20382c-3.44067-.26381-8.84857 11.62109-2.01569 18.68033 8.08837 8.3563 22.08335-10.57589 22.08335-10.57589l.96818-14.30826z" transform="rotate(-9.68614 -3527.7757181 373.48265367)"/>
    <path style="fill:#1e5726;fill-opacity:1;fill-rule:evenodd;stroke:#fff;stroke-width:1.51023722;stroke-linecap:butt;stroke-linejoin:round;stroke-miterlimit:4;stroke-dasharray:none;stroke-opacity:1" d="M370.55987 824.78924s-27.88092 7.53836-28.85364 11.3359c-1.26827 4.95139-4.19081 6.738 4.42705 12.92255 10.20132 7.32091 22.60839-10.47733 22.60839-10.47733l1.8182-13.78112z" transform="rotate(-9.68614 -3527.7757181 373.48265367)"/>
    <path d="M371.89059 835.73646s3.83729 15.31266-10.78894 20.91303c-14.94154 5.72109-15.31839-6.76621-12.31583-11.56602 2.57509-4.11648 23.46101-8.725 23.10477-9.34701z" style="fill:#fff;fill-rule:evenodd;stroke:#f5f5f5;stroke-width:2.91489029;stroke-linecap:butt;stroke-linejoin:round;stroke-miterlimit:4;stroke-dasharray:none;stroke-opacity:1" transform="rotate(-9.68614 -3551.7086132 388.62842976)"/>
    <path d="M372.37881 835.56862s4.31297 15.57977-10.83326 21.67376c-15.47273 6.22537-16.11833-6.54774-13.0828-11.53514 2.60335-4.27736 24.30028-9.51072 23.91606-10.13862z" style="fill:#fff;fill-rule:evenodd;stroke:#1e5726;stroke-width:1.38293624;stroke-linecap:butt;stroke-linejoin:round;stroke-miterlimit:4;stroke-dasharray:none;stroke-opacity:1" transform="rotate(-9.68614 -3551.7086132 388.62842976)"/>
  </g>
  <g>
    <path style="fill:#1e5726;fill-opacity:1;fill-rule:evenodd;stroke:#fff;stroke-width:.97956568;stroke-linecap:butt;stroke-linejoin:round;stroke-miterlimit:4;stroke-dasharray:none;stroke-opacity:1" d="M363.83895 808.03051s1.64205-4.13419-5.46645-11.56739c-1.38329-1.44651 1.14845-8.00599 6.39602-7.41078 6.21174.70459 4.18408 13.5593 4.18408 13.5593l-5.11365 5.41887z" transform="rotate(-9.68614 -3631.39350331 83.2109673)"/>
    <path style="fill:#1e5726;fill-opacity:1;fill-rule:evenodd;stroke:#fff;stroke-width:.95808733;stroke-linecap:butt;stroke-linejoin:round;stroke-miterlimit:4;stroke-dasharray:none;stroke-opacity:1" d="M369.88057 793.80358s-1.82608 3.8996-11.65889 3.10785c-1.91342-.15404-4.85869 5.97611-1.02579 9.66799 4.5372 4.37022 12.21894-5.3677 12.21894-5.3677l.46574-7.40814z" transform="rotate(-9.68614 -3631.39350331 83.2109673)"/>
    <path style="fill:#1e5726;fill-opacity:1;fill-rule:evenodd;stroke:#fff;stroke-width:1.15216947;stroke-linecap:butt;stroke-linejoin:round;stroke-miterlimit:4;stroke-dasharray:none;stroke-opacity:1" d="M370.27737 799.84572s-2.25366 4.39465-14.79296 3.31316c-2.44009-.21044-6.07796 6.69658-1.1273 10.96029 5.86032 5.04713 15.4644-5.86914 15.4644-5.86914l.45586-8.40431z" transform="rotate(-9.68614 -3631.39350331 83.2109673)"/>
    <path style="fill:#1e5726;fill-opacity:1;fill-rule:evenodd;stroke:#fff;stroke-width:1.46475983;stroke-linecap:butt;stroke-linejoin:round;stroke-miterlimit:4;stroke-dasharray:none;stroke-opacity:1" d="M370.54264 806.45325s-2.77512 6.05804-17.59088 4.88771c-2.88309-.22772-7.35812 9.29597-1.60261 14.99881 6.81306 6.75069 18.44821-8.3955 18.44821-8.3955l.74528-11.49102z" transform="rotate(-9.68614 -3631.39350331 83.2109673)"/>
    <path style="fill:#1e5726;fill-opacity:1;fill-rule:evenodd;stroke:#fff;stroke-width:1.04789817;stroke-linecap:butt;stroke-linejoin:round;stroke-miterlimit:4;stroke-dasharray:none;stroke-opacity:1" d="M370.72252 815.26049s-3.35465 7.55952-21.03584 6.20382c-3.44067-.26381-8.84857 11.62109-2.01569 18.68033 8.08837 8.3563 22.08335-10.57589 22.08335-10.57589l.96818-14.30826z" transform="rotate(-9.68614 -3631.39350331 83.2109673)"/>
    <path style="fill:#1e5726;fill-opacity:1;fill-rule:evenodd;stroke:#fff;stroke-width:1.51023722;stroke-linecap:butt;stroke-linejoin:round;stroke-miterlimit:4;stroke-dasharray:none;stroke-opacity:1" d="M370.55987 824.78924s-27.88092 7.53836-28.85364 11.3359c-1.26827 4.95139-4.19081 6.738 4.42705 12.92255 10.20132 7.32091 22.60839-10.47733 22.60839-10.47733l1.8182-13.78112z" transform="rotate(-9.68614 -3631.39350331 83.2109673)"/>
    <path d="M371.89059 835.73646s3.83729 15.31266-10.78894 20.91303c-14.94154 5.72109-15.31839-6.76621-12.31583-11.56602 2.57509-4.11648 23.46101-8.725 23.10477-9.34701z" style="fill:#fff;fill-rule:evenodd;stroke:#f5f5f5;stroke-width:2.91489029;stroke-linecap:butt;stroke-linejoin:round;stroke-miterlimit:4;stroke-dasharray:none;stroke-opacity:1" transform="rotate(-9.68614 -3655.32639841 98.35674338)"/>
    <path d="M372.37881 835.56862s4.31297 15.57977-10.83326 21.67376c-15.47273 6.22537-16.11833-6.54774-13.0828-11.53514 2.60335-4.27736 24.30028-9.51072 23.91606-10.13862z" style="fill:#fff;fill-rule:evenodd;stroke:#1e5726;stroke-width:1.38293624;stroke-linecap:butt;stroke-linejoin:round;stroke-miterlimit:4;stroke-dasharray:none;stroke-opacity:1" transform="rotate(-9.68614 -3655.32639841 98.35674338)"/>
  </g>
  <g>
    <path style="fill:#1e5726;fill-opacity:1;fill-rule:evenodd;stroke:#fff;stroke-width:.97956568;stroke-linecap:butt;stroke-linejoin:round;stroke-miterlimit:4;stroke-dasharray:none;stroke-opacity:1" d="M363.83895 808.03051s1.64205-4.13419-5.46645-11.56739c-1.38329-1.44651 1.14845-8.00599 6.39602-7.41078 6.21174.70459 4.18408 13.5593 4.18408 13.5593l-5.11365 5.41887z" transform="rotate(-9.68614 -3203.68535996 120.93634823)"/>
    <path style="fill:#1e5726;fill-opacity:1;fill-rule:evenodd;stroke:#fff;stroke-width:.95808733;stroke-linecap:butt;stroke-linejoin:round;stroke-miterlimit:4;stroke-dasharray:none;stroke-opacity:1" d="M369.88057 793.80358s-1.82608 3.8996-11.65889 3.10785c-1.91342-.15404-4.85869 5.97611-1.02579 9.66799 4.5372 4.37022 12.21894-5.3677 12.21894-5.3677l.46574-7.40814z" transform="rotate(-9.68614 -3203.68535996 120.93634823)"/>
    <path style="fill:#1e5726;fill-opacity:1;fill-rule:evenodd;stroke:#fff;stroke-width:1.15216947;stroke-linecap:butt;stroke-linejoin:round;stroke-miterlimit:4;stroke-dasharray:none;stroke-opacity:1" d="M370.27737 799.84572s-2.25366 4.39465-14.79296 3.31316c-2.44009-.21044-6.07796 6.69658-1.1273 10.96029 5.86032 5.04713 15.4644-5.86914 15.4644-5.86914l.45586-8.40431z" transform="rotate(-9.68614 -3203.68535996 120.93634823)"/>
    <path style="fill:#1e5726;fill-opacity:1;fill-rule:evenodd;stroke:#fff;stroke-width:1.46475983;stroke-linecap:butt;stroke-linejoin:round;stroke-miterlimit:4;stroke-dasharray:none;stroke-opacity:1" d="M370.54264 806.45325s-2.77512 6.05804-17.59088 4.88771c-2.88309-.22772-7.35812 9.29597-1.60261 14.99881 6.81306 6.75069 18.44821-8.3955 18.44821-8.3955l.74528-11.49102z" transform="rotate(-9.68614 -3203.68535996 120.93634823)"/>
    <path style="fill:#1e5726;fill-opacity:1;fill-rule:evenodd;stroke:#fff;stroke-width:1.04789817;stroke-linecap:butt;stroke-linejoin:round;stroke-miterlimit:4;stroke-dasharray:none;stroke-opacity:1" d="M370.72252 815.26049s-3.35465 7.55952-21.03584 6.20382c-3.44067-.26381-8.84857 11.62109-2.01569 18.68033 8.08837 8.3563 22.08335-10.57589 22.08335-10.57589l.96818-14.30826z" transform="rotate(-9.68614 -3203.68535996 120.93634823)"/>
    <path style="fill:#1e5726;fill-opacity:1;fill-rule:evenodd;stroke:#fff;stroke-width:1.51023722;stroke-linecap:butt;stroke-linejoin:round;stroke-miterlimit:4;stroke-dasharray:none;stroke-opacity:1" d="M370.55987 824.78924s-27.88092 7.53836-28.85364 11.3359c-1.26827 4.95139-4.19081 6.738 4.42705 12.92255 10.20132 7.32091 22.60839-10.47733 22.60839-10.47733l1.8182-13.78112z" transform="rotate(-9.68614 -3203.68535996 120.93634823)"/>
    <path d="M371.89059 835.73646s3.83729 15.31266-10.78894 20.91303c-14.94154 5.72109-15.31839-6.76621-12.31583-11.56602 2.57509-4.11648 23.46101-8.725 23.10477-9.34701z" style="fill:#fff;fill-rule:evenodd;stroke:#f5f5f5;stroke-width:2.91489029;stroke-linecap:butt;stroke-linejoin:round;stroke-miterlimit:4;stroke-dasharray:none;stroke-opacity:1" transform="rotate(-9.68614 -3227.61825506 136.08212432)"/>
    <path d="M372.37881 835.56862s4.31297 15.57977-10.83326 21.67376c-15.47273 6.22537-16.11833-6.54774-13.0828-11.53514 2.60335-4.27736 24.30028-9.51072 23.91606-10.13862z" style="fill:#fff;fill-rule:evenodd;stroke:#1e5726;stroke-width:1.38293624;stroke-linecap:butt;stroke-linejoin:round;stroke-miterlimit:4;stroke-dasharray:none;stroke-opacity:1" transform="rotate(-9.68614 -3227.61825506 136.08212432)"/>
  </g>
  <path style="fill:#fc0" d="M159.20814 606.60437c-.74355-1.44616-2.44297-7.46366-3.77649-13.37226-1.33351-5.90858-3.02647-13.32118-3.76211-16.47243-5.07373-21.7343-5.91569-26.92066-5.88389-36.24406.05094-14.93385 3.87699-21.00425 19.65304-31.18154 8.23614-5.31321 12.29748-8.86696 12.9065-11.2935 1.18545-4.72318-3.4296-13.98205-7.88457-15.81838-13.44063-5.54014-18.04831-8.90973-24.1396-17.65318-3.47105-4.98237-6.05757-9.31231-5.74781-9.62209.30977-.30976 2.78645.05502 5.50374.81063 2.71727.75562 7.72608 2.06109 11.13069 2.90107 4.23648 1.04522 8.86633 3.9875 14.6695 9.32253 6.94648 6.3861 9.39966 7.7953 13.57025 7.7953 7.86365 0 11.12176-4.32451 13.35484-17.72598 3.02442-18.15044 9.39086-26.34261 24.65796-31.72919 9.03627-3.18817 64.45415-12.60638 65.86659-11.19393 2.08827 2.08827-.45872 4.35617-9.26519 8.2499l-8.46492 3.74273 3.24354 3.4526c3.93807 4.19189 3.11082 5.9105-3.43626 7.13875-7.08025 1.32826-7.41002 3.17809-.75622 4.24208 3.13693.5016 5.7035 1.42817 5.7035 2.05901 0 .63084-3.86743 3.32234-8.59431 5.98109-4.72687 2.65873-8.59431 5.27728-8.59431 5.81895 0 1.48246 7.73964 2.73066 11.2461 1.81369 2.19644-.57437 3.07775-.1522 3.07775 1.4743 0 1.30097-3.99599 4.57746-9.31051 7.6341-5.12077 2.9452-9.31051 5.72891-9.31051 6.18602 0 .45708 2.09352 1.44779 4.65228 2.20157 6.69089 1.97106 6.71942 5.51521.061 7.57629-6.87435 2.1279-12.59602 6.50913-11.28048 8.63772.55371.89591 3.18666 1.62894 5.85101 1.62894 2.66435 0 5.20863.58952 5.65393 1.31004.9869 1.59681-7.12964 6.76199-15.79392 10.0509l-6.37778 2.42096 3.24554 2.89946c7.63226 6.81842 22.12358 10.63568 41.93814 11.04721 11.41503.23709 13.05363 2.11091 5.77804 6.60748-2.79402 1.72679-5.11703 4.21507-5.16225 5.52948-.19856 5.77141-1.44073 14.98523-2.18193 16.1845-.44513.72023-4.62314 3.23471-9.28447 5.58776-7.79058 3.93267-8.54938 4.74253-9.3943 10.02639-1.15828 7.2435-2.95506 8.4307-4.93206 3.25876-4.147-10.84886-12.65546-26.10674-17.56873-31.50526-5.71078-6.27481-14.81134-12.49536-15.74015-10.75896-.29488.55129-.64126 6.11128-.76972 12.35554-.22353 10.86562-1.26544 15.14885-2.70275 11.11073-.36931-1.03765-2.16996-3.61597-4.00142-5.72954-4.77541-5.51114-6.93109-2.70249-6.93109 9.03066 0 5.13063-.55448 9.32841-1.2322 9.32841-.67773 0-2.81927-1.71245-4.75901-3.80547-1.93974-2.09301-4.00382-3.33717-4.58686-2.76481-.58303.57237-1.70463 5.66884-2.49245 11.3255-1.36043 9.76822-3.80646 13.61397-4.71941 7.42006-.23223-1.57562-1.67778-4.4762-3.21233-6.44573-3.59431-4.61318-5.09775-2.55811-6.41186 8.76442-.72889 6.28001-1.43794 8.04977-2.98705 7.45532-1.11722-.42872-2.41788-2.31983-2.8904-4.20245-1.84355-7.34528-5.1851-2.3271-3.86545 5.80494.9331 5.74998.39908 6.06575-4.65632 2.75334-1.9664-1.28844-3.7942-2.09415-4.06179-1.79049-.26759.30367-.89504 5.3357-1.39432 11.18229-1.00701 11.79199-1.47135 13.02975-3.44674 9.18783z" transform="translate(-22.857143 -376.07648)"/>
</svg>
